{
    "accessors": [
        {
            "bufferView": 1,
            "byteOffset": 28,
            "componentType": 5123,
            "count": 56593,
            "type": "VEC4",
            "name": "x0_Salty_PROPS_vertices#0_COLOR_0"
        },
        {
            "bufferView": 1,
            "byteOffset": 16,
            "componentType": 5120,
            "count": 56593,
            "type": "VEC4",
            "name": "x0_Salty_PROPS_vertices#0_NORMAL"
        },
        {
            "bufferView": 1,
            "componentType": 5126,
            "count": 56593,
            "min": [
                -1.100956916809082,
                3.3361661434173584,
                22.764551162719727
            ],
            "max": [
                1.2745451927185059,
                5.170680522918701,
                25.837526321411133
            ],
            "type": "VEC3",
            "name": "x0_Salty_PROPS_vertices#0_POSITION"
        },
        {
            "bufferView": 1,
            "byteOffset": 12,
            "componentType": 5120,
            "count": 56593,
            "type": "VEC4",
            "name": "x0_Salty_PROPS_vertices#0_TANGENT"
        },
        {
            "bufferView": 1,
            "byteOffset": 20,
            "componentType": 5122,
            "count": 56593,
            "type": "VEC2",
            "name": "x0_Salty_PROPS_vertices#0_TEXCOORD_0"
        },
        {
            "bufferView": 1,
            "byteOffset": 24,
            "componentType": 5122,
            "count": 56593,
            "type": "VEC2",
            "name": "x0_Salty_PROPS_vertices#0_TEXCOORD_1"
        },
        {
            "bufferView": 0,
            "componentType": 5123,
            "count": 187350,
            "type": "SCALAR",
            "name": "x0_Salty_PROPS_indices#0"
        }
    ],
    "asset": {
        "generator": "Khronos glTF Blender I/O v1.7.5",
        "version": "2.0",
        "extensions": {
            "ASOBO_asset_optimized": {
                "BoundingBoxMax": [
                    1.2745451927185059,
                    5.170680522918701,
                    25.837526321411133
                ],
                "BoundingBoxMin": [
                    -1.100956916809082,
                    0,
                    0
                ],
                "MajorVersion": 4,
                "MinorVersion": 2
            },
            "ASOBO_normal_map_convention": {
                "tangent_space_convention": "DirectX"
            }
        }
    },
    "bufferViews": [
        {
            "buffer": 0,
            "byteLength": 374700,
            "byteOffset": 0,
            "target": 34963,
            "name": "BufferViewIndex"
        },
        {
            "buffer": 0,
            "byteLength": 2037348,
            "byteStride": 36,
            "byteOffset": 374700,
            "target": 34962,
            "name": "BufferViewVertexND"
        }
    ],
    "extensionsUsed": [
        "MSFT_texture_dds",
        "ASOBO_asset_optimized",
        "ASOBO_normal_map_convention"
    ],
    "extensionsRequired": [
        "MSFT_texture_dds"
    ],
    "materials": [
        {
            "name": "Salty_Props",
            "normalTexture": {
                "index": 0
            },
            "occlusionTexture": {
                "index": 1
            },
            "pbrMetallicRoughness": {
                "baseColorTexture": {
                    "index": 2
                },
                "metallicRoughnessTexture": {
                    "index": 1
                }
            }
        }
    ],
    "meshes": [
        {
            "primitives": [
                {
                    "attributes": {
                        "COLOR_0": 0,
                        "NORMAL": 1,
                        "POSITION": 2,
                        "TANGENT": 3,
                        "TEXCOORD_0": 4,
                        "TEXCOORD_1": 5
                    },
                    "indices": 6,
                    "material": 0,
                    "mode": 4,
                    "extras": {
                        "ASOBO_primitive": {
                            "PrimitiveCount": 62450,
                            "VertexType": "VTX",
                            "VertexVersion": 2
                        }
                    }
                }
            ],
            "name": "x0_Salty_PROPS"
        }
    ],
    "nodes": [
        {
            "mesh": 0,
            "name": "Salty_PROPS"
        }
    ],
    "scene": 0,
    "scenes": [
        {
            "name": "Scene",
            "nodes": [
                0
            ]
        }
    ],
    "textures": [
        {
            "extensions": {
                "MSFT_texture_dds": {
                    "source": 0
                }
            }
        },
        {
            "extensions": {
                "MSFT_texture_dds": {
                    "source": 1
                }
            }
        },
        {
            "extensions": {
                "MSFT_texture_dds": {
                    "source": 2
                }
            }
        },
        {
            "extensions": {
                "MSFT_texture_dds": {
                    "source": 1
                }
            }
        }
    ],
    "buffers": [
        {
            "byteLength": 2412048,
            "uri": "Salty_props.bin"
        }
    ],
    "images": [
        {
            "extras": "ASOBO_image_converted_meta",
            "uri": "B747_COCKPIT_PROPS_NORM.PNG.DDS"
        },
        {
            "extras": "ASOBO_image_converted_meta",
            "uri": "B747_COCKPIT_PROPS_COMP.PNG.DDS"
        },
        {
            "extras": "ASOBO_image_converted_meta",
            "uri": "B747_COCKPIT_PROPS_ALBD.PNG.DDS"
        }
    ]
}
