 <svg viewBox="-26 0 52 84" xmlns="http://www.w3.org/2000/svg">
  <path
    class="nd-path-shadow"
    d="M 0 2 L -6.5 12.5 L -6.5 28.5 L -32.5 51.5 L -32.5 58 L -10 46.5 L -6.5 46.5 L -7 67.5 L -11 73 L -11 79.5 L 0 75 L 11 79.5 L 11 73 L 7 67.5 L 6.5 46.5 L 10 46.5 L 32.5 58 L 32.5 51.5 L 6.5 28.5 L 6.5 12.5 z"
    stroke="black"
    stroke-linecap="round"
    stroke-width="4"
    stroke-linejoin="round"
    fill="none"
  ></path>
  <path
    d="M 0 2 L -6.5 12.5 L -6.5 28.5 L -32.5 51.5 L -32.5 58 L -10 46.5 L -6.5 46.5 L -7 67.5 L -11 73 L -11 79.5 L 0 75 L 11 79.5 L 11 73 L 7 67.5 L 6.5 46.5 L 10 46.5 L 32.5 58 L 32.5 51.5 L 6.5 28.5 L 6.5 12.5 z"
    stroke="white"
    stroke-linecap="round"
    stroke-width="3"
    stroke-linejoin="round"
    fill="none"
  ></path>
</svg>