{"accessors":[{"bufferView":0,"componentType":5126,"count":92,"min":[-34.429168701171878,-44.121097564697269,-13.370769500732422],"max":[34.387718200683597,30.116865158081056,3.632453441619873],"type":"VEC3","name":"x6_Fuselage_vertices#0_POSITION"},{"bufferView":0,"byteOffset":12,"componentType":5120,"count":92,"type":"VEC4","name":"x6_Fuselage_vertices#0_TANGENT"},{"bufferView":0,"byteOffset":16,"componentType":5120,"count":92,"type":"VEC4","name":"x6_Fuselage_vertices#0_NORMAL"},{"bufferView":0,"byteOffset":20,"componentType":5122,"count":92,"type":"VEC2","name":"x6_Fuselage_vertices#0_TEXCOORD_0"},{"bufferView":0,"byteOffset":24,"componentType":5122,"count":92,"type":"VEC2","name":"x6_Fuselage_vertices#0_TEXCOORD_1"},{"bufferView":0,"byteOffset":28,"componentType":5123,"count":92,"type":"VEC4","name":"x6_Fuselage_vertices#0_COLOR_0"},{"bufferView":1,"componentType":5123,"count":204,"type":"SCALAR","name":"x6_Fuselage_indices#0"}],"asset":{"generator":"babylon.js glTF exporter for 3dsmax 2019 v1.0.7690.20642","version":"2.0","extensions":{"ASOBO_asset_optimized":{"BoundingBoxMax":[34.387718200683597,30.116865158081056,3.632453441619873],"BoundingBoxMin":[-34.429168701171878,-44.121097564697269,-13.370769500732422],"MajorVersion":4,"MinorVersion":2},"ASOBO_normal_map_convention":{"tangent_space_convention":"DirectX"}}},"bufferViews":[{"buffer":0,"byteLength":3312,"byteStride":36,"target":34962,"name":"BufferViewVertexND"},{"buffer":0,"byteLength":408,"byteOffset":3312,"target":34963,"name":"BufferViewIndex"}],"extensionsUsed":["ASOBO_normal_map_convention","MSFT_texture_dds","ASOBO_asset_optimized"],"extensionsRequired":["MSFT_texture_dds"],"materials":[{"name":"LOD6","pbrMetallicRoughness":{"baseColorTexture":{"index":0}}}],"meshes":[{"primitives":[{"attributes":{"COLOR_0":5,"NORMAL":2,"POSITION":0,"TANGENT":1,"TEXCOORD_0":3,"TEXCOORD_1":4},"indices":6,"material":0,"mode":4,"extras":{"ASOBO_primitive":{"PrimitiveCount":68,"VertexType":"VTX","VertexVersion":2}}}],"name":"x6_Fuselage"}],"nodes":[{"translation":[0.0207274873,1.1162529,4.87929661e-8],"rotation":[0.7071068,0.0,0.0,0.7071067],"scale":[1.0,1.0,1.0],"mesh":0,"name":"Fuselage"}],"scene":0,"scenes":[{"nodes":[0]}],"textures":[{"extensions":{"MSFT_texture_dds":{"source":0}}}],"buffers":[{"byteLength":3720,"uri":"747_8I_LOD06.bin"}],"images":[{"uri":"747_8I_AIRFRAME_LOD6_ALBD.PNG.DDS","extras":"ASOBO_image_converted_meta"}]}
