{"accessors":[{"bufferView":0,"componentType":5126,"count":2000,"min":[-1.3998743295669556,21.823070526123048,-5.239920616149902],"max":[1.3992269039154053,25.89089012145996,-3.3254311084747316],"type":"VEC3","name":"x4_B747_cockpit_vertices#0_POSITION"},{"bufferView":0,"byteOffset":12,"componentType":5120,"count":2000,"type":"VEC4","name":"x4_B747_cockpit_vertices#0_TANGENT"},{"bufferView":0,"byteOffset":16,"componentType":5120,"count":2000,"type":"VEC4","name":"x4_B747_cockpit_vertices#0_NORMAL"},{"bufferView":0,"byteOffset":20,"componentType":5122,"count":2000,"type":"VEC2","name":"x4_B747_cockpit_vertices#0_TEXCOORD_0"},{"bufferView":0,"byteOffset":24,"componentType":5122,"count":2000,"type":"VEC2","name":"x4_B747_cockpit_vertices#0_TEXCOORD_1"},{"bufferView":0,"byteOffset":28,"componentType":5123,"count":2000,"type":"VEC4","name":"x4_B747_cockpit_vertices#0_COLOR_0"},{"bufferView":1,"componentType":5123,"count":3405,"type":"SCALAR","name":"x4_B747_cockpit_indices#0"}],"asset":{"generator":"babylon.js glTF exporter for 3dsmax 2019 v1.0.7823.24930","version":"2.0","extensions":{"ASOBO_asset_optimized":{"BoundingBoxMax":[1.3992269039154053,25.89089012145996,-3.3254311084747316],"BoundingBoxMin":[-1.3998743295669556,21.823070526123048,-5.239920616149902],"MajorVersion":4,"MinorVersion":3,"UseCheckerboardMaterialForMissingTextures":true},"ASOBO_normal_map_convention":{"tangent_space_convention":"DirectX"}}},"bufferViews":[{"buffer":0,"byteLength":72000,"byteStride":36,"target":34962,"name":"BufferViewVertexND"},{"buffer":0,"byteLength":6810,"byteOffset":72000,"target":34963,"name":"BufferViewIndex"}],"extensionsRequired":["MSFT_texture_dds"],"materials":[{"name":"Generic_LOD5","occlusionTexture":{"index":1},"pbrMetallicRoughness":{"baseColorTexture":{"index":0},"metallicRoughnessTexture":{"index":1}}}],"meshes":[{"primitives":[{"attributes":{"COLOR_0":5,"NORMAL":2,"POSITION":0,"TANGENT":1,"TEXCOORD_0":3,"TEXCOORD_1":4},"indices":6,"material":0,"mode":4,"extras":{"ASOBO_primitive":{"PrimitiveCount":1135,"VertexType":"VTX","VertexVersion":2}}}],"name":"x4_B747_cockpit"}],"nodes":[{"rotation":[0.7071068,0.0,0.0,0.7071068],"mesh":0,"extensions":{"ASOBO_unique_id":{"id":"x4_B747_cockpit_42876"}},"name":"B747_cockpit"},{"translation":[0.481035233,3.61965585,24.5619831],"extensions":{"ASOBO_unique_id":{"id":"PILOT_0_31975"}},"name":"PILOT_0"},{"translation":[-0.488318443,3.61965585,24.5619831],"extensions":{"ASOBO_unique_id":{"id":"PILOT_1_31976"}},"name":"PILOT_1"},{"translation":[-0.000264689326,3.72331858,24.4477673],"extensions":{"ASOBO_unique_id":{"id":"Object007_Elements_32020"}},"name":"Object007_Elements"}],"scene":0,"scenes":[{"nodes":[0,1,2,3]}],"textures":[{"extensions":{"MSFT_texture_dds":{"source":0}}},{"extensions":{"MSFT_texture_dds":{"source":1}}}],"extensionsUsed":["ASOBO_normal_map_convention","ASOBO_unique_id","MSFT_texture_dds","ASOBO_asset_optimized"],"buffers":[{"byteLength":78810,"uri":"747_8I_INTERIOR_LOD04.bin"}],"images":[{"uri":"ATLAS_ALBD.PNG.DDS","extras":"ASOBO_image_converted_meta"},{"uri":"ATLAS_COMP.PNG.DDS","extras":"ASOBO_image_converted_meta"}]}
