{"accessors":[{"bufferView":0,"componentType":5126,"count":3,"min":[-0.017295481637120248,-28.06843376159668,1.2163136005401612],"max":[0.06037280708551407,40.6197509765625,3.222177028656006],"type":"VEC3","name":"x6_Cockpit_vertices#0_POSITION"},{"bufferView":0,"byteOffset":12,"componentType":5120,"count":3,"type":"VEC4","name":"x6_Cockpit_vertices#0_TANGENT"},{"bufferView":0,"byteOffset":16,"componentType":5120,"count":3,"type":"VEC4","name":"x6_Cockpit_vertices#0_NORMAL"},{"bufferView":0,"byteOffset":20,"componentType":5122,"count":3,"type":"VEC2","name":"x6_Cockpit_vertices#0_TEXCOORD_0"},{"bufferView":0,"byteOffset":24,"componentType":5122,"count":3,"type":"VEC2","name":"x6_Cockpit_vertices#0_TEXCOORD_1"},{"bufferView":0,"byteOffset":28,"componentType":5123,"count":3,"type":"VEC4","name":"x6_Cockpit_vertices#0_COLOR_0"},{"bufferView":1,"componentType":5123,"count":3,"type":"SCALAR","name":"x6_Cockpit_indices#0"}],"asset":{"generator":"babylon.js glTF exporter for 3dsmax 2019 v1.0.7818.25960","version":"2.0","extensions":{"ASOBO_asset_optimized":{"BoundingBoxMax":[0.06037280708551407,40.6197509765625,3.222177028656006],"BoundingBoxMin":[-0.017295481637120248,-28.06843376159668,1.2163136005401612],"MajorVersion":4,"MinorVersion":3,"UseCheckerboardMaterialForMissingTextures":true},"ASOBO_normal_map_convention":{"tangent_space_convention":"DirectX"}}},"bufferViews":[{"buffer":0,"byteLength":108,"byteStride":36,"target":34962,"name":"BufferViewVertexND"},{"buffer":0,"byteLength":6,"byteOffset":108,"target":34963,"name":"BufferViewIndex"}],"materials":[{"name":"Prop_Blur_Low","alphaMode":"BLEND","pbrMetallicRoughness":{"metallicFactor":0.0,"roughnessFactor":0.3},"extensions":{"ASOBO_material_shadow_options":{"noCastShadow":true}}}],"meshes":[{"primitives":[{"attributes":{"COLOR_0":5,"NORMAL":2,"POSITION":0,"TANGENT":1,"TEXCOORD_0":3,"TEXCOORD_1":4},"indices":6,"material":0,"mode":4,"extras":{"ASOBO_primitive":{"PrimitiveCount":1,"VertexType":"VTX","VertexVersion":2}}}],"name":"x6_Cockpit"}],"nodes":[{"rotation":[-0.7071068,0.0,0.0,0.7071067],"mesh":0,"extensions":{"ASOBO_unique_id":{"id":"x6_Cockpit"}},"name":"Cockpit"}],"scene":0,"scenes":[{"nodes":[0]}],"extensionsUsed":["ASOBO_normal_map_convention","ASOBO_unique_id","ASOBO_material_shadow_options","ASOBO_asset_optimized"],"buffers":[{"byteLength":114,"uri":"747_8I_INTERIOR_LOD06.bin"}]}
