{"accessors":[{"bufferView":0,"componentType":5126,"count":361,"min":[0],"max":[12],"type":"SCALAR","name":"accessorAnimationInput"},{"bufferView":1,"componentType":5126,"count":361,"type":"VEC4","name":"accessorAnimationRotations"},{"bufferView":0,"byteOffset":1444,"componentType":5126,"count":361,"min":[0],"max":[12],"type":"SCALAR","name":"accessorAnimationInput"},{"bufferView":1,"byteOffset":5776,"componentType":5126,"count":361,"type":"VEC4","name":"accessorAnimationRotations"},{"bufferView":0,"byteOffset":2888,"componentType":5126,"count":361,"min":[0],"max":[12],"type":"SCALAR","name":"accessorAnimationInput"},{"bufferView":1,"byteOffset":11552,"componentType":5126,"count":361,"type":"VEC4","name":"accessorAnimationRotations"},{"bufferView":0,"byteOffset":4332,"componentType":5126,"count":361,"min":[0],"max":[12],"type":"SCALAR","name":"accessorAnimationInput"},{"bufferView":1,"byteOffset":17328,"componentType":5126,"count":361,"type":"VEC4","name":"accessorAnimationRotations"},{"bufferView":2,"componentType":5126,"count":471,"min":[-0.08481203764677048,-0.08665930479764938,-0.6673305630683899],"max":[0.08936022967100143,0.08298930525779724,0.02888762764632702],"type":"VEC3","name":"x3_COCKPIT_pylon_yoke_pilot_vertices#0_POSITION"},{"bufferView":2,"byteOffset":12,"componentType":5120,"count":471,"type":"VEC4","name":"x3_COCKPIT_pylon_yoke_pilot_vertices#0_TANGENT"},{"bufferView":2,"byteOffset":16,"componentType":5120,"count":471,"type":"VEC4","name":"x3_COCKPIT_pylon_yoke_pilot_vertices#0_NORMAL"},{"bufferView":2,"byteOffset":20,"componentType":5122,"count":471,"type":"VEC2","name":"x3_COCKPIT_pylon_yoke_pilot_vertices#0_TEXCOORD_0"},{"bufferView":2,"byteOffset":24,"componentType":5122,"count":471,"type":"VEC2","name":"x3_COCKPIT_pylon_yoke_pilot_vertices#0_TEXCOORD_1"},{"bufferView":2,"byteOffset":28,"componentType":5123,"count":471,"type":"VEC4","name":"x3_COCKPIT_pylon_yoke_pilot_vertices#0_COLOR_0"},{"bufferView":3,"componentType":5123,"count":1656,"type":"SCALAR","name":"x3_COCKPIT_pylon_yoke_pilot_indices#0"},{"bufferView":2,"byteOffset":16956,"componentType":5126,"count":953,"min":[-0.03331756591796875,-0.176244854927063,-0.05246114730834961],"max":[0.028467178344726562,0.176244854927063,0.1286606788635254],"type":"VEC3","name":"x3_COCKPIT_yoke_pilot_vertices#0_POSITION"},{"bufferView":2,"byteOffset":16968,"componentType":5120,"count":953,"type":"VEC4","name":"x3_COCKPIT_yoke_pilot_vertices#0_TANGENT"},{"bufferView":2,"byteOffset":16972,"componentType":5120,"count":953,"type":"VEC4","name":"x3_COCKPIT_yoke_pilot_vertices#0_NORMAL"},{"bufferView":2,"byteOffset":16976,"componentType":5122,"count":953,"type":"VEC2","name":"x3_COCKPIT_yoke_pilot_vertices#0_TEXCOORD_0"},{"bufferView":2,"byteOffset":16980,"componentType":5122,"count":953,"type":"VEC2","name":"x3_COCKPIT_yoke_pilot_vertices#0_TEXCOORD_1"},{"bufferView":2,"byteOffset":16984,"componentType":5123,"count":953,"type":"VEC4","name":"x3_COCKPIT_yoke_pilot_vertices#0_COLOR_0"},{"bufferView":3,"byteOffset":3312,"componentType":5123,"count":3573,"type":"SCALAR","name":"x3_COCKPIT_yoke_pilot_indices#0"},{"bufferView":2,"byteOffset":51264,"componentType":5126,"count":471,"min":[-0.08481203764677048,-0.08665930479764938,-0.6673305630683899],"max":[0.08936022967100143,0.08298930525779724,0.02888762764632702],"type":"VEC3","name":"x3_COCKPIT_pylon_yoke_copilot_vertices#0_POSITION"},{"bufferView":2,"byteOffset":51276,"componentType":5120,"count":471,"type":"VEC4","name":"x3_COCKPIT_pylon_yoke_copilot_vertices#0_TANGENT"},{"bufferView":2,"byteOffset":51280,"componentType":5120,"count":471,"type":"VEC4","name":"x3_COCKPIT_pylon_yoke_copilot_vertices#0_NORMAL"},{"bufferView":2,"byteOffset":51284,"componentType":5122,"count":471,"type":"VEC2","name":"x3_COCKPIT_pylon_yoke_copilot_vertices#0_TEXCOORD_0"},{"bufferView":2,"byteOffset":51288,"componentType":5122,"count":471,"type":"VEC2","name":"x3_COCKPIT_pylon_yoke_copilot_vertices#0_TEXCOORD_1"},{"bufferView":2,"byteOffset":51292,"componentType":5123,"count":471,"type":"VEC4","name":"x3_COCKPIT_pylon_yoke_copilot_vertices#0_COLOR_0"},{"bufferView":3,"byteOffset":10458,"componentType":5123,"count":1656,"type":"SCALAR","name":"x3_COCKPIT_pylon_yoke_copilot_indices#0"},{"bufferView":2,"byteOffset":68220,"componentType":5126,"count":997,"min":[-0.03331756591796875,-0.176244854927063,-0.05246114730834961],"max":[0.028270721435546875,0.176244854927063,0.1286606788635254],"type":"VEC3","name":"x3_COCKPIT_yoke_copilot_vertices#0_POSITION"},{"bufferView":2,"byteOffset":68232,"componentType":5120,"count":997,"type":"VEC4","name":"x3_COCKPIT_yoke_copilot_vertices#0_TANGENT"},{"bufferView":2,"byteOffset":68236,"componentType":5120,"count":997,"type":"VEC4","name":"x3_COCKPIT_yoke_copilot_vertices#0_NORMAL"},{"bufferView":2,"byteOffset":68240,"componentType":5122,"count":997,"type":"VEC2","name":"x3_COCKPIT_yoke_copilot_vertices#0_TEXCOORD_0"},{"bufferView":2,"byteOffset":68244,"componentType":5122,"count":997,"type":"VEC2","name":"x3_COCKPIT_yoke_copilot_vertices#0_TEXCOORD_1"},{"bufferView":2,"byteOffset":68248,"componentType":5123,"count":997,"type":"VEC4","name":"x3_COCKPIT_yoke_copilot_vertices#0_COLOR_0"},{"bufferView":3,"byteOffset":13770,"componentType":5123,"count":3696,"type":"SCALAR","name":"x3_COCKPIT_yoke_copilot_indices#0"},{"bufferView":2,"byteOffset":104112,"componentType":5126,"count":17709,"min":[-1.400412678718567,21.823070526123047,-5.239921569824219],"max":[1.398524284362793,25.89089012145996,-3.325432062149048],"type":"VEC3","name":"x3_B747_cockpit_vertices#0_POSITION"},{"bufferView":2,"byteOffset":104124,"componentType":5120,"count":17709,"type":"VEC4","name":"x3_B747_cockpit_vertices#0_TANGENT"},{"bufferView":2,"byteOffset":104128,"componentType":5120,"count":17709,"type":"VEC4","name":"x3_B747_cockpit_vertices#0_NORMAL"},{"bufferView":2,"byteOffset":104132,"componentType":5122,"count":17709,"type":"VEC2","name":"x3_B747_cockpit_vertices#0_TEXCOORD_0"},{"bufferView":2,"byteOffset":104136,"componentType":5122,"count":17709,"type":"VEC2","name":"x3_B747_cockpit_vertices#0_TEXCOORD_1"},{"bufferView":2,"byteOffset":104140,"componentType":5123,"count":17709,"type":"VEC4","name":"x3_B747_cockpit_vertices#0_COLOR_0"},{"bufferView":3,"byteOffset":21162,"componentType":5123,"count":37434,"type":"SCALAR","name":"x3_B747_cockpit_indices#0"},{"bufferView":2,"byteOffset":741636,"componentType":5126,"count":4,"min":[-0.07871541380882263,-0.0799272209405899,-0.10886751860380173],"max":[0.06317460536956787,0.07628421485424042,0.10560762882232666],"type":"VEC3","name":"x3__Touchpad_1_vertices#0_POSITION"},{"bufferView":2,"byteOffset":741648,"componentType":5120,"count":4,"type":"VEC4","name":"x3__Touchpad_1_vertices#0_TANGENT"},{"bufferView":2,"byteOffset":741652,"componentType":5120,"count":4,"type":"VEC4","name":"x3__Touchpad_1_vertices#0_NORMAL"},{"bufferView":2,"byteOffset":741656,"componentType":5122,"count":4,"type":"VEC2","name":"x3__Touchpad_1_vertices#0_TEXCOORD_0"},{"bufferView":2,"byteOffset":741660,"componentType":5122,"count":4,"type":"VEC2","name":"x3__Touchpad_1_vertices#0_TEXCOORD_1"},{"bufferView":2,"byteOffset":741664,"componentType":5123,"count":4,"type":"VEC4","name":"x3__Touchpad_1_vertices#0_COLOR_0"},{"bufferView":3,"byteOffset":96030,"componentType":5123,"count":6,"type":"SCALAR","name":"x3__Touchpad_1_indices#0"},{"bufferView":2,"byteOffset":741780,"componentType":5126,"count":4,"min":[-0.06572811305522919,-0.0831441655755043,-0.09899061918258667],"max":[0.03177100419998169,0.0751916766166687,0.132668137550354],"type":"VEC3","name":"x3__Touchpad_2_vertices#0_POSITION"},{"bufferView":2,"byteOffset":741792,"componentType":5120,"count":4,"type":"VEC4","name":"x3__Touchpad_2_vertices#0_TANGENT"},{"bufferView":2,"byteOffset":741796,"componentType":5120,"count":4,"type":"VEC4","name":"x3__Touchpad_2_vertices#0_NORMAL"},{"bufferView":2,"byteOffset":741800,"componentType":5122,"count":4,"type":"VEC2","name":"x3__Touchpad_2_vertices#0_TEXCOORD_0"},{"bufferView":2,"byteOffset":741804,"componentType":5122,"count":4,"type":"VEC2","name":"x3__Touchpad_2_vertices#0_TEXCOORD_1"},{"bufferView":2,"byteOffset":741808,"componentType":5123,"count":4,"type":"VEC4","name":"x3__Touchpad_2_vertices#0_COLOR_0"},{"bufferView":3,"byteOffset":96042,"componentType":5123,"count":6,"type":"SCALAR","name":"x3__Touchpad_2_indices#0"},{"bufferView":5,"byteOffset":28,"componentType":5123,"count":20,"type":"VEC4","name":"x0_EFB_vertices#0_COLOR_0"},{"bufferView":5,"byteOffset":16,"componentType":5120,"count":20,"type":"VEC4","name":"x0_EFB_vertices#0_NORMAL"},{"bufferView":5,"componentType":5126,"count":20,"min":[0.8097614645957947,4.099838733673096,24.576757431030273],"max":[0.9268401861190796,4.2138752937316895,24.77374267578125],"type":"VEC3","name":"x0_EFB_vertices#0_POSITION"},{"bufferView":5,"byteOffset":12,"componentType":5120,"count":20,"type":"VEC4","name":"x0_EFB_vertices#0_TANGENT"},{"bufferView":5,"byteOffset":20,"componentType":5122,"count":20,"type":"VEC2","name":"x0_EFB_vertices#0_TEXCOORD_0"},{"bufferView":5,"byteOffset":24,"componentType":5122,"count":20,"type":"VEC2","name":"x0_EFB_vertices#0_TEXCOORD_1"},{"bufferView":4,"componentType":5123,"count":54,"type":"SCALAR","name":"x0_EFB_indices#0"},{"bufferView":5,"byteOffset":748,"componentType":5123,"count":200,"type":"VEC4","name":"x0_EFB_1_vertices#0_COLOR_0"},{"bufferView":5,"byteOffset":736,"componentType":5120,"count":200,"type":"VEC4","name":"x0_EFB_1_vertices#0_NORMAL"},{"bufferView":5,"byteOffset":720,"componentType":5126,"count":200,"min":[0.8046366572380066,4.0907979011535645,24.568965911865234],"max":[0.9358958601951599,4.220336437225342,24.782676696777344],"type":"VEC3","name":"x0_EFB_1_vertices#0_POSITION"},{"bufferView":5,"byteOffset":732,"componentType":5120,"count":200,"type":"VEC4","name":"x0_EFB_1_vertices#0_TANGENT"},{"bufferView":5,"byteOffset":740,"componentType":5122,"count":200,"type":"VEC2","name":"x0_EFB_1_vertices#0_TEXCOORD_0"},{"bufferView":5,"byteOffset":744,"componentType":5122,"count":200,"type":"VEC2","name":"x0_EFB_1_vertices#0_TEXCOORD_1"},{"bufferView":4,"byteOffset":108,"componentType":5123,"count":510,"type":"SCALAR","name":"x0_EFB_1_indices#0"},{"bufferView":5,"byteOffset":7948,"componentType":5123,"count":20,"type":"VEC4","name":"x0_SCREEN_EFB_vertices#0_COLOR_0"},{"bufferView":5,"byteOffset":7936,"componentType":5120,"count":20,"type":"VEC4","name":"x0_SCREEN_EFB_vertices#0_NORMAL"},{"bufferView":5,"byteOffset":7920,"componentType":5126,"count":20,"min":[0.8100476264953613,4.099650859832764,24.576841354370117],"max":[0.9271263480186462,4.213687419891357,24.773826599121094],"type":"VEC3","name":"x0_SCREEN_EFB_vertices#0_POSITION"},{"bufferView":5,"byteOffset":7932,"componentType":5120,"count":20,"type":"VEC4","name":"x0_SCREEN_EFB_vertices#0_TANGENT"},{"bufferView":5,"byteOffset":7940,"componentType":5122,"count":20,"type":"VEC2","name":"x0_SCREEN_EFB_vertices#0_TEXCOORD_0"},{"bufferView":5,"byteOffset":7944,"componentType":5122,"count":20,"type":"VEC2","name":"x0_SCREEN_EFB_vertices#0_TEXCOORD_1"},{"bufferView":4,"byteOffset":1128,"componentType":5123,"count":54,"type":"SCALAR","name":"x0_SCREEN_EFB_indices#0"}],"animations":[{"name":"All Animations","channels":[{"sampler":0,"target":{"node":0,"path":"rotation"}},{"sampler":1,"target":{"node":1,"path":"rotation"}},{"sampler":2,"target":{"node":2,"path":"rotation"}},{"sampler":3,"target":{"node":3,"path":"rotation"}}],"samplers":[{"input":0,"output":1,"interpolation":"LINEAR"},{"input":2,"output":3,"interpolation":"LINEAR"},{"input":4,"output":5,"interpolation":"LINEAR"},{"input":6,"output":7,"interpolation":"LINEAR"}]}],"asset":{"generator":"babylon.js glTF exporter for 3dsmax 2022 v1.0.8277.34991","version":"2.0","extensions":{"ASOBO_asset_optimized":{"BoundingBoxMax":[1.398524284362793,25.89089012145996,0.132668137550354],"BoundingBoxMin":[-1.400412678718567,-0.176244854927063,-5.239921569824219],"MajorVersion":4,"MinorVersion":4,"UseCheckerboardMaterialForMissingTextures":true,"UseOnlyFilenameForImageURI":true},"ASOBO_normal_map_convention":{"tangent_space_convention":"DirectX"}}},"bufferViews":[{"buffer":0,"byteLength":5776,"name":"bufferViewAnimationFloatScalar"},{"buffer":0,"byteLength":23104,"byteOffset":5776,"name":"bufferViewAnimationFloatVec4"},{"buffer":0,"byteLength":741924,"byteStride":36,"byteOffset":28880,"target":34962,"name":"BufferViewVertexND"},{"buffer":0,"byteLength":96054,"byteOffset":770804,"target":34963,"name":"BufferViewIndex"},{"buffer":0,"byteLength":1236,"byteOffset":866860,"target":34963,"name":"BufferViewIndex"},{"buffer":0,"byteLength":8640,"byteStride":36,"byteOffset":868096,"target":34962,"name":"BufferViewVertexND"}],"extensionsRequired":["MSFT_texture_dds"],"materials":[{"name":"Generic_LOD5","occlusionTexture":{"index":1},"pbrMetallicRoughness":{"baseColorTexture":{"index":0},"metallicRoughnessTexture":{"index":1}}},{"name":"$Touchpad"},{"name":"flypad","alphaMode":"BLEND","normalTexture":{"index":2},"occlusionTexture":{"index":3},"pbrMetallicRoughness":{"baseColorTexture":{"index":4},"metallicRoughnessTexture":{"index":3}}},{"name":"flypad-opaque","normalTexture":{"index":2},"pbrMetallicRoughness":{"baseColorTexture":{"index":4}}},{"name":"$EFB"}],"meshes":[{"primitives":[{"attributes":{"COLOR_0":13,"NORMAL":10,"POSITION":8,"TANGENT":9,"TEXCOORD_0":11,"TEXCOORD_1":12},"indices":14,"material":0,"mode":4,"extras":{"ASOBO_primitive":{"PrimitiveCount":552,"VertexType":"VTX","VertexVersion":2}}}],"name":"x3_COCKPIT_pylon_yoke_pilot"},{"primitives":[{"attributes":{"COLOR_0":20,"NORMAL":17,"POSITION":15,"TANGENT":16,"TEXCOORD_0":18,"TEXCOORD_1":19},"indices":21,"material":0,"mode":4,"extras":{"ASOBO_primitive":{"PrimitiveCount":1191,"VertexType":"VTX","VertexVersion":2}}}],"name":"x3_COCKPIT_yoke_pilot"},{"primitives":[{"attributes":{"COLOR_0":27,"NORMAL":24,"POSITION":22,"TANGENT":23,"TEXCOORD_0":25,"TEXCOORD_1":26},"indices":28,"material":0,"mode":4,"extras":{"ASOBO_primitive":{"PrimitiveCount":552,"VertexType":"VTX","VertexVersion":2}}}],"name":"x3_COCKPIT_pylon_yoke_copilot"},{"primitives":[{"attributes":{"COLOR_0":34,"NORMAL":31,"POSITION":29,"TANGENT":30,"TEXCOORD_0":32,"TEXCOORD_1":33},"indices":35,"material":0,"mode":4,"extras":{"ASOBO_primitive":{"PrimitiveCount":1232,"VertexType":"VTX","VertexVersion":2}}}],"name":"x3_COCKPIT_yoke_copilot"},{"primitives":[{"attributes":{"COLOR_0":41,"NORMAL":38,"POSITION":36,"TANGENT":37,"TEXCOORD_0":39,"TEXCOORD_1":40},"indices":42,"material":0,"mode":4,"extras":{"ASOBO_primitive":{"PrimitiveCount":12478,"VertexType":"VTX","VertexVersion":2}}}],"name":"x3_B747_cockpit"},{"primitives":[{"attributes":{"COLOR_0":48,"NORMAL":45,"POSITION":43,"TANGENT":44,"TEXCOORD_0":46,"TEXCOORD_1":47},"indices":49,"material":1,"mode":4,"extras":{"ASOBO_primitive":{"PrimitiveCount":2,"VertexType":"VTX","VertexVersion":2}}}],"name":"x3__Touchpad_1"},{"primitives":[{"attributes":{"COLOR_0":55,"NORMAL":52,"POSITION":50,"TANGENT":51,"TEXCOORD_0":53,"TEXCOORD_1":54},"indices":56,"material":1,"mode":4,"extras":{"ASOBO_primitive":{"PrimitiveCount":2,"VertexType":"VTX","VertexVersion":2}}}],"name":"x3__Touchpad_2"},{"primitives":[{"attributes":{"COLOR_0":57,"NORMAL":58,"POSITION":59,"TANGENT":60,"TEXCOORD_0":61,"TEXCOORD_1":62},"indices":63,"material":2,"mode":4,"extras":{"ASOBO_primitive":{"PrimitiveCount":18,"VertexType":"VTX","VertexVersion":2}}}],"name":"x0_EFB"},{"primitives":[{"attributes":{"COLOR_0":64,"NORMAL":65,"POSITION":66,"TANGENT":67,"TEXCOORD_0":68,"TEXCOORD_1":69},"indices":70,"material":3,"mode":4,"extras":{"ASOBO_primitive":{"PrimitiveCount":170,"VertexType":"VTX","VertexVersion":2}}}],"name":"x0_EFB_1"},{"primitives":[{"attributes":{"COLOR_0":71,"NORMAL":72,"POSITION":73,"TANGENT":74,"TEXCOORD_0":75,"TEXCOORD_1":76},"indices":77,"material":4,"mode":4,"extras":{"ASOBO_primitive":{"PrimitiveCount":18,"VertexType":"VTX","VertexVersion":2}}}],"name":"x0_SCREEN_EFB"}],"nodes":[{"translation":[0.485156357,3.39331055,25.0255127],"rotation":[0.4999999,0.50000006,-0.50000006,0.50000006],"scale":[0.9999999,0.9999999,0.99999994],"mesh":0,"name":"COCKPIT_pylon_yoke_pilot","children":[1]},{"translation":[0.08895111,-0.00349712372,-0.6286564],"rotation":[-1.06610273e-7,-1.99414689e-8,8.217114e-9,1],"scale":[0.918907762,0.9189075,0.9189074],"mesh":1,"name":"COCKPIT_yoke_pilot"},{"translation":[-0.4807784,3.39330864,25.0255127],"rotation":[0.4999999,0.50000006,-0.50000006,0.50000006],"scale":[0.9999999,0.9999999,0.99999994],"mesh":2,"name":"COCKPIT_pylon_yoke_copilot","children":[3]},{"translation":[0.08895302,-0.00349760056,-0.6286583],"rotation":[1.69064663e-7,-7.669806e-8,6.091966e-8,1],"scale":[0.918907046,-0.9189076,0.9189075],"mesh":3,"name":"COCKPIT_yoke_copilot"},{"translation":[0.000538349152,0,0],"rotation":[0.7071068,0,0,0.7071068],"mesh":4,"name":"B747_cockpit"},{"translation":[0.9094721,4.08518934,24.7023067],"rotation":[0,0.107986994,0,0.994152367],"mesh":5,"name":"_Touchpad_1"},{"translation":[-0.8832698,4.086521,24.68191],"scale":[1,0.99999994,0.99999994],"mesh":6,"name":"_Touchpad_2"},{"translation":[0.481035233,3.61965585,24.5619831],"name":"PILOT_0"},{"translation":[-0.488318443,3.61965585,24.5619831],"name":"PILOT_1"},{"translation":[-0.000264689326,3.72331858,24.4477673],"name":"Object007_Elements"},{"mesh":7,"name":"EFB_GLASS_L"},{"mesh":8,"name":"EFB_L"},{"mesh":9,"name":"SCREEN_EFB_L"}],"scene":0,"scenes":[{"nodes":[0,2,4,5,6,7,8,9,10,11,12]}],"textures":[{"extensions":{"MSFT_texture_dds":{"source":0}}},{"extensions":{"MSFT_texture_dds":{"source":1}}},{"extensions":{"MSFT_texture_dds":{"source":2}}},{"extensions":{"MSFT_texture_dds":{"source":3}}},{"extensions":{"MSFT_texture_dds":{"source":4}}},{"extensions":{"MSFT_texture_dds":{"source":3}}},{"extensions":{"MSFT_texture_dds":{"source":2}}},{"extensions":{"MSFT_texture_dds":{"source":4}}}],"extensionsUsed":["ASOBO_normal_map_convention","MSFT_texture_dds","ASOBO_asset_optimized"],"buffers":[{"byteLength":876736,"uri":"747_8I_INTERIOR_LOD03.bin"}],"images":[{"uri":"..\\TEXTURE\\ATLAS_ALBD.PNG.DDS","extras":"ASOBO_image_converted_meta"},{"uri":"..\\TEXTURE\\ATLAS_COMP.PNG.DDS","extras":"ASOBO_image_converted_meta"},{"extras":"ASOBO_image_converted_meta","uri":"FLYPAD_NORM.PNG.DDS"},{"extras":"ASOBO_image_converted_meta","uri":"FLYPAD_COMP.PNG.DDS"},{"extras":"ASOBO_image_converted_meta","uri":"FLYPAD_ALBEDO.TIF.DDS"}]}