<?xml version="1.0" encoding="UTF-8"?>
<!DOCTYPE svg PUBLIC "-//W3C//DTD SVG 1.1//EN" "http://www.w3.org/Graphics/SVG/1.1/DTD/svg11.dtd">
<svg xmlns="http://www.w3.org/2000/svg" version="1.1" width="512px" height="512px" style="shape-rendering:geometricPrecision; text-rendering:geometricPrecision; image-rendering:optimizeQuality; fill-rule:evenodd; clip-rule:evenodd" xmlns:xlink="http://www.w3.org/1999/xlink">
<g><path style="opacity:0.963" fill="#444e54" d="M 507.5,102.5 C 498.07,46.2372 465.07,14.0705 408.5,6C 308.162,2.84031 207.829,2.84031 107.5,6C 62.5923,8.9272 30.7589,30.7605 12,71.5C 8.09585,81.6679 5.26251,92.0012 3.5,102.5C 7.94899,59.2343 29.949,28.7343 69.5,11C 81.6688,6.03277 94.3355,3.3661 107.5,3C 206.167,1 304.833,1 403.5,3C 455.785,7.29332 489.618,34.46 505,84.5C 506.378,90.4323 507.211,96.4323 507.5,102.5 Z"/></g>
<g><path style="opacity:0.999" fill="#2d3438" d="M 507.5,102.5 C 509.2,145.475 509.867,188.475 509.5,231.5C 503.527,224.86 497.194,218.527 490.5,212.5C 479.527,200.86 468.194,189.527 456.5,178.5C 441.167,162.159 425.5,146.826 409.5,132.5C 362.849,77.9871 303.516,53.8205 231.5,60C 158.695,71.3444 106.695,110.178 75.5,176.5C 68.4806,191.89 63.4806,207.89 60.5,224.5C 46.336,302.524 70.0027,367.691 131.5,420C 139.716,426.271 148.382,431.771 157.5,436.5C 159.5,438.167 161.5,439.833 163.5,441.5C 167.5,446.167 171.833,450.5 176.5,454.5C 188.5,467.167 200.833,479.5 213.5,491.5C 217.963,496.465 222.63,501.298 227.5,506C 205.836,506.5 184.169,506.667 162.5,506.5C 141.498,506.167 120.498,505.667 99.5,505C 59.4895,499.43 30.6562,478.597 13,442.5C 9.6378,432.648 6.47113,422.981 3.5,413.5C 0.851225,309.828 0.851225,206.162 3.5,102.5C 5.26251,92.0012 8.09585,81.6679 12,71.5C 30.7589,30.7605 62.5923,8.9272 107.5,6C 207.829,2.84031 308.162,2.84031 408.5,6C 465.07,14.0705 498.07,46.2372 507.5,102.5 Z"/></g>
<g><path style="opacity:1" fill="#60696e" d="M 434.5,174.5 C 455.498,221.412 457.998,269.412 442,318.5C 439.665,324.512 437.332,330.512 435,336.5C 431.455,341.383 428.789,346.716 427,352.5C 424.637,356.345 422.137,360.011 419.5,363.5C 369.338,430.89 302.338,458.723 218.5,447C 169.886,436.796 130.386,412.296 100,373.5C 99.1841,372.177 98.0174,371.511 96.5,371.5C 75.0503,340.67 62.5503,306.337 59,268.5C 58.2965,253.79 58.7965,239.124 60.5,224.5C 63.4806,207.89 68.4806,191.89 75.5,176.5C 117.177,95.6171 184.177,57.4504 276.5,62C 339.888,70.1031 388.722,100.936 423,154.5C 426.809,161.864 430.643,168.53 434.5,174.5 Z"/></g>
<g><path style="opacity:1" fill="#758086" d="M 409.5,132.5 C 419.453,145.472 427.786,159.472 434.5,174.5C 430.643,168.53 426.809,161.864 423,154.5C 388.722,100.936 339.888,70.1031 276.5,62C 184.177,57.4504 117.177,95.6171 75.5,176.5C 106.695,110.178 158.695,71.3444 231.5,60C 303.516,53.8205 362.849,77.9871 409.5,132.5 Z"/></g>
<g><path style="opacity:1" fill="#f2f2f2" d="M 406.5,210.5 C 420.057,264.725 409.723,313.725 375.5,357.5C 374.833,357.833 374.167,358.167 373.5,358.5C 365.353,365.808 357.02,372.975 348.5,380C 298.441,414.048 245.441,419.381 189.5,396C 181.837,392.171 174.504,387.837 167.5,383C 165.975,381.991 164.308,381.491 162.5,381.5C 162.489,379.983 161.823,378.816 160.5,378C 152.314,371.308 144.314,364.475 136.5,357.5C 129.032,349.355 122.699,340.355 117.5,330.5C 98.999,294.664 93.999,256.998 102.5,217.5C 117.264,166.227 149.264,130.06 198.5,109C 253.346,90.2293 304.346,97.5626 351.5,131C 377.906,152.001 396.24,178.501 406.5,210.5 Z"/></g>
<g><path style="opacity:1" fill="#262c30" d="M 456.5,178.5 C 468.194,189.527 479.527,200.86 490.5,212.5C 490.631,213.239 490.464,213.906 490,214.5C 480.14,224.36 470.306,234.194 460.5,244C 461.65,252.755 461.816,261.588 461,270.5C 460.333,271.167 459.667,271.833 459,272.5C 458.076,282.225 456.743,291.892 455,301.5C 430.829,384.338 377.329,437.838 294.5,462C 284.892,463.743 275.225,465.076 265.5,466C 264.833,466.667 264.167,467.333 263.5,468C 254.588,468.816 245.755,468.65 237,467.5C 228.937,475.395 221.104,483.395 213.5,491.5C 200.833,479.5 188.5,467.167 176.5,454.5C 177.15,454.196 177.817,453.863 178.5,453.5C 186.306,456.736 194.306,459.402 202.5,461.5C 204.104,461.061 205.604,460.394 207,459.5C 215.229,461.679 223.562,463.346 232,464.5C 233.928,464.067 235.761,463.4 237.5,462.5C 247.806,463.62 258.139,463.786 268.5,463C 277.695,461.064 287.029,459.398 296.5,458C 314.01,451.916 331.344,445.25 348.5,438C 361.103,430.732 372.437,422.065 382.5,412C 392.783,403.387 401.95,393.887 410,383.5C 420.757,373.367 429.09,361.367 435,347.5C 439.566,335.699 443.566,323.699 447,311.5C 448.385,310.449 449.385,309.116 450,307.5C 454.563,287.345 456.563,267.012 456,246.5C 454.012,242.806 454.178,239.306 456.5,236C 455.887,228.543 454.554,221.209 452.5,214C 453.394,212.604 454.061,211.104 454.5,209.5C 452.366,202.432 450.033,195.432 447.5,188.5C 450.522,185.147 453.522,181.813 456.5,178.5 Z"/></g>
<g><path style="opacity:1" fill="#292f33" d="M 490.5,212.5 C 497.194,218.527 503.527,224.86 509.5,231.5C 509.5,250.167 509.5,268.833 509.5,287.5C 508.674,291.982 508.174,296.649 508,301.5C 482.244,327.952 456.244,354.286 430,380.5C 388.082,422.251 346.582,463.917 305.5,505.5C 313.134,506.542 324.8,506.875 340.5,506.5C 281.167,507.833 221.833,507.833 162.5,506.5C 184.169,506.667 205.836,506.5 227.5,506C 222.63,501.298 217.963,496.465 213.5,491.5C 221.104,483.395 228.937,475.395 237,467.5C 245.755,468.65 254.588,468.816 263.5,468C 264.167,467.333 264.833,466.667 265.5,466C 275.225,465.076 284.892,463.743 294.5,462C 377.329,437.838 430.829,384.338 455,301.5C 456.743,291.892 458.076,282.225 459,272.5C 459.667,271.833 460.333,271.167 461,270.5C 461.816,261.588 461.65,252.755 460.5,244C 470.306,234.194 480.14,224.36 490,214.5C 490.464,213.906 490.631,213.239 490.5,212.5 Z"/></g>
<g><path style="opacity:1" fill="#282f33" d="M 60.5,224.5 C 58.7965,239.124 58.2965,253.79 59,268.5C 62.5503,306.337 75.0503,340.67 96.5,371.5C 107.118,386.118 119.451,399.118 133.5,410.5C 133.062,410.435 132.728,410.601 132.5,411C 141.036,419.368 149.369,427.868 157.5,436.5C 148.382,431.771 139.716,426.271 131.5,420C 70.0027,367.691 46.336,302.524 60.5,224.5 Z"/></g>
<g><path style="opacity:1" fill="#242a2d" d="M 456.5,178.5 C 453.522,181.813 450.522,185.147 447.5,188.5C 450.033,195.432 452.366,202.432 454.5,209.5C 454.061,211.104 453.394,212.604 452.5,214C 454.554,221.209 455.887,228.543 456.5,236C 454.178,239.306 454.012,242.806 456,246.5C 456.563,267.012 454.563,287.345 450,307.5C 449.385,309.116 448.385,310.449 447,311.5C 443.566,323.699 439.566,335.699 435,347.5C 429.09,361.367 420.757,373.367 410,383.5C 401.95,393.887 392.783,403.387 382.5,412C 372.437,422.065 361.103,430.732 348.5,438C 331.344,445.25 314.01,451.916 296.5,458C 287.029,459.398 277.695,461.064 268.5,463C 258.139,463.786 247.806,463.62 237.5,462.5C 235.761,463.4 233.928,464.067 232,464.5C 223.562,463.346 215.229,461.679 207,459.5C 205.604,460.394 204.104,461.061 202.5,461.5C 194.306,459.402 186.306,456.736 178.5,453.5C 177.817,453.863 177.15,454.196 176.5,454.5C 171.833,450.5 167.5,446.167 163.5,441.5C 175.68,445.002 188.014,449.002 200.5,453.5C 201.293,453.069 202.127,452.735 203,452.5C 211.015,455.387 219.182,456.721 227.5,456.5C 251.058,459.101 274.392,457.601 297.5,452C 308.918,448.415 320.252,444.415 331.5,440C 333.002,439.417 334.335,438.584 335.5,437.5C 335.043,436.702 334.376,436.369 333.5,436.5C 369.512,420.822 398.178,396.489 419.5,363.5C 422.137,360.011 424.637,356.345 427,352.5C 428.789,346.716 431.455,341.383 435,336.5C 437.332,330.512 439.665,324.512 442,318.5C 457.998,269.412 455.498,221.412 434.5,174.5C 427.786,159.472 419.453,145.472 409.5,132.5C 425.5,146.826 441.167,162.159 456.5,178.5 Z"/></g>
<g><path style="opacity:1" fill="#2b3235" d="M 509.5,287.5 C 509.5,293.833 509.5,300.167 509.5,306.5C 508.893,311.428 508.06,316.428 507,321.5C 445.601,382.232 384.434,443.399 323.5,505C 317.509,505.499 311.509,505.666 305.5,505.5C 346.582,463.917 388.082,422.251 430,380.5C 456.244,354.286 482.244,327.952 508,301.5C 508.174,296.649 508.674,291.982 509.5,287.5 Z"/></g>
<g><path style="opacity:0.999" fill="#2c3337" d="M 509.5,306.5 C 509.644,342.185 508.977,377.852 507.5,413.5C 500.909,446.831 483.242,472.664 454.5,491C 442.854,497.326 430.52,501.66 417.5,504C 391.866,505.85 366.199,506.683 340.5,506.5C 324.8,506.875 313.134,506.542 305.5,505.5C 311.509,505.666 317.509,505.499 323.5,505C 384.434,443.399 445.601,382.232 507,321.5C 508.06,316.428 508.893,311.428 509.5,306.5 Z"/></g>
<g><path style="opacity:1" fill="#5b6469" d="M 102.5,217.5 C 93.999,256.998 98.999,294.664 117.5,330.5C 116.522,330.811 115.855,331.478 115.5,332.5C 145.578,387.566 192.245,416.233 255.5,418.5C 304.598,417.363 345.098,398.363 377,361.5C 377.844,359.537 377.344,358.204 375.5,357.5C 409.723,313.725 420.057,264.725 406.5,210.5C 406.783,209.711 407.283,209.044 408,208.5C 428.054,277.13 412.221,335.797 360.5,384.5C 307.546,425.897 249.879,433.731 187.5,408C 134.567,381.378 103.733,338.544 95,279.5C 92.88,257.426 94.88,235.76 101,214.5C 101.513,215.527 102.013,216.527 102.5,217.5 Z"/></g>
<g><path style="opacity:1" fill="#545e62" d="M 117.5,330.5 C 122.699,340.355 129.032,349.355 136.5,357.5C 144.24,366.576 152.906,374.576 162.5,381.5C 205.981,412.796 253.481,420.463 305,404.5C 332.028,395.286 354.862,379.953 373.5,358.5C 374.167,358.167 374.833,357.833 375.5,357.5C 377.344,358.204 377.844,359.537 377,361.5C 345.098,398.363 304.598,417.363 255.5,418.5C 192.245,416.233 145.578,387.566 115.5,332.5C 115.855,331.478 116.522,330.811 117.5,330.5 Z"/></g>
<g><path style="opacity:1" fill="#d6d6d6" d="M 136.5,357.5 C 144.314,364.475 152.314,371.308 160.5,378C 161.823,378.816 162.489,379.983 162.5,381.5C 152.906,374.576 144.24,366.576 136.5,357.5 Z"/></g>
<g><path style="opacity:1" fill="#d0d0d0" d="M 373.5,358.5 C 354.862,379.953 332.028,395.286 305,404.5C 253.481,420.463 205.981,412.796 162.5,381.5C 164.308,381.491 165.975,381.991 167.5,383C 174.504,387.837 181.837,392.171 189.5,396C 245.441,419.381 298.441,414.048 348.5,380C 357.02,372.975 365.353,365.808 373.5,358.5 Z"/></g>
<g><path style="opacity:1" fill="#465154" d="M 419.5,363.5 C 398.178,396.489 369.512,420.822 333.5,436.5C 261.97,464.185 195.303,455.518 133.5,410.5C 119.451,399.118 107.118,386.118 96.5,371.5C 98.0174,371.511 99.1841,372.177 100,373.5C 130.386,412.296 169.886,436.796 218.5,447C 302.338,458.723 369.338,430.89 419.5,363.5 Z"/></g>
<g><path style="opacity:1" fill="#1f2629" d="M 133.5,410.5 C 195.303,455.518 261.97,464.185 333.5,436.5C 334.376,436.369 335.043,436.702 335.5,437.5C 334.335,438.584 333.002,439.417 331.5,440C 320.252,444.415 308.918,448.415 297.5,452C 274.392,457.601 251.058,459.101 227.5,456.5C 219.182,456.721 211.015,455.387 203,452.5C 202.127,452.735 201.293,453.069 200.5,453.5C 188.014,449.002 175.68,445.002 163.5,441.5C 161.5,439.833 159.5,438.167 157.5,436.5C 149.369,427.868 141.036,419.368 132.5,411C 132.728,410.601 133.062,410.435 133.5,410.5 Z"/></g>
<g><path style="opacity:0.789" fill="#1f2528" d="M 3.5,413.5 C 6.47113,422.981 9.6378,432.648 13,442.5C 30.6562,478.597 59.4895,499.43 99.5,505C 120.498,505.667 141.498,506.167 162.5,506.5C 221.833,507.833 281.167,507.833 340.5,506.5C 366.199,506.683 391.866,505.85 417.5,504C 430.52,501.66 442.854,497.326 454.5,491C 483.242,472.664 500.909,446.831 507.5,413.5C 500.735,454.082 478.735,482.915 441.5,500C 428.359,505.354 414.692,508.02 400.5,508C 303.167,509.994 205.834,509.994 108.5,508C 62.699,505.18 30.199,483.013 11,441.5C 7.56062,432.408 5.06062,423.075 3.5,413.5 Z"/></g>
</svg>
