<?xml version="1.0" encoding="UTF-8"?>
<!DOCTYPE svg PUBLIC "-//W3C//DTD SVG 1.1//EN" "http://www.w3.org/Graphics/SVG/1.1/DTD/svg11.dtd">
<svg xmlns="http://www.w3.org/2000/svg" version="1.1" width="300px" height="300px" style="shape-rendering:geometricPrecision; text-rendering:geometricPrecision; image-rendering:optimizeQuality; fill-rule:evenodd; clip-rule:evenodd" xmlns:xlink="http://www.w3.org/1999/xlink">
<g><path style="opacity:1" fill="#0033a0" d="M -0.5,-0.5 C 62.8333,-0.5 126.167,-0.5 189.5,-0.5C 172.601,23.0785 155.268,46.4118 137.5,69.5C 135.5,70.3333 133.5,71.1667 131.5,72C 126.788,77.0434 122.455,82.3767 118.5,88C 106.91,88.4744 95.4101,87.9744 84,86.5C 83.2195,87.9437 83.3861,89.277 84.5,90.5C 93.0527,92.7288 100.719,96.5622 107.5,102C 104.833,105.667 102.167,109.333 99.5,113C 94.9145,113.197 90.4145,113.697 86,114.5C 85.2506,115.635 85.4173,116.635 86.5,117.5C 89.6666,118.719 92.6666,120.219 95.5,122C 94.0871,125.177 92.7538,128.344 91.5,131.5C 60.8333,171.5 30.1667,211.5 -0.5,251.5C -0.5,167.5 -0.5,83.5 -0.5,-0.5 Z"/></g>
<g><path style="opacity:1" fill="#022e8a" d="M 191.5,-0.5 C 222.167,-0.5 252.833,-0.5 283.5,-0.5C 234.531,55.1367 185.198,110.47 135.5,165.5C 132.893,166.318 130.226,166.818 127.5,167C 128.416,167.278 129.082,167.778 129.5,168.5C 114.994,170.179 106.16,178.179 103,192.5C 102.501,197.489 102.334,202.489 102.5,207.5C 102.631,208.239 102.464,208.906 102,209.5C 102.214,204.103 100.881,203.436 98,207.5C 70.5964,238.063 43.4298,268.73 16.5,299.5C 10.8333,299.5 5.16667,299.5 -0.5,299.5C -0.5,284.5 -0.5,269.5 -0.5,254.5C 30.5197,214.141 61.1864,173.474 91.5,132.5C 93.8482,129.474 96.8482,127.14 100.5,125.5C 102.824,128.668 105.491,131.168 108.5,133C 109.357,132.311 110.023,131.478 110.5,130.5C 109.423,127.028 108.423,123.528 107.5,120C 109.718,115.739 112.551,111.906 116,108.5C 122.676,113.346 128.176,119.346 132.5,126.5C 134.074,127.631 135.741,127.798 137.5,127C 133.5,116.333 129.5,105.667 125.5,95C 128.879,90.4095 132.379,85.9095 136,81.5C 137.625,77.6679 138.625,73.6679 139,69.5C 157.126,46.554 174.626,23.2207 191.5,-0.5 Z"/></g>
<g><path style="opacity:1" fill="#032e87" d="M 283.5,-0.5 C 288.833,-0.5 294.167,-0.5 299.5,-0.5C 299.5,40.8333 299.5,82.1667 299.5,123.5C 286.403,138.437 273.069,153.27 259.5,168C 267.344,168.171 275.011,168.671 282.5,169.5C 265.5,169.5 248.5,169.5 231.5,169.5C 231.5,173.5 231.5,177.5 231.5,181.5C 237.833,181.5 244.167,181.5 250.5,181.5C 250.5,198.167 250.5,214.833 250.5,231.5C 249.504,215.342 249.17,199.009 249.5,182.5C 247.097,182.393 245.264,183.393 244,185.5C 210.25,223.375 176.75,261.375 143.5,299.5C 101.167,299.5 58.8333,299.5 16.5,299.5C 43.4298,268.73 70.5964,238.063 98,207.5C 100.881,203.436 102.214,204.103 102,209.5C 102.464,208.906 102.631,208.239 102.5,207.5C 108.499,228.179 122.166,236.012 143.5,231C 153.572,227.257 159.739,220.09 162,209.5C 165.158,194.635 160.991,182.469 149.5,173C 143.322,169.329 136.655,167.829 129.5,168.5C 129.082,167.778 128.416,167.278 127.5,167C 130.226,166.818 132.893,166.318 135.5,165.5C 185.198,110.47 234.531,55.1367 283.5,-0.5 Z"/></g>
<g><path style="opacity:1" fill="#f7f9fb" d="M 189.5,-0.5 C 190.167,-0.5 190.833,-0.5 191.5,-0.5C 174.626,23.2207 157.126,46.554 139,69.5C 138.625,73.6679 137.625,77.6679 136,81.5C 132.379,85.9095 128.879,90.4095 125.5,95C 129.5,105.667 133.5,116.333 137.5,127C 135.741,127.798 134.074,127.631 132.5,126.5C 128.176,119.346 122.676,113.346 116,108.5C 112.551,111.906 109.718,115.739 107.5,120C 108.423,123.528 109.423,127.028 110.5,130.5C 110.023,131.478 109.357,132.311 108.5,133C 105.491,131.168 102.824,128.668 100.5,125.5C 96.8482,127.14 93.8482,129.474 91.5,132.5C 91.5,132.167 91.5,131.833 91.5,131.5C 92.7538,128.344 94.0871,125.177 95.5,122C 92.6666,120.219 89.6666,118.719 86.5,117.5C 85.4173,116.635 85.2506,115.635 86,114.5C 90.4145,113.697 94.9145,113.197 99.5,113C 102.167,109.333 104.833,105.667 107.5,102C 100.719,96.5622 93.0527,92.7288 84.5,90.5C 83.3861,89.277 83.2195,87.9437 84,86.5C 95.4101,87.9744 106.91,88.4744 118.5,88C 122.455,82.3767 126.788,77.0434 131.5,72C 133.5,71.1667 135.5,70.3333 137.5,69.5C 155.268,46.4118 172.601,23.0785 189.5,-0.5 Z"/></g>
<g><path style="opacity:1" fill="#032d81" d="M 299.5,123.5 C 299.5,182.167 299.5,240.833 299.5,299.5C 247.5,299.5 195.5,299.5 143.5,299.5C 176.75,261.375 210.25,223.375 244,185.5C 245.264,183.393 247.097,182.393 249.5,182.5C 249.17,199.009 249.504,215.342 250.5,231.5C 255.167,231.5 259.833,231.5 264.5,231.5C 264.5,214.833 264.5,198.167 264.5,181.5C 270.5,181.5 276.5,181.5 282.5,181.5C 282.5,177.833 282.5,174.167 282.5,170.5C 282.5,170.167 282.5,169.833 282.5,169.5C 275.011,168.671 267.344,168.171 259.5,168C 273.069,153.27 286.403,138.437 299.5,123.5 Z"/></g>
<g><path style="opacity:1" fill="#e4e8f3" d="M 91.5,131.5 C 91.5,131.833 91.5,132.167 91.5,132.5C 61.1864,173.474 30.5197,214.141 -0.5,254.5C -0.5,253.5 -0.5,252.5 -0.5,251.5C 30.1667,211.5 60.8333,171.5 91.5,131.5 Z"/></g>
<g><path style="opacity:1" fill="#fafbfc" d="M 129.5,168.5 C 136.655,167.829 143.322,169.329 149.5,173C 160.991,182.469 165.158,194.635 162,209.5C 159.739,220.09 153.572,227.257 143.5,231C 122.166,236.012 108.499,228.179 102.5,207.5C 102.334,202.489 102.501,197.489 103,192.5C 106.16,178.179 114.994,170.179 129.5,168.5 Z"/></g>
<g><path style="opacity:1" fill="#fafbfc" d="M 175.5,169.5 C 187.895,169.082 200.228,169.582 212.5,171C 222.88,175.932 226.713,184.099 224,195.5C 221.638,203.114 216.471,207.614 208.5,209C 202.175,209.5 195.842,209.666 189.5,209.5C 189.5,216.833 189.5,224.167 189.5,231.5C 184.833,231.5 180.167,231.5 175.5,231.5C 175.5,210.833 175.5,190.167 175.5,169.5 Z"/></g>
<g><path style="opacity:1" fill="#fbfcfd" d="M 282.5,170.5 C 282.5,174.167 282.5,177.833 282.5,181.5C 276.5,181.5 270.5,181.5 264.5,181.5C 264.5,198.167 264.5,214.833 264.5,231.5C 259.833,231.5 255.167,231.5 250.5,231.5C 250.5,214.833 250.5,198.167 250.5,181.5C 244.69,180.51 238.69,180.177 232.5,180.5C 232.5,177.167 232.5,173.833 232.5,170.5C 249.167,170.5 265.833,170.5 282.5,170.5 Z"/></g>
<g><path style="opacity:1" fill="#afbbd8" d="M 282.5,169.5 C 282.5,169.833 282.5,170.167 282.5,170.5C 265.833,170.5 249.167,170.5 232.5,170.5C 232.5,173.833 232.5,177.167 232.5,180.5C 238.69,180.177 244.69,180.51 250.5,181.5C 244.167,181.5 237.833,181.5 231.5,181.5C 231.5,177.5 231.5,173.5 231.5,169.5C 248.5,169.5 265.5,169.5 282.5,169.5 Z"/></g>
<g><path style="opacity:1" fill="#082f88" d="M 128.5,179.5 C 142.436,179.435 149.436,186.435 149.5,200.5C 148.564,217.969 139.897,224.136 123.5,219C 120.193,216.222 118.026,212.722 117,208.5C 115.586,200.441 116.586,192.775 120,185.5C 122.637,183.109 125.47,181.109 128.5,179.5 Z"/></g>
<g><path style="opacity:1" fill="#062c84" d="M 189.5,180.5 C 195.925,180.13 202.258,180.63 208.5,182C 212.5,187 212.5,192 208.5,197C 202.258,198.37 195.925,198.87 189.5,198.5C 189.5,192.5 189.5,186.5 189.5,180.5 Z"/></g>
</svg>
