<?xml version="1.0" encoding="UTF-8"?>
<!DOCTYPE svg PUBLIC "-//W3C//DTD SVG 1.1//EN" "http://www.w3.org/Graphics/SVG/1.1/DTD/svg11.dtd">
<svg xmlns="http://www.w3.org/2000/svg" version="1.1" width="1960px" height="723px" style="shape-rendering:geometricPrecision; text-rendering:geometricPrecision; image-rendering:optimizeQuality; fill-rule:evenodd; clip-rule:evenodd" xmlns:xlink="http://www.w3.org/1999/xlink">
<g><path style="opacity:0.986" fill="#b0b1e3" d="M 369.5,-0.5 C 371.5,-0.5 373.5,-0.5 375.5,-0.5C 375.5,17.1667 375.5,34.8333 375.5,52.5C 370.338,54.4935 365.838,57.4935 362,61.5C 355.97,70.3472 349.804,79.0139 343.5,87.5C 343.824,61.759 343.49,36.0923 342.5,10.5C 350.998,5.44904 359.998,1.78238 369.5,-0.5 Z"/></g>
<g><path style="opacity:0.988" fill="#b0b8e4" d="M 375.5,-0.5 C 381.5,-0.5 387.5,-0.5 393.5,-0.5C 396.743,0.490491 400.076,1.49049 403.5,2.5C 403.821,23.5755 403.488,44.5755 402.5,65.5C 397.329,61.1663 391.995,56.9996 386.5,53C 382.848,52.5014 379.182,52.3347 375.5,52.5C 375.5,34.8333 375.5,17.1667 375.5,-0.5 Z"/></g>
<g><path style="opacity:0.99" fill="#b1bee6" d="M 403.5,2.5 C 413.896,5.19318 422.896,10.1932 430.5,17.5C 430.5,40.8333 430.5,64.1667 430.5,87.5C 420.855,80.5173 411.522,73.184 402.5,65.5C 403.488,44.5755 403.821,23.5755 403.5,2.5 Z"/></g>
<g><path style="opacity:0.994" fill="#afabe1" d="M 342.5,10.5 C 343.49,36.0923 343.824,61.759 343.5,87.5C 336.524,98.4646 329.191,109.131 321.5,119.5C 320.502,91.6716 320.169,63.6716 320.5,35.5C 325.723,25.2792 333.056,16.9459 342.5,10.5 Z"/></g>
<g><path style="opacity:0.991" fill="#b2c4e8" d="M 430.5,17.5 C 440.086,24.083 449.086,31.4164 457.5,39.5C 457.831,62.3395 457.497,85.0061 456.5,107.5C 447.524,101.185 438.857,94.5186 430.5,87.5C 430.5,64.1667 430.5,40.8333 430.5,17.5 Z"/></g>
<g><path style="opacity:0.988" fill="#b3caea" d="M 457.5,39.5 C 468.542,47.69 479.209,56.3567 489.5,65.5C 489.5,88.1667 489.5,110.833 489.5,133.5C 477.916,125.545 466.916,116.879 456.5,107.5C 457.497,85.0061 457.831,62.3395 457.5,39.5 Z"/></g>
<g><path style="opacity:0.991" fill="#aea5df" d="M 320.5,35.5 C 320.169,63.6716 320.502,91.6716 321.5,119.5C 311.524,134.798 301.191,149.798 290.5,164.5C 289.833,136.5 289.167,108.5 288.5,80.5C 298.442,64.9349 309.109,49.9349 320.5,35.5 Z"/></g>
<g><path style="opacity:0.99" fill="#b4d1ec" d="M 489.5,65.5 C 499.44,72.4409 508.773,80.1075 517.5,88.5C 517.5,110.833 517.5,133.167 517.5,155.5C 507.874,148.541 498.541,141.208 489.5,133.5C 489.5,110.833 489.5,88.1667 489.5,65.5 Z"/></g>
<g><path style="opacity:0.988" fill="#ad9fdd" d="M 288.5,80.5 C 289.167,108.5 289.833,136.5 290.5,164.5C 281.167,178.167 271.833,191.833 262.5,205.5C 261.833,177.167 261.167,148.833 260.5,120.5C 269.344,106.808 278.677,93.4752 288.5,80.5 Z"/></g>
<g><path style="opacity:0.971" fill="#918dd8" d="M 1397.5,510.5 C 1397.5,518.167 1397.5,525.833 1397.5,533.5C 1376.26,528.43 1363.76,515.096 1360,493.5C 1359.5,356.167 1359.33,218.834 1359.5,81.5C 1366.83,81.5 1374.17,81.5 1381.5,81.5C 1381.33,216.167 1381.5,350.834 1382,485.5C 1383.14,496.456 1388.3,504.789 1397.5,510.5 Z"/></g>
<g><path style="opacity:0.992" fill="#b4d7ee" d="M 517.5,88.5 C 527.086,95.083 536.086,102.416 544.5,110.5C 544.831,132.673 544.497,154.673 543.5,176.5C 534.428,169.969 525.761,162.969 517.5,155.5C 517.5,133.167 517.5,110.833 517.5,88.5 Z"/></g>
<g><path style="opacity:0.984" fill="#8873d1" d="M 1549.5,210.5 C 1549.5,216.833 1549.5,223.167 1549.5,229.5C 1553.7,229.183 1557.7,229.517 1561.5,230.5C 1554.5,230.5 1547.5,230.5 1540.5,230.5C 1540.33,314.167 1540.5,397.834 1541,481.5C 1542.02,489.534 1545.19,496.534 1550.5,502.5C 1549.18,511.402 1549.18,520.402 1550.5,529.5C 1533.7,523.195 1523.53,511.195 1520,493.5C 1518.53,405.853 1518.03,318.186 1518.5,230.5C 1516.5,230.5 1514.5,230.5 1512.5,230.5C 1512.5,224.167 1512.5,217.833 1512.5,211.5C 1514.74,211.795 1516.74,211.461 1518.5,210.5C 1518.5,173.833 1518.5,137.167 1518.5,100.5C 1525.83,100.5 1533.17,100.5 1540.5,100.5C 1540.5,137.167 1540.5,173.833 1540.5,210.5C 1543.5,210.5 1546.5,210.5 1549.5,210.5 Z"/></g>
<g><path style="opacity:0.988" fill="#ac99db" d="M 260.5,120.5 C 261.167,148.833 261.833,177.167 262.5,205.5C 251.833,220.833 241.167,236.167 230.5,251.5C 229.502,222.338 229.169,193.005 229.5,163.5C 239.478,148.864 249.811,134.531 260.5,120.5 Z"/></g>
<g><path style="opacity:0.991" fill="#b5deef" d="M 544.5,110.5 C 554.46,117.793 564.127,125.46 573.5,133.5C 572.859,134.482 572.193,135.482 571.5,136.5C 572.187,156.827 572.187,177.494 571.5,198.5C 561.855,191.517 552.522,184.184 543.5,176.5C 544.497,154.673 544.831,132.673 544.5,110.5 Z"/></g>
<g><path style="opacity:0.991" fill="#b6e4f1" d="M 573.5,133.5 C 583.54,141.844 593.54,150.177 603.5,158.5C 603.5,180.167 603.5,201.833 603.5,223.5C 592.794,215.156 582.128,206.822 571.5,198.5C 572.187,177.494 572.187,156.827 571.5,136.5C 572.193,135.482 572.859,134.482 573.5,133.5 Z"/></g>
<g><path style="opacity:0.989" fill="#ac92d9" d="M 229.5,163.5 C 229.169,193.005 229.502,222.338 230.5,251.5C 221.747,264.674 212.747,277.674 203.5,290.5C 202.833,261.5 202.167,232.5 201.5,203.5C 210.477,189.867 219.81,176.534 229.5,163.5 Z"/></g>
<g><path style="opacity:0.99" fill="#b6eaf3" d="M 603.5,158.5 C 613.813,166.15 623.813,174.15 633.5,182.5C 631.504,235.156 630.838,288.156 631.5,341.5C 622.878,352.456 613.545,362.79 603.5,372.5C 603.5,343.5 603.5,314.5 603.5,285.5C 609.458,278.371 615.625,271.371 622,264.5C 626.788,255.336 626.455,246.336 621,237.5C 614.979,232.969 609.146,228.303 603.5,223.5C 603.5,201.833 603.5,180.167 603.5,158.5 Z"/></g>
<g><path style="opacity:0.994" fill="#b7f0f5" d="M 633.5,182.5 C 642.151,189.154 650.484,196.154 658.5,203.5C 658.5,239.5 658.5,275.5 658.5,311.5C 650.212,322.123 641.212,332.123 631.5,341.5C 630.838,288.156 631.504,235.156 633.5,182.5 Z"/></g>
<g><path style="opacity:0.988" fill="#ab8cd8" d="M 201.5,203.5 C 202.167,232.5 202.833,261.5 203.5,290.5C 194.523,304.133 185.19,317.466 175.5,330.5C 175.5,300.5 175.5,270.5 175.5,240.5C 183.431,227.633 192.098,215.3 201.5,203.5 Z"/></g>
<g><path style="opacity:0.985" fill="#b8f6f6" d="M 658.5,203.5 C 678.926,214.833 688.926,232.333 688.5,256C 688.751,267.161 686.251,277.661 681,287.5C 673.634,295.697 666.134,303.697 658.5,311.5C 658.5,275.5 658.5,239.5 658.5,203.5 Z"/></g>
<g><path style="opacity:0.961" fill="#b1e3f1" d="M 870.5,207.5 C 870.5,214.167 870.5,220.833 870.5,227.5C 856.227,225.307 841.893,224.974 827.5,226.5C 827.5,220.167 827.5,213.833 827.5,207.5C 841.73,204.983 856.064,204.983 870.5,207.5 Z"/></g>
<g><path style="opacity:0.97" fill="#9fb1e3" d="M 1173.5,209.5 C 1173.8,216.588 1173.46,223.588 1172.5,230.5C 1158.74,226.672 1144.74,225.339 1130.5,226.5C 1130.21,219.745 1130.54,213.078 1131.5,206.5C 1145.78,205.266 1159.78,206.266 1173.5,209.5 Z"/></g>
<g><path style="opacity:0.972" fill="#a1b8e5" d="M 1131.5,206.5 C 1130.54,213.078 1130.21,219.745 1130.5,226.5C 1118.45,227.642 1106.79,230.308 1095.5,234.5C 1094.17,227.5 1094.17,220.5 1095.5,213.5C 1107.17,209.633 1119.17,207.299 1131.5,206.5 Z"/></g>
<g><path style="opacity:0.976" fill="#afdeef" d="M 870.5,207.5 C 883.461,208.355 895.794,211.355 907.5,216.5C 907.15,223.395 906.15,230.062 904.5,236.5C 893.505,232.28 882.172,229.28 870.5,227.5C 870.5,220.833 870.5,214.167 870.5,207.5 Z"/></g>
<g><path style="opacity:0.965" fill="#b3ebf3" d="M 827.5,207.5 C 827.5,213.833 827.5,220.167 827.5,226.5C 815.739,227.94 804.406,230.94 793.5,235.5C 791.541,229.25 790.874,222.584 791.5,215.5C 803.056,210.945 815.056,208.278 827.5,207.5 Z"/></g>
<g><path style="opacity:0.939" fill="#8a79d2" d="M 1518.5,210.5 C 1516.74,211.461 1514.74,211.795 1512.5,211.5C 1512.5,217.833 1512.5,224.167 1512.5,230.5C 1499.5,230.5 1486.5,230.5 1473.5,230.5C 1473.5,223.833 1473.5,217.167 1473.5,210.5C 1488.5,210.5 1503.5,210.5 1518.5,210.5 Z"/></g>
<g><path style="opacity:0.982" fill="#866dcf" d="M 1549.5,210.5 C 1559.5,210.5 1569.5,210.5 1579.5,210.5C 1581.26,211.461 1583.26,211.795 1585.5,211.5C 1585.5,217.833 1585.5,224.167 1585.5,230.5C 1577.5,230.5 1569.5,230.5 1561.5,230.5C 1557.7,229.517 1553.7,229.183 1549.5,229.5C 1549.5,223.167 1549.5,216.833 1549.5,210.5 Z"/></g>
<g><path style="opacity:0.975" fill="#8468cd" d="M 1579.5,210.5 C 1591.5,210.5 1603.5,210.5 1615.5,210.5C 1615.5,217.167 1615.5,223.833 1615.5,230.5C 1605.5,230.5 1595.5,230.5 1585.5,230.5C 1585.5,224.167 1585.5,217.833 1585.5,211.5C 1583.26,211.795 1581.26,211.461 1579.5,210.5 Z"/></g>
<g><path style="opacity:0.967" fill="#7f5ac9" d="M 1701.5,258.5 C 1700.83,273.833 1700.17,289.167 1699.5,304.5C 1684.8,273.588 1670.46,242.421 1656.5,211C 1664.52,210.168 1672.52,210.335 1680.5,211.5C 1687.79,227.07 1694.79,242.737 1701.5,258.5 Z"/></g>
<g><path style="opacity:0.96" fill="#6f2fbd" d="M 1959.5,210.5 C 1959.5,211.833 1959.5,213.167 1959.5,214.5C 1950.17,235.5 1940.83,256.5 1931.5,277.5C 1931.5,260.5 1931.5,243.5 1931.5,226.5C 1933.21,221.409 1935.21,216.409 1937.5,211.5C 1944.8,210.503 1952.14,210.169 1959.5,210.5 Z"/></g>
<g><path style="opacity:0.975" fill="#a3bee6" d="M 1095.5,213.5 C 1094.17,220.5 1094.17,227.5 1095.5,234.5C 1083.93,238.95 1072.6,243.95 1061.5,249.5C 1061.5,242.5 1061.5,235.5 1061.5,228.5C 1072.06,221.972 1083.39,216.972 1095.5,213.5 Z"/></g>
<g><path style="opacity:0.982" fill="#9caae1" d="M 1173.5,209.5 C 1186.95,211.976 1199.28,216.976 1210.5,224.5C 1209.51,233.318 1209.17,242.318 1209.5,251.5C 1198.89,241.573 1186.55,234.573 1172.5,230.5C 1173.46,223.588 1173.8,216.588 1173.5,209.5 Z"/></g>
<g><path style="opacity:0.971" fill="#acd7ee" d="M 907.5,216.5 C 926.526,223.343 941.859,235.009 953.5,251.5C 949.482,256.352 944.982,260.685 940,264.5C 930.327,252.315 918.493,242.982 904.5,236.5C 906.15,230.062 907.15,223.395 907.5,216.5 Z"/></g>
<g><path style="opacity:0.975" fill="#9aa4df" d="M 1210.5,224.5 C 1225.98,234.314 1237.98,247.314 1246.5,263.5C 1245.83,348.167 1245.17,432.833 1244.5,517.5C 1243.4,515.723 1242.57,513.723 1242,511.5C 1241.67,501.167 1241.33,490.833 1241,480.5C 1231.88,491.789 1221.38,501.456 1209.5,509.5C 1209.5,502.5 1209.5,495.5 1209.5,488.5C 1221.06,478.767 1230.23,467.1 1237,453.5C 1238.74,449.339 1239.74,445.005 1240,440.5C 1240.83,421.158 1240.67,401.825 1239.5,382.5C 1228.31,377.992 1216.98,374.325 1205.5,371.5C 1206.83,371.5 1208.17,371.5 1209.5,371.5C 1209.5,365.833 1209.5,360.167 1209.5,354.5C 1220.05,356.388 1230.39,359.055 1240.5,362.5C 1241.37,340.317 1239.87,318.317 1236,296.5C 1231.24,278.966 1222.41,263.966 1209.5,251.5C 1209.17,242.318 1209.51,233.318 1210.5,224.5 Z"/></g>
<g><path style="opacity:0.969" fill="#7134be" d="M 1931.5,226.5 C 1931.5,243.5 1931.5,260.5 1931.5,277.5C 1918.11,310.608 1904.45,343.608 1890.5,376.5C 1889.83,360.5 1889.17,344.5 1888.5,328.5C 1902.32,294.202 1916.65,260.202 1931.5,226.5 Z"/></g>
<g><path style="opacity:0.96" fill="#a5c3e8" d="M 1061.5,228.5 C 1061.5,235.5 1061.5,242.5 1061.5,249.5C 1054.13,254.607 1046.63,259.607 1039,264.5C 1034.59,259.873 1030.75,254.706 1027.5,249C 1038.06,240.887 1049.39,234.054 1061.5,228.5 Z"/></g>
<g><path style="opacity:0.969" fill="#b6f3f6" d="M 791.5,215.5 C 790.874,222.584 791.541,229.25 793.5,235.5C 759.931,252.662 748.098,279.662 758,316.5C 761.557,324.555 767.057,330.888 774.5,335.5C 775.132,343.573 774.465,351.24 772.5,358.5C 751.995,351.161 739.495,336.828 735,315.5C 727.477,266.94 746.31,233.607 791.5,215.5 Z"/></g>
<g><path style="opacity:0.988" fill="#aa86d6" d="M 175.5,240.5 C 175.5,270.5 175.5,300.5 175.5,330.5C 166.647,344.221 157.313,357.554 147.5,370.5C 147.831,340.329 147.498,310.329 146.5,280.5C 156.179,267.129 165.845,253.795 175.5,240.5 Z"/></g>
<g><path style="opacity:0.977" fill="#7c54c8" d="M 1701.5,258.5 C 1713.87,285.256 1725.87,312.256 1737.5,339.5C 1737.5,356.167 1737.5,372.833 1737.5,389.5C 1724.07,361.566 1711.41,333.233 1699.5,304.5C 1700.17,289.167 1700.83,273.833 1701.5,258.5 Z"/></g>
<g><path style="opacity:0.979" fill="#98a1de" d="M 1246.5,263.5 C 1254.74,279.096 1259.57,295.762 1261,313.5C 1261.33,376.833 1261.67,440.167 1262,503.5C 1262.59,509.927 1266.09,512.927 1272.5,512.5C 1272.5,519.167 1272.5,525.833 1272.5,532.5C 1264.98,533.349 1257.98,531.849 1251.5,528C 1248.28,525.044 1245.94,521.544 1244.5,517.5C 1245.17,432.833 1245.83,348.167 1246.5,263.5 Z"/></g>
<g><path style="opacity:0.987" fill="#a981d5" d="M 146.5,280.5 C 147.498,310.329 147.831,340.329 147.5,370.5C 143.274,378.387 138.274,385.72 132.5,392.5C 132.831,362.329 132.498,332.329 131.5,302.5C 136.5,295.167 141.5,287.833 146.5,280.5 Z"/></g>
<g><path style="opacity:0.992" fill="#b6e4f1" d="M 603.5,285.5 C 603.5,314.5 603.5,343.5 603.5,372.5C 593.509,384.489 583.176,396.156 572.5,407.5C 572.686,378.414 572.353,349.414 571.5,320.5C 582.195,308.807 592.862,297.141 603.5,285.5 Z"/></g>
<g><path style="opacity:0.992" fill="#a97ed4" d="M 131.5,302.5 C 132.498,332.329 132.831,362.329 132.5,392.5C 127.585,400.754 122.251,408.754 116.5,416.5C 115.502,386.338 115.169,356.005 115.5,325.5C 120.097,317.301 125.43,309.635 131.5,302.5 Z"/></g>
<g><path style="opacity:0.996" fill="#a879d2" d="M 115.5,325.5 C 115.169,356.005 115.502,386.338 116.5,416.5C 115.298,418.392 113.965,420.226 112.5,422C 113.71,423.039 114.71,424.206 115.5,425.5C 115.5,491.167 115.5,556.833 115.5,622.5C 112.028,620.742 108.362,620.242 104.5,621C 102.848,622.47 101.848,624.303 101.5,626.5C 104.392,635.29 109.059,642.957 115.5,649.5C 115.5,662.5 115.5,675.5 115.5,688.5C 105.937,682.892 96.9368,676.559 88.5,669.5C 88.1687,641.328 88.502,613.328 89.5,585.5C 94.7257,586.812 98.0591,584.979 99.5,580C 97.3158,572.653 93.6492,566.153 88.5,560.5C 88.8325,494.998 88.4991,429.665 87.5,364.5C 96.11,350.933 105.443,337.933 115.5,325.5 Z"/></g>
<g><path style="opacity:0.973" fill="#743bc1" d="M 1888.5,328.5 C 1889.17,344.5 1889.83,360.5 1890.5,376.5C 1878.01,405.987 1865.34,435.321 1852.5,464.5C 1852.5,447.833 1852.5,431.167 1852.5,414.5C 1863.98,385.546 1875.98,356.88 1888.5,328.5 Z"/></g>
<g><path style="opacity:0.992" fill="#b5ddef" d="M 571.5,320.5 C 572.353,349.414 572.686,378.414 572.5,407.5C 563.471,417.526 554.471,427.526 545.5,437.5C 544.833,408.833 544.167,380.167 543.5,351.5C 552.609,340.937 561.942,330.603 571.5,320.5 Z"/></g>
<g><path style="opacity:0.973" fill="#7a4dc6" d="M 1737.5,339.5 C 1752.34,371.195 1766.68,403.195 1780.5,435.5C 1779.5,450.991 1779.17,466.658 1779.5,482.5C 1765.26,451.687 1751.26,420.687 1737.5,389.5C 1737.5,372.833 1737.5,356.167 1737.5,339.5 Z"/></g>
<g><path style="opacity:0.979" fill="#b3ecf4" d="M 774.5,335.5 C 791.184,344.396 808.851,350.73 827.5,354.5C 827.203,361.92 827.536,369.254 828.5,376.5C 809.284,371.871 790.617,365.871 772.5,358.5C 774.465,351.24 775.132,343.573 774.5,335.5 Z"/></g>
<g><path style="opacity:0.954" fill="#9fb2e3" d="M 1129.5,345.5 C 1144.29,345.507 1158.96,346.507 1173.5,348.5C 1173.82,354.358 1173.49,360.025 1172.5,365.5C 1158.51,364.709 1144.51,364.375 1130.5,364.5C 1130.79,358.077 1130.46,351.744 1129.5,345.5 Z"/></g>
<g><path style="opacity:0.967" fill="#a1b8e5" d="M 1129.5,345.5 C 1130.46,351.744 1130.79,358.077 1130.5,364.5C 1118.39,364.848 1106.39,366.181 1094.5,368.5C 1094.21,362.409 1094.54,356.409 1095.5,350.5C 1106.61,347.86 1117.94,346.193 1129.5,345.5 Z"/></g>
<g><path style="opacity:0.973" fill="#a3bee7" d="M 1095.5,350.5 C 1094.54,356.409 1094.21,362.409 1094.5,368.5C 1081.81,372.178 1069.81,377.512 1058.5,384.5C 1057.54,377.588 1057.2,370.588 1057.5,363.5C 1069.47,357.178 1082.13,352.844 1095.5,350.5 Z"/></g>
<g><path style="opacity:0.995" fill="#b4d7ee" d="M 543.5,351.5 C 544.167,380.167 544.833,408.833 545.5,437.5C 536.138,447.859 526.805,458.192 517.5,468.5C 517.485,439.139 517.485,409.472 517.5,379.5C 525.827,369.84 534.494,360.506 543.5,351.5 Z"/></g>
<g><path style="opacity:0.977" fill="#9caae1" d="M 1173.5,348.5 C 1185.68,349.641 1197.68,351.641 1209.5,354.5C 1209.5,360.167 1209.5,365.833 1209.5,371.5C 1208.17,371.5 1206.83,371.5 1205.5,371.5C 1194.33,369.73 1183.33,367.73 1172.5,365.5C 1173.49,360.025 1173.82,354.358 1173.5,348.5 Z"/></g>
<g><path style="opacity:0.969" fill="#b1e4f1" d="M 827.5,354.5 C 842.718,358.385 857.718,362.718 872.5,367.5C 870.541,373.75 869.874,380.416 870.5,387.5C 856.485,383.83 842.485,380.163 828.5,376.5C 827.536,369.254 827.203,361.92 827.5,354.5 Z"/></g>
<g><path style="opacity:0.969" fill="#a6c6e9" d="M 1057.5,363.5 C 1057.2,370.588 1057.54,377.588 1058.5,384.5C 1028.57,405.177 1019.73,432.844 1032,467.5C 1037.7,481.022 1046.2,492.355 1057.5,501.5C 1057.5,509.5 1057.5,517.5 1057.5,525.5C 1016.51,501.852 1000.01,466.518 1008,419.5C 1016.41,393.684 1032.91,375.017 1057.5,363.5 Z"/></g>
<g><path style="opacity:0.996" fill="#a873d0" d="M 87.5,364.5 C 88.4991,429.665 88.8325,494.998 88.5,560.5C 82.7393,553.919 75.5726,549.585 67,547.5C 65.415,548.044 63.915,548.711 62.5,549.5C 61.501,493.336 61.1677,437.002 61.5,380.5C 64.7673,382.427 67.7673,384.761 70.5,387.5C 76.4316,379.944 82.0983,372.277 87.5,364.5 Z"/></g>
<g><path style="opacity:0.979" fill="#aeddef" d="M 872.5,367.5 C 884.36,370.565 896.027,374.231 907.5,378.5C 906.866,385.6 906.199,392.6 905.5,399.5C 893.76,395.476 882.093,391.476 870.5,387.5C 869.874,380.416 870.541,373.75 872.5,367.5 Z"/></g>
<g><path style="opacity:0.997" fill="#a76dcf" d="M 61.5,380.5 C 61.1677,437.002 61.501,493.336 62.5,549.5C 61.3433,553.117 61.3433,556.784 62.5,560.5C 61.502,588.328 61.1687,616.328 61.5,644.5C 49.9565,633.625 40.2898,621.292 32.5,607.5C 33.8333,531.167 33.8333,454.833 32.5,378.5C 42.4509,374.283 52.1175,374.95 61.5,380.5 Z"/></g>
<g><path style="opacity:0.987" fill="#a667cd" d="M 32.5,378.5 C 33.8333,454.833 33.8333,531.167 32.5,607.5C 16.4183,582.919 5.41827,556.253 -0.5,527.5C -0.5,516.5 -0.5,505.5 -0.5,494.5C 2.88975,472.171 10.5564,451.338 22.5,432C 9.18496,415.969 9.18496,399.969 22.5,384C 25.406,381.381 28.7393,379.547 32.5,378.5 Z"/></g>
<g><path style="opacity:0.99" fill="#b4d1ec" d="M 517.5,379.5 C 517.485,409.472 517.485,439.139 517.5,468.5C 508.391,479.063 499.058,489.397 489.5,499.5C 489.831,469.995 489.498,440.662 488.5,411.5C 498.195,400.808 507.862,390.141 517.5,379.5 Z"/></g>
<g><path style="opacity:0.983" fill="#acd6ed" d="M 907.5,378.5 C 951.348,394.858 967.181,425.858 955,471.5C 947.05,496.281 931.217,513.948 907.5,524.5C 906.536,517.254 906.203,509.92 906.5,502.5C 936.515,481.272 944.348,453.605 930,419.5C 923.145,411.137 914.978,404.47 905.5,399.5C 906.199,392.6 906.866,385.6 907.5,378.5 Z"/></g>
<g><path style="opacity:0.988" fill="#b3caea" d="M 488.5,411.5 C 489.498,440.662 489.831,469.995 489.5,499.5C 479.509,511.489 469.176,523.156 458.5,534.5C 457.502,505.005 457.169,475.338 457.5,445.5C 467.862,434.141 478.195,422.807 488.5,411.5 Z"/></g>
<g><path style="opacity:0.997" fill="#a97ed3" d="M 115.5,425.5 C 121.759,429.461 127.425,434.127 132.5,439.5C 132.832,505.002 132.499,570.335 131.5,635.5C 126.979,630.23 121.646,625.897 115.5,622.5C 115.5,556.833 115.5,491.167 115.5,425.5 Z"/></g>
<g><path style="opacity:0.972" fill="#7847c4" d="M 1780.5,435.5 C 1791.41,459.022 1802.24,482.689 1813,506.5C 1814.21,504.075 1815.38,501.741 1816.5,499.5C 1816.17,516.009 1816.5,532.342 1817.5,548.5C 1805.2,578.407 1792.54,608.074 1779.5,637.5C 1779.5,619.833 1779.5,602.167 1779.5,584.5C 1786.41,566.845 1793.74,549.345 1801.5,532C 1794.03,515.553 1786.69,499.053 1779.5,482.5C 1779.17,466.658 1779.5,450.991 1780.5,435.5 Z"/></g>
<g><path style="opacity:0.995" fill="#a981d4" d="M 132.5,439.5 C 138.191,444.197 143.858,448.863 149.5,453.5C 147.503,536.827 146.836,620.493 147.5,704.5C 136.554,699.694 125.888,694.361 115.5,688.5C 115.5,675.5 115.5,662.5 115.5,649.5C 121.011,653.671 127.177,656.671 134,658.5C 139.138,657.024 140.805,653.69 139,648.5C 137.007,643.845 134.507,639.511 131.5,635.5C 132.499,570.335 132.832,505.002 132.5,439.5 Z"/></g>
<g><path style="opacity:0.99" fill="#b2c4e8" d="M 457.5,445.5 C 457.169,475.338 457.502,505.005 458.5,534.5C 449.471,544.526 440.471,554.526 431.5,564.5C 430.833,535.167 430.167,505.833 429.5,476.5C 438.141,465.559 447.474,455.226 457.5,445.5 Z"/></g>
<g><path style="opacity:0.997" fill="#aa86d6" d="M 149.5,453.5 C 158.819,460.821 167.819,468.488 176.5,476.5C 175.167,555.833 175.167,635.167 176.5,714.5C 166.541,711.958 156.874,708.625 147.5,704.5C 146.836,620.493 147.503,536.827 149.5,453.5 Z"/></g>
<g><path style="opacity:0.975" fill="#7642c3" d="M 1852.5,414.5 C 1852.5,431.167 1852.5,447.833 1852.5,464.5C 1841.39,492.723 1829.72,520.723 1817.5,548.5C 1816.5,532.342 1816.17,516.009 1816.5,499.5C 1828.13,470.927 1840.13,442.594 1852.5,414.5 Z"/></g>
<g><path style="opacity:0.965" fill="#b7f6f7" d="M 755.5,494.5 C 755.5,502.5 755.5,510.5 755.5,518.5C 739.97,510.48 726.637,499.647 715.5,486C 718.718,480.405 722.552,475.238 727,470.5C 735.812,479.492 745.312,487.492 755.5,494.5 Z"/></g>
<g><path style="opacity:0.992" fill="#ab8cd8" d="M 176.5,476.5 C 185.485,483.487 194.152,490.821 202.5,498.5C 202.828,548.572 202.495,598.572 201.5,648.5C 195.718,642.61 188.718,640.11 180.5,641C 178.022,644.685 177.856,648.518 180,652.5C 184.995,662.661 192.495,670.327 202.5,675.5C 202.5,690.5 202.5,705.5 202.5,720.5C 193.601,719.388 184.934,717.388 176.5,714.5C 175.167,635.167 175.167,555.833 176.5,476.5 Z"/></g>
<g><path style="opacity:0.99" fill="#b1bee6" d="M 429.5,476.5 C 430.167,505.833 430.833,535.167 431.5,564.5C 422.833,574.167 414.167,583.833 405.5,593.5C 403.823,564.446 402.823,535.112 402.5,505.5C 411.161,495.506 420.161,485.839 429.5,476.5 Z"/></g>
<g><path style="opacity:0.994" fill="#ac92d9" d="M 202.5,498.5 C 211.873,506.177 221.206,513.844 230.5,521.5C 229.501,588.331 229.168,655.331 229.5,722.5C 224.167,722.5 218.833,722.5 213.5,722.5C 210.003,721.598 206.337,720.931 202.5,720.5C 202.5,705.5 202.5,690.5 202.5,675.5C 207.004,678.743 211.337,678.743 215.5,675.5C 216.541,670.094 215.375,665.094 212,660.5C 208.635,656.307 205.135,652.307 201.5,648.5C 202.495,598.572 202.828,548.572 202.5,498.5 Z"/></g>
<g><path style="opacity:0.952" fill="#9dabe1" d="M 1209.5,488.5 C 1209.5,495.5 1209.5,502.5 1209.5,509.5C 1198.11,517.361 1185.78,523.361 1172.5,527.5C 1173.46,521.591 1173.79,515.591 1173.5,509.5C 1186.42,504.043 1198.42,497.043 1209.5,488.5 Z"/></g>
<g><path style="opacity:0.969" fill="#866dcf" d="M 1550.5,502.5 C 1560.45,511.262 1572.12,515.262 1585.5,514.5C 1585.5,521.5 1585.5,528.5 1585.5,535.5C 1578.11,535.747 1570.78,535.247 1563.5,534C 1558.76,533.365 1554.42,531.865 1550.5,529.5C 1549.18,520.402 1549.18,511.402 1550.5,502.5 Z"/></g>
<g><path style="opacity:0.971" fill="#a3bee6" d="M 1057.5,501.5 C 1069.01,509.886 1081.67,515.552 1095.5,518.5C 1094.84,521.314 1094.5,524.314 1094.5,527.5C 1094.59,531.098 1095.26,534.431 1096.5,537.5C 1082.54,536.289 1069.54,532.289 1057.5,525.5C 1057.5,517.5 1057.5,509.5 1057.5,501.5 Z"/></g>
<g><path style="opacity:0.977" fill="#b5f0f5" d="M 755.5,494.5 C 766.341,501.254 777.674,506.921 789.5,511.5C 791.405,518.219 792.071,525.219 791.5,532.5C 778.581,529.976 766.581,525.309 755.5,518.5C 755.5,510.5 755.5,502.5 755.5,494.5 Z"/></g>
<g><path style="opacity:0.989" fill="#b0b8e4" d="M 402.5,505.5 C 402.823,535.112 403.823,564.446 405.5,593.5C 396.138,603.859 386.805,614.192 377.5,624.5C 375.836,595.348 374.836,566.014 374.5,536.5C 383.862,526.141 393.195,515.808 402.5,505.5 Z"/></g>
<g><path style="opacity:0.964" fill="#9fb1e3" d="M 1173.5,509.5 C 1173.79,515.591 1173.46,521.591 1172.5,527.5C 1159.45,532.846 1145.78,536.179 1131.5,537.5C 1130.17,531.167 1130.17,524.833 1131.5,518.5C 1145.85,517.08 1159.85,514.08 1173.5,509.5 Z"/></g>
<g><path style="opacity:0.977" fill="#8466cd" d="M 1585.5,535.5 C 1585.5,528.5 1585.5,521.5 1585.5,514.5C 1602.26,513.912 1617.6,508.912 1631.5,499.5C 1634.9,505.13 1637.9,510.963 1640.5,517C 1623.78,527.852 1605.44,534.019 1585.5,535.5 Z"/></g>
<g><path style="opacity:0.977" fill="#aeddef" d="M 906.5,502.5 C 906.203,509.92 906.536,517.254 907.5,524.5C 896.261,530.315 884.261,533.982 871.5,535.5C 870.51,529.355 870.177,523.022 870.5,516.5C 883.099,513.629 895.099,508.962 906.5,502.5 Z"/></g>
<g><path style="opacity:0.968" fill="#b3ebf3" d="M 789.5,511.5 C 801.871,515.374 814.537,517.707 827.5,518.5C 827.5,525.167 827.5,531.833 827.5,538.5C 815.289,537.641 803.289,535.641 791.5,532.5C 792.071,525.219 791.405,518.219 789.5,511.5 Z"/></g>
<g><path style="opacity:0.969" fill="#8e85d6" d="M 1397.5,533.5 C 1397.5,525.833 1397.5,518.167 1397.5,510.5C 1404.06,513.764 1411.06,515.431 1418.5,515.5C 1430.66,514.363 1442.66,512.363 1454.5,509.5C 1455.62,514.87 1456.96,520.204 1458.5,525.5C 1458.18,526.647 1457.52,527.481 1456.5,528C 1437.16,534.502 1417.5,536.336 1397.5,533.5 Z"/></g>
<g><path style="opacity:0.961" fill="#b1e3f1" d="M 870.5,516.5 C 870.177,523.022 870.51,529.355 871.5,535.5C 857.09,538.033 842.424,539.033 827.5,538.5C 827.5,531.833 827.5,525.167 827.5,518.5C 841.861,519.207 856.194,518.541 870.5,516.5 Z"/></g>
<g><path style="opacity:0.966" fill="#a1b8e5" d="M 1095.5,518.5 C 1107.51,519.783 1119.51,519.783 1131.5,518.5C 1130.17,524.833 1130.17,531.167 1131.5,537.5C 1119.82,538.696 1108.15,538.696 1096.5,537.5C 1095.26,534.431 1094.59,531.098 1094.5,527.5C 1094.5,524.314 1094.84,521.314 1095.5,518.5 Z"/></g>
<g><path style="opacity:0.996" fill="#ac98db" d="M 230.5,521.5 C 241.192,530.53 251.858,539.53 262.5,548.5C 261.501,605.664 261.168,662.998 261.5,720.5C 258.39,721.088 255.39,721.755 252.5,722.5C 244.833,722.5 237.167,722.5 229.5,722.5C 229.168,655.331 229.501,588.331 230.5,521.5 Z"/></g>
<g><path style="opacity:0.992" fill="#b0b2e3" d="M 374.5,536.5 C 374.836,566.014 375.836,595.348 377.5,624.5C 375.372,627.13 373.039,629.63 370.5,632C 388.135,644.246 392.302,660.079 383,679.5C 372.377,692.206 359.211,695.873 343.5,690.5C 343.832,650.663 343.499,610.996 342.5,571.5C 352.943,559.603 363.609,547.936 374.5,536.5 Z"/></g>
<g><path style="opacity:0.995" fill="#ad9fdd" d="M 262.5,548.5 C 271.819,555.821 280.819,563.488 289.5,571.5C 289.5,619.167 289.5,666.833 289.5,714.5C 280.367,717.393 271.033,719.393 261.5,720.5C 261.168,662.998 261.501,605.664 262.5,548.5 Z"/></g>
<g><path style="opacity:0.991" fill="#a873d0" d="M 62.5,560.5 C 68.6362,571.971 77.6362,580.304 89.5,585.5C 88.502,613.328 88.1687,641.328 88.5,669.5C 82.4995,665.49 76.8328,660.99 71.5,656C 67.5615,652.571 64.2281,648.737 61.5,644.5C 61.1687,616.328 61.502,588.328 62.5,560.5 Z"/></g>
<g><path style="opacity:0.995" fill="#ada4df" d="M 289.5,571.5 C 295.909,576.034 301.909,581.034 307.5,586.5C 307.5,626.833 307.5,667.167 307.5,707.5C 301.776,710.355 295.776,712.688 289.5,714.5C 289.5,666.833 289.5,619.167 289.5,571.5 Z"/></g>
<g><path style="opacity:0.996" fill="#aeabe1" d="M 342.5,571.5 C 343.499,610.996 343.832,650.663 343.5,690.5C 342.883,690.389 342.383,690.056 342,689.5C 335.851,693.824 329.351,697.49 322.5,700.5C 320.507,665.849 319.84,630.849 320.5,595.5C 327.493,587.174 334.826,579.174 342.5,571.5 Z"/></g>
<g><path style="opacity:0.972" fill="#7a4dc6" d="M 1779.5,584.5 C 1779.5,602.167 1779.5,619.833 1779.5,637.5C 1772.92,657.737 1758.92,668.071 1737.5,668.5C 1737.21,661.745 1737.54,655.078 1738.5,648.5C 1745.46,647.373 1750.63,643.707 1754,637.5C 1757,632.167 1760,626.833 1763,621.5C 1768.04,608.856 1773.54,596.523 1779.5,584.5 Z"/></g>
<g><path style="opacity:0.997" fill="#afa7e0" d="M 307.5,586.5 C 310.919,588.412 313.919,590.912 316.5,594C 317.745,594.791 319.078,595.291 320.5,595.5C 319.84,630.849 320.507,665.849 322.5,700.5C 317.93,703.616 312.93,705.95 307.5,707.5C 307.5,667.167 307.5,626.833 307.5,586.5 Z"/></g>
<g><path style="opacity:0.957" fill="#7c53c7" d="M 1738.5,648.5 C 1737.54,655.078 1737.21,661.745 1737.5,668.5C 1731.55,669.363 1725.55,669.697 1719.5,669.5C 1719.5,662.5 1719.5,655.5 1719.5,648.5C 1725.83,648.5 1732.17,648.5 1738.5,648.5 Z"/></g>
</svg>
