{"accessors":[{"bufferView":0,"componentType":5126,"count":161,"min":[0.0],"max":[5.33333349],"type":"SCALAR","name":"accessorAnimationInput"},{"bufferView":1,"componentType":5126,"count":161,"type":"VEC3","name":"accessorAnimationPositions"},{"bufferView":0,"byteOffset":644,"componentType":5126,"count":161,"min":[0.0],"max":[5.33333349],"type":"SCALAR","name":"accessorAnimationInput"},{"bufferView":2,"componentType":5126,"count":161,"type":"VEC4","name":"accessorAnimationRotations"},{"bufferView":0,"byteOffset":1288,"componentType":5126,"count":161,"min":[0.0],"max":[5.33333349],"type":"SCALAR","name":"accessorAnimationInput"},{"bufferView":1,"byteOffset":1932,"componentType":5126,"count":161,"type":"VEC3","name":"accessorAnimationScales"},{"bufferView":0,"byteOffset":1932,"componentType":5126,"count":161,"min":[0.0],"max":[5.33333349],"type":"SCALAR","name":"accessorAnimationInput"},{"bufferView":1,"byteOffset":3864,"componentType":5126,"count":161,"type":"VEC3","name":"accessorAnimationPositions"},{"bufferView":0,"byteOffset":2576,"componentType":5126,"count":161,"min":[0.0],"max":[5.33333349],"type":"SCALAR","name":"accessorAnimationInput"},{"bufferView":2,"byteOffset":2576,"componentType":5126,"count":161,"type":"VEC4","name":"accessorAnimationRotations"},{"bufferView":0,"byteOffset":3220,"componentType":5126,"count":161,"min":[0.0],"max":[5.33333349],"type":"SCALAR","name":"accessorAnimationInput"},{"bufferView":1,"byteOffset":5796,"componentType":5126,"count":161,"type":"VEC3","name":"accessorAnimationPositions"},{"bufferView":0,"byteOffset":3864,"componentType":5126,"count":161,"min":[0.0],"max":[5.33333349],"type":"SCALAR","name":"accessorAnimationInput"},{"bufferView":2,"byteOffset":5152,"componentType":5126,"count":161,"type":"VEC4","name":"accessorAnimationRotations"},{"bufferView":0,"byteOffset":4508,"componentType":5126,"count":161,"min":[0.0],"max":[5.33333349],"type":"SCALAR","name":"accessorAnimationInput"},{"bufferView":1,"byteOffset":7728,"componentType":5126,"count":161,"type":"VEC3","name":"accessorAnimationScales"},{"bufferView":0,"byteOffset":5152,"componentType":5126,"count":161,"min":[0.0],"max":[5.33333349],"type":"SCALAR","name":"accessorAnimationInput"},{"bufferView":1,"byteOffset":9660,"componentType":5126,"count":161,"type":"VEC3","name":"accessorAnimationPositions"},{"bufferView":0,"byteOffset":5796,"componentType":5126,"count":161,"min":[0.0],"max":[5.33333349],"type":"SCALAR","name":"accessorAnimationInput"},{"bufferView":2,"byteOffset":7728,"componentType":5126,"count":161,"type":"VEC4","name":"accessorAnimationRotations"},{"bufferView":0,"byteOffset":6440,"componentType":5126,"count":161,"min":[0.0],"max":[5.33333349],"type":"SCALAR","name":"accessorAnimationInput"},{"bufferView":1,"byteOffset":11592,"componentType":5126,"count":161,"type":"VEC3","name":"accessorAnimationPositions"},{"bufferView":0,"byteOffset":7084,"componentType":5126,"count":161,"min":[0.0],"max":[5.33333349],"type":"SCALAR","name":"accessorAnimationInput"},{"bufferView":2,"byteOffset":10304,"componentType":5126,"count":161,"type":"VEC4","name":"accessorAnimationRotations"},{"bufferView":0,"byteOffset":7728,"componentType":5126,"count":161,"min":[0.0],"max":[5.33333349],"type":"SCALAR","name":"accessorAnimationInput"},{"bufferView":1,"byteOffset":13524,"componentType":5126,"count":161,"type":"VEC3","name":"accessorAnimationPositions"},{"bufferView":0,"byteOffset":8372,"componentType":5126,"count":141,"min":[0.0],"max":[4.66666651],"type":"SCALAR","name":"accessorAnimationInput"},{"bufferView":1,"byteOffset":15456,"componentType":5126,"count":141,"type":"VEC3","name":"accessorAnimationPositions"},{"bufferView":0,"byteOffset":8936,"componentType":5126,"count":141,"min":[0.0],"max":[4.66666651],"type":"SCALAR","name":"accessorAnimationInput"},{"bufferView":2,"byteOffset":12880,"componentType":5126,"count":141,"type":"VEC4","name":"accessorAnimationRotations"},{"bufferView":0,"byteOffset":9500,"componentType":5126,"count":141,"min":[0.0],"max":[4.66666651],"type":"SCALAR","name":"accessorAnimationInput"},{"bufferView":1,"byteOffset":17148,"componentType":5126,"count":141,"type":"VEC3","name":"accessorAnimationPositions"},{"bufferView":0,"byteOffset":10064,"componentType":5126,"count":141,"min":[0.0],"max":[4.66666651],"type":"SCALAR","name":"accessorAnimationInput"},{"bufferView":2,"byteOffset":15136,"componentType":5126,"count":141,"type":"VEC4","name":"accessorAnimationRotations"},{"bufferView":0,"byteOffset":10628,"componentType":5126,"count":141,"min":[0.0],"max":[4.66666651],"type":"SCALAR","name":"accessorAnimationInput"},{"bufferView":1,"byteOffset":18840,"componentType":5126,"count":141,"type":"VEC3","name":"accessorAnimationScales"},{"bufferView":0,"byteOffset":11192,"componentType":5126,"count":181,"min":[0.0],"max":[6.0],"type":"SCALAR","name":"accessorAnimationInput"},{"bufferView":1,"byteOffset":20532,"componentType":5126,"count":181,"type":"VEC3","name":"accessorAnimationPositions"},{"bufferView":0,"byteOffset":11916,"componentType":5126,"count":181,"min":[0.0],"max":[6.0],"type":"SCALAR","name":"accessorAnimationInput"},{"bufferView":2,"byteOffset":17392,"componentType":5126,"count":181,"type":"VEC4","name":"accessorAnimationRotations"},{"bufferView":0,"byteOffset":12640,"componentType":5126,"count":181,"min":[0.0],"max":[6.0],"type":"SCALAR","name":"accessorAnimationInput"},{"bufferView":1,"byteOffset":22704,"componentType":5126,"count":181,"type":"VEC3","name":"accessorAnimationPositions"},{"bufferView":0,"byteOffset":13364,"componentType":5126,"count":181,"min":[0.0],"max":[6.0],"type":"SCALAR","name":"accessorAnimationInput"},{"bufferView":1,"byteOffset":24876,"componentType":5126,"count":181,"type":"VEC3","name":"accessorAnimationPositions"},{"bufferView":0,"byteOffset":14088,"componentType":5126,"count":181,"min":[0.0],"max":[6.0],"type":"SCALAR","name":"accessorAnimationInput"},{"bufferView":2,"byteOffset":20288,"componentType":5126,"count":181,"type":"VEC4","name":"accessorAnimationRotations"},{"bufferView":0,"byteOffset":14812,"componentType":5126,"count":181,"min":[0.0],"max":[6.0],"type":"SCALAR","name":"accessorAnimationInput"},{"bufferView":1,"byteOffset":27048,"componentType":5126,"count":181,"type":"VEC3","name":"accessorAnimationScales"},{"bufferView":0,"byteOffset":15536,"componentType":5126,"count":181,"min":[0.0],"max":[6.0],"type":"SCALAR","name":"accessorAnimationInput"},{"bufferView":1,"byteOffset":29220,"componentType":5126,"count":181,"type":"VEC3","name":"accessorAnimationPositions"},{"bufferView":0,"byteOffset":16260,"componentType":5126,"count":181,"min":[0.0],"max":[6.0],"type":"SCALAR","name":"accessorAnimationInput"},{"bufferView":2,"byteOffset":23184,"componentType":5126,"count":181,"type":"VEC4","name":"accessorAnimationRotations"}],"animations":[{"name":"Boeing747-8i_BoeingText","channels":[{"sampler":0,"target":{"node":1,"path":"translation"}},{"sampler":1,"target":{"node":1,"path":"rotation"}},{"sampler":2,"target":{"node":1,"path":"scale"}},{"sampler":3,"target":{"node":8,"path":"translation"}},{"sampler":4,"target":{"node":8,"path":"rotation"}}],"samplers":[{"input":0,"output":1,"interpolation":"LINEAR"},{"input":2,"output":3,"interpolation":"LINEAR"},{"input":4,"output":5,"interpolation":"LINEAR"},{"input":6,"output":7,"interpolation":"LINEAR"},{"input":8,"output":9,"interpolation":"LINEAR"}]},{"name":"Boeing747-8i_DoorBackRightToTail","channels":[{"sampler":0,"target":{"node":5,"path":"translation"}},{"sampler":1,"target":{"node":5,"path":"rotation"}},{"sampler":2,"target":{"node":5,"path":"scale"}},{"sampler":3,"target":{"node":12,"path":"translation"}},{"sampler":4,"target":{"node":12,"path":"rotation"}}],"samplers":[{"input":10,"output":11,"interpolation":"LINEAR"},{"input":12,"output":13,"interpolation":"LINEAR"},{"input":14,"output":15,"interpolation":"LINEAR"},{"input":16,"output":17,"interpolation":"LINEAR"},{"input":18,"output":19,"interpolation":"LINEAR"}]},{"name":"Boeing747-8i_EngineBack","channels":[{"sampler":0,"target":{"node":11,"path":"translation"}},{"sampler":1,"target":{"node":11,"path":"rotation"}},{"sampler":2,"target":{"node":4,"path":"translation"}}],"samplers":[{"input":20,"output":21,"interpolation":"LINEAR"},{"input":22,"output":23,"interpolation":"LINEAR"},{"input":24,"output":25,"interpolation":"LINEAR"}]},{"name":"Boeing747-8i_EngineRight","channels":[{"sampler":0,"target":{"node":9,"path":"translation"}},{"sampler":1,"target":{"node":9,"path":"rotation"}},{"sampler":2,"target":{"node":2,"path":"translation"}},{"sampler":3,"target":{"node":2,"path":"rotation"}},{"sampler":4,"target":{"node":2,"path":"scale"}}],"samplers":[{"input":26,"output":27,"interpolation":"LINEAR"},{"input":28,"output":29,"interpolation":"LINEAR"},{"input":30,"output":31,"interpolation":"LINEAR"},{"input":32,"output":33,"interpolation":"LINEAR"},{"input":34,"output":35,"interpolation":"LINEAR"}]},{"name":"Boeing747-8i_Tail","channels":[{"sampler":0,"target":{"node":10,"path":"translation"}},{"sampler":1,"target":{"node":10,"path":"rotation"}},{"sampler":2,"target":{"node":3,"path":"translation"}}],"samplers":[{"input":36,"output":37,"interpolation":"LINEAR"},{"input":38,"output":39,"interpolation":"LINEAR"},{"input":40,"output":41,"interpolation":"LINEAR"}]},{"name":"Boeing747-8i_WingTipLeft","channels":[{"sampler":0,"target":{"node":0,"path":"translation"}},{"sampler":1,"target":{"node":0,"path":"rotation"}},{"sampler":2,"target":{"node":0,"path":"scale"}},{"sampler":3,"target":{"node":7,"path":"translation"}},{"sampler":4,"target":{"node":7,"path":"rotation"}}],"samplers":[{"input":42,"output":43,"interpolation":"LINEAR"},{"input":44,"output":45,"interpolation":"LINEAR"},{"input":46,"output":47,"interpolation":"LINEAR"},{"input":48,"output":49,"interpolation":"LINEAR"},{"input":50,"output":51,"interpolation":"LINEAR"}]}],"asset":{"generator":"babylon.jsglTFexporterfor3dsmax2019v1.5.0","version":"2.0","extensions":{"ASOBO_asset_optimized":{"MajorVersion":4,"MinorVersion":4},"ASOBO_normal_map_convention":{"tangent_space_convention":"DirectX"}}},"bufferViews":[{"buffer":0,"byteLength":16984,"name":"bufferViewAnimationFloatScalar"},{"buffer":0,"byteLength":31392,"byteOffset":16984,"name":"bufferViewAnimationFloatVec3"},{"buffer":0,"byteLength":26080,"byteOffset":48376,"name":"bufferViewAnimationFloatVec4"}],"nodes":[{"translation":[6.56207466,-7.60181665,2.180458],"rotation":[-0.286951125,-0.6774701,0.592482865,-0.328112066],"scale":[0.9999998,1.00000012,1.00000012],"name":"Boeing747-8i_WingTipLeft_TARGET"},{"translation":[-36.2029877,-1.36446929,150.960892],"rotation":[0.6736336,-0.04058469,0.03709438,0.737017453],"scale":[0.99999994,0.9999999,1.00000012],"name":"Boeing747-8i_BoeingText_TARGET"},{"translation":[-15.7139816,-7.22812033,-14.5037088],"rotation":[0.6253773,0.0886723846,-0.0718374848,0.771932542],"scale":[0.9999999,0.9999999,0.9999998],"name":"Boeing747-8i_EngineRight_TARGET"},{"translation":[0.430876821,-2.38568687,26.3475361],"rotation":[-0.0329218768,-0.729280055,0.6827463,-0.0304018967],"scale":[0.9999998,1.00000012,0.9999998],"name":"Boeing747-8i_Tail_TARGET"},{"translation":[-21.7355328,3.76849651,30.3157043],"rotation":[-0.0329220332,-0.7292801,0.682746232,-0.0304020736],"scale":[0.9999998,1.0,1.00000012],"name":"Boeing747-8i_EngineBack_TARGET"},{"translation":[-0.8975655,2.42107582,-30.1450462],"rotation":[-0.8291008,0.145699441,-0.2534815,-0.476561368],"scale":[1.00000012,1.00000012,1.00000024],"name":"Boeing747-8i_DoorBackRightToTail_TARGET"},{"translation":[0.0,0.0,0.0],"rotation":[0.0,0.0,0.0,1.0],"scale":[1.0,1.0,1.0],"name":"Defaultlight"},{"translation":[35.57003,3.70939922,-24.9637184],"rotation":[0.05501604,-0.908595,-0.126827657,-0.394135743],"scale":[0.99999994,1.0,1.00000012],"camera":0,"name":"Boeing747-8i_WingTipLeft_CAMERA"},{"translation":[4.829576,0.9959984,14.3485394],"rotation":[0.00120273232,-0.9893427,-0.008185387,-0.145370468],"scale":[1.0,0.9999999,0.9999999],"camera":1,"name":"Boeing747-8i_BoeingText_CAMERA"},{"translation":[-12.0973616,0.589557648,8.326166],"rotation":[-0.161846071,0.07743343,0.0127400756,0.983690858],"scale":[0.9999999,0.9999998,0.9999998],"camera":2,"name":"Boeing747-8i_EngineRight_CAMERA"},{"translation":[1.23803592,13.0665741,-46.5702667],"rotation":[0.0005767811,-0.9945394,-0.104214638,-0.00550432736],"scale":[0.9999999,1.00000024,1.00000024],"camera":3,"name":"Boeing747-8i_Tail_CAMERA"},{"translation":[0.353669167,3.68597984,-44.498436],"rotation":[-0.0000756531954,-0.9897144,0.0005235076,-0.143056154],"scale":[0.9999999,1.00000012,1.00000012],"camera":4,"name":"Boeing747-8i_EngineBack_CAMERA"},{"translation":[-11.2399006,-1.11913824,-25.3125458],"rotation":[0.126364112,-0.5309135,0.08043377,0.834082365],"scale":[1.00000012,1.00000012,1.00000024],"camera":5,"name":"Boeing747-8i_DoorBackRightToTail_CAMERA"}],"scene":0,"scenes":[{"nodes":[0,1,2,3,4,5,6,7,8,9,10,11,12]}],"cameras":[{"type":"perspective","name":"Boeing747-8i_WingTipLeft_CAMERA","perspective":{"zfar":10000.0,"znear":0.1,"yfov":0.7984415}},{"type":"perspective","name":"Boeing747-8i_BoeingText_CAMERA","perspective":{"zfar":10000.0,"znear":0.1,"yfov":0.5631969}},{"type":"perspective","name":"Boeing747-8i_EngineRight_CAMERA","perspective":{"zfar":10000.0,"znear":0.1,"yfov":0.7984415}},{"type":"perspective","name":"Boeing747-8i_Tail_CAMERA","perspective":{"zfar":10000.0,"znear":0.1,"yfov":0.5631969}},{"type":"perspective","name":"Boeing747-8i_EngineBack_CAMERA","perspective":{"zfar":10000.0,"znear":0.1,"yfov":0.5631969}},{"type":"perspective","name":"Boeing747-8i_DoorBackRightToTail_CAMERA","perspective":{"zfar":10000.0,"znear":0.1,"yfov":0.6939552}}],"extensionsUsed":["ASOBO_normal_map_convention","ASOBO_asset_optimized"],"buffers":[{"byteLength":74456,"uri":"PlaneShowcase_GROUND.bin"}]}
