{"accessors":[{"bufferView":0,"componentType":5126,"count":141,"min":[0.0],"max":[4.66666651],"type":"SCALAR","name":"accessorAnimationInput"},{"bufferView":1,"componentType":5126,"count":141,"type":"VEC3","name":"accessorAnimationPositions"},{"bufferView":0,"byteOffset":564,"componentType":5126,"count":141,"min":[0.0],"max":[4.66666651],"type":"SCALAR","name":"accessorAnimationInput"},{"bufferView":2,"componentType":5126,"count":141,"type":"VEC4","name":"accessorAnimationRotations"},{"bufferView":0,"byteOffset":1128,"componentType":5126,"count":141,"min":[0.0],"max":[4.66666651],"type":"SCALAR","name":"accessorAnimationInput"},{"bufferView":1,"byteOffset":1692,"componentType":5126,"count":141,"type":"VEC3","name":"accessorAnimationScales"},{"bufferView":0,"byteOffset":1692,"componentType":5126,"count":141,"min":[0.0],"max":[4.66666651],"type":"SCALAR","name":"accessorAnimationInput"},{"bufferView":1,"byteOffset":3384,"componentType":5126,"count":141,"type":"VEC3","name":"accessorAnimationPositions"},{"bufferView":0,"byteOffset":2256,"componentType":5126,"count":141,"min":[0.0],"max":[4.66666651],"type":"SCALAR","name":"accessorAnimationInput"},{"bufferView":2,"byteOffset":2256,"componentType":5126,"count":141,"type":"VEC4","name":"accessorAnimationRotations"}],"animations":[{"name":"Boeing747-8i_DoorLeftCloseUp","channels":[{"sampler":0,"target":{"node":0,"path":"translation"}},{"sampler":1,"target":{"node":0,"path":"rotation"}},{"sampler":2,"target":{"node":0,"path":"scale"}},{"sampler":3,"target":{"node":2,"path":"translation"}},{"sampler":4,"target":{"node":2,"path":"rotation"}}],"samplers":[{"input":0,"output":1,"interpolation":"LINEAR"},{"input":2,"output":3,"interpolation":"LINEAR"},{"input":4,"output":5,"interpolation":"LINEAR"},{"input":6,"output":7,"interpolation":"LINEAR"},{"input":8,"output":9,"interpolation":"LINEAR"}]}],"asset":{"generator":"babylon.jsglTFexporterfor3dsmax2019v1.5.0","version":"2.0","extensions":{"ASOBO_asset_optimized":{"MajorVersion":4,"MinorVersion":4},"ASOBO_normal_map_convention":{"tangent_space_convention":"DirectX"}}},"bufferViews":[{"buffer":0,"byteLength":2820,"name":"bufferViewAnimationFloatScalar"},{"buffer":0,"byteLength":5076,"byteOffset":2820,"name":"bufferViewAnimationFloatVec3"},{"buffer":0,"byteLength":4512,"byteOffset":7896,"name":"bufferViewAnimationFloatVec4"}],"nodes":[{"translation":[2.2124846,-3.27419829,-17.131855],"rotation":[0.6736336,-0.04058469,0.03709438,0.737017453],"scale":[0.99999994,0.9999999,1.00000012],"name":"Boeing747-8i_DoorLeftCloseUp_TARGET"},{"translation":[0.0,0.0,0.0],"rotation":[0.0,0.0,0.0,1.0],"scale":[1.0,1.0,1.0],"name":"Defaultlight"},{"translation":[3.976482,0.7751145,23.7721825],"rotation":[-0.04926008,0.0215214416,0.00106168259,0.9985536],"scale":[1.0,0.99999994,1.0],"camera":0,"name":"Boeing747-8i_DoorLeftCloseUp_CAMERA"}],"scene":0,"scenes":[{"nodes":[0,1,2]}],"cameras":[{"type":"perspective","name":"Boeing747-8i_DoorLeftCloseUp_CAMERA","perspective":{"zfar":10000.0,"znear":0.1,"yfov":0.5631969}}],"extensionsUsed":["ASOBO_normal_map_convention","ASOBO_asset_optimized"],"buffers":[{"byteLength":12408,"uri":"PlaneShowcase_HANGAR.bin"}]}
