{"accessors":[{"bufferView":0,"componentType":5126,"count":161,"min":[0.0],"max":[5.33333349],"type":"SCALAR","name":"accessorAnimationInput"},{"bufferView":1,"componentType":5126,"count":161,"type":"VEC3","name":"accessorAnimationPositions"},{"bufferView":0,"byteOffset":644,"componentType":5126,"count":161,"min":[0.0],"max":[5.33333349],"type":"SCALAR","name":"accessorAnimationInput"},{"bufferView":2,"componentType":5126,"count":161,"type":"VEC4","name":"accessorAnimationRotations"},{"bufferView":0,"byteOffset":1288,"componentType":5126,"count":161,"min":[0.0],"max":[5.33333349],"type":"SCALAR","name":"accessorAnimationInput"},{"bufferView":1,"byteOffset":1932,"componentType":5126,"count":161,"type":"VEC3","name":"accessorAnimationPositions"},{"bufferView":0,"byteOffset":1932,"componentType":5126,"count":161,"min":[0.0],"max":[5.33333349],"type":"SCALAR","name":"accessorAnimationInput"},{"bufferView":2,"byteOffset":2576,"componentType":5126,"count":161,"type":"VEC4","name":"accessorAnimationRotations"},{"bufferView":0,"byteOffset":2576,"componentType":5126,"count":161,"min":[0.0],"max":[5.33333349],"type":"SCALAR","name":"accessorAnimationInput"},{"bufferView":1,"byteOffset":3864,"componentType":5126,"count":161,"type":"VEC3","name":"accessorAnimationScales"},{"bufferView":0,"byteOffset":3220,"componentType":5126,"count":151,"min":[0.0],"max":[5.0],"type":"SCALAR","name":"accessorAnimationInput"},{"bufferView":1,"byteOffset":5796,"componentType":5126,"count":151,"type":"VEC3","name":"accessorAnimationPositions"},{"bufferView":0,"byteOffset":3824,"componentType":5126,"count":151,"min":[0.0],"max":[5.0],"type":"SCALAR","name":"accessorAnimationInput"},{"bufferView":2,"byteOffset":5152,"componentType":5126,"count":151,"type":"VEC4","name":"accessorAnimationRotations"},{"bufferView":0,"byteOffset":4428,"componentType":5126,"count":151,"min":[0.0],"max":[5.0],"type":"SCALAR","name":"accessorAnimationInput"},{"bufferView":1,"byteOffset":7608,"componentType":5126,"count":151,"type":"VEC3","name":"accessorAnimationPositions"},{"bufferView":0,"byteOffset":5032,"componentType":5126,"count":151,"min":[0.0],"max":[5.0],"type":"SCALAR","name":"accessorAnimationInput"},{"bufferView":1,"byteOffset":9420,"componentType":5126,"count":151,"type":"VEC3","name":"accessorAnimationPositions"},{"bufferView":0,"byteOffset":5636,"componentType":5126,"count":151,"min":[0.0],"max":[5.0],"type":"SCALAR","name":"accessorAnimationInput"},{"bufferView":2,"byteOffset":7568,"componentType":5126,"count":151,"type":"VEC4","name":"accessorAnimationRotations"},{"bufferView":0,"byteOffset":6240,"componentType":5126,"count":151,"min":[0.0],"max":[5.0],"type":"SCALAR","name":"accessorAnimationInput"},{"bufferView":1,"byteOffset":11232,"componentType":5126,"count":151,"type":"VEC3","name":"accessorAnimationScales"},{"bufferView":0,"byteOffset":6844,"componentType":5126,"count":151,"min":[0.0],"max":[5.0],"type":"SCALAR","name":"accessorAnimationInput"},{"bufferView":1,"byteOffset":13044,"componentType":5126,"count":151,"type":"VEC3","name":"accessorAnimationPositions"},{"bufferView":0,"byteOffset":7448,"componentType":5126,"count":151,"min":[0.0],"max":[5.0],"type":"SCALAR","name":"accessorAnimationInput"},{"bufferView":2,"byteOffset":9984,"componentType":5126,"count":151,"type":"VEC4","name":"accessorAnimationRotations"},{"bufferView":0,"byteOffset":8052,"componentType":5126,"count":161,"min":[0.0],"max":[5.33333349],"type":"SCALAR","name":"accessorAnimationInput"},{"bufferView":1,"byteOffset":14856,"componentType":5126,"count":161,"type":"VEC3","name":"accessorAnimationPositions"},{"bufferView":0,"byteOffset":8696,"componentType":5126,"count":161,"min":[0.0],"max":[5.33333349],"type":"SCALAR","name":"accessorAnimationInput"},{"bufferView":2,"byteOffset":12400,"componentType":5126,"count":161,"type":"VEC4","name":"accessorAnimationRotations"},{"bufferView":0,"byteOffset":9340,"componentType":5126,"count":161,"min":[0.0],"max":[5.33333349],"type":"SCALAR","name":"accessorAnimationInput"},{"bufferView":1,"byteOffset":16788,"componentType":5126,"count":161,"type":"VEC3","name":"accessorAnimationPositions"},{"bufferView":0,"byteOffset":9984,"componentType":5126,"count":161,"min":[0.0],"max":[5.33333349],"type":"SCALAR","name":"accessorAnimationInput"},{"bufferView":2,"byteOffset":14976,"componentType":5126,"count":161,"type":"VEC4","name":"accessorAnimationRotations"},{"bufferView":0,"byteOffset":10628,"componentType":5126,"count":161,"min":[0.0],"max":[5.33333349],"type":"SCALAR","name":"accessorAnimationInput"},{"bufferView":1,"byteOffset":18720,"componentType":5126,"count":161,"type":"VEC3","name":"accessorAnimationScales"},{"bufferView":0,"byteOffset":11272,"componentType":5126,"count":141,"min":[0.0],"max":[4.66666651],"type":"SCALAR","name":"accessorAnimationInput"},{"bufferView":2,"byteOffset":17552,"componentType":5126,"count":141,"type":"VEC4","name":"accessorAnimationRotations"},{"bufferView":0,"byteOffset":11836,"componentType":5126,"count":141,"min":[0.0],"max":[4.66666651],"type":"SCALAR","name":"accessorAnimationInput"},{"bufferView":1,"byteOffset":20652,"componentType":5126,"count":141,"type":"VEC3","name":"accessorAnimationPositions"},{"bufferView":0,"byteOffset":12400,"componentType":5126,"count":161,"min":[0.0],"max":[5.33333349],"type":"SCALAR","name":"accessorAnimationInput"},{"bufferView":1,"byteOffset":22344,"componentType":5126,"count":161,"type":"VEC3","name":"accessorAnimationPositions"},{"bufferView":0,"byteOffset":13044,"componentType":5126,"count":161,"min":[0.0],"max":[5.33333349],"type":"SCALAR","name":"accessorAnimationInput"},{"bufferView":2,"byteOffset":19808,"componentType":5126,"count":161,"type":"VEC4","name":"accessorAnimationRotations"},{"bufferView":0,"byteOffset":13688,"componentType":5126,"count":161,"min":[0.0],"max":[5.33333349],"type":"SCALAR","name":"accessorAnimationInput"},{"bufferView":1,"byteOffset":24276,"componentType":5126,"count":161,"type":"VEC3","name":"accessorAnimationPositions"},{"bufferView":0,"byteOffset":14332,"componentType":5126,"count":2,"min":[0.0],"max":[4.66666651],"type":"SCALAR","name":"accessorAnimationInput"},{"bufferView":1,"byteOffset":26208,"componentType":5126,"count":2,"type":"VEC3","name":"accessorAnimationScales"},{"bufferView":0,"byteOffset":14340,"componentType":5126,"count":141,"min":[0.0],"max":[4.66666651],"type":"SCALAR","name":"accessorAnimationInput"},{"bufferView":1,"byteOffset":26232,"componentType":5126,"count":141,"type":"VEC3","name":"accessorAnimationPositions"},{"bufferView":0,"byteOffset":14904,"componentType":5126,"count":141,"min":[0.0],"max":[4.66666651],"type":"SCALAR","name":"accessorAnimationInput"},{"bufferView":2,"byteOffset":22384,"componentType":5126,"count":141,"type":"VEC4","name":"accessorAnimationRotations"},{"bufferView":0,"byteOffset":15468,"componentType":5126,"count":161,"min":[0.0],"max":[5.33333349],"type":"SCALAR","name":"accessorAnimationInput"},{"bufferView":1,"byteOffset":27924,"componentType":5126,"count":161,"type":"VEC3","name":"accessorAnimationPositions"},{"bufferView":0,"byteOffset":16112,"componentType":5126,"count":161,"min":[0.0],"max":[5.33333349],"type":"SCALAR","name":"accessorAnimationInput"},{"bufferView":2,"byteOffset":24640,"componentType":5126,"count":161,"type":"VEC4","name":"accessorAnimationRotations"},{"bufferView":0,"byteOffset":16756,"componentType":5126,"count":161,"min":[0.0],"max":[5.33333349],"type":"SCALAR","name":"accessorAnimationInput"},{"bufferView":1,"byteOffset":29856,"componentType":5126,"count":161,"type":"VEC3","name":"accessorAnimationPositions"},{"bufferView":0,"byteOffset":17400,"componentType":5126,"count":161,"min":[0.0],"max":[5.33333349],"type":"SCALAR","name":"accessorAnimationInput"},{"bufferView":2,"byteOffset":27216,"componentType":5126,"count":161,"type":"VEC4","name":"accessorAnimationRotations"},{"bufferView":0,"byteOffset":18044,"componentType":5126,"count":161,"min":[0.0],"max":[5.33333349],"type":"SCALAR","name":"accessorAnimationInput"},{"bufferView":1,"byteOffset":31788,"componentType":5126,"count":161,"type":"VEC3","name":"accessorAnimationScales"}],"animations":[{"name":"Boeing747-8i_Throttle","channels":[{"sampler":0,"target":{"node":8,"path":"translation"}},{"sampler":1,"target":{"node":8,"path":"rotation"}},{"sampler":2,"target":{"node":0,"path":"translation"}},{"sampler":3,"target":{"node":0,"path":"rotation"}},{"sampler":4,"target":{"node":0,"path":"scale"}}],"samplers":[{"input":0,"output":1,"interpolation":"LINEAR"},{"input":2,"output":3,"interpolation":"LINEAR"},{"input":4,"output":5,"interpolation":"LINEAR"},{"input":6,"output":7,"interpolation":"LINEAR"},{"input":8,"output":9,"interpolation":"LINEAR"}]},{"name":"Boeing747-8i_Yoke","channels":[{"sampler":0,"target":{"node":9,"path":"translation"}},{"sampler":1,"target":{"node":9,"path":"rotation"}},{"sampler":2,"target":{"node":1,"path":"translation"}}],"samplers":[{"input":10,"output":11,"interpolation":"LINEAR"},{"input":12,"output":13,"interpolation":"LINEAR"},{"input":14,"output":15,"interpolation":"LINEAR"}]},{"name":"Boeing747-8i_Board","channels":[{"sampler":0,"target":{"node":6,"path":"translation"}},{"sampler":1,"target":{"node":6,"path":"rotation"}},{"sampler":2,"target":{"node":6,"path":"scale"}},{"sampler":3,"target":{"node":14,"path":"translation"}},{"sampler":4,"target":{"node":14,"path":"rotation"}}],"samplers":[{"input":16,"output":17,"interpolation":"LINEAR"},{"input":18,"output":19,"interpolation":"LINEAR"},{"input":20,"output":21,"interpolation":"LINEAR"},{"input":22,"output":23,"interpolation":"LINEAR"},{"input":24,"output":25,"interpolation":"LINEAR"}]},{"name":"Boeing747-8i_Fuse","channels":[{"sampler":0,"target":{"node":11,"path":"translation"}},{"sampler":1,"target":{"node":11,"path":"rotation"}},{"sampler":2,"target":{"node":3,"path":"translation"}},{"sampler":3,"target":{"node":3,"path":"rotation"}},{"sampler":4,"target":{"node":3,"path":"scale"}}],"samplers":[{"input":26,"output":27,"interpolation":"LINEAR"},{"input":28,"output":29,"interpolation":"LINEAR"},{"input":30,"output":31,"interpolation":"LINEAR"},{"input":32,"output":33,"interpolation":"LINEAR"},{"input":34,"output":35,"interpolation":"LINEAR"}]},{"name":"Boeing747-8i_RearseatLeft","channels":[{"sampler":0,"target":{"node":10,"path":"rotation"}},{"sampler":1,"target":{"node":2,"path":"translation"}}],"samplers":[{"input":36,"output":37,"interpolation":"LINEAR"},{"input":38,"output":39,"interpolation":"LINEAR"}]},{"name":"Boeing747-8i_Global","channels":[{"sampler":0,"target":{"node":12,"path":"translation"}},{"sampler":1,"target":{"node":12,"path":"rotation"}},{"sampler":2,"target":{"node":4,"path":"translation"}}],"samplers":[{"input":40,"output":41,"interpolation":"LINEAR"},{"input":42,"output":43,"interpolation":"LINEAR"},{"input":44,"output":45,"interpolation":"LINEAR"}]},{"name":"Boeing747-8i_Overhead","channels":[{"sampler":0,"target":{"node":7,"path":"scale"}},{"sampler":1,"target":{"node":15,"path":"translation"}},{"sampler":2,"target":{"node":15,"path":"rotation"}}],"samplers":[{"input":46,"output":47,"interpolation":"LINEAR"},{"input":48,"output":49,"interpolation":"LINEAR"},{"input":50,"output":51,"interpolation":"LINEAR"}]},{"name":"Boeing747-8i_Lowboard","channels":[{"sampler":0,"target":{"node":13,"path":"translation"}},{"sampler":1,"target":{"node":13,"path":"rotation"}},{"sampler":2,"target":{"node":5,"path":"translation"}},{"sampler":3,"target":{"node":5,"path":"rotation"}},{"sampler":4,"target":{"node":5,"path":"scale"}}],"samplers":[{"input":52,"output":53,"interpolation":"LINEAR"},{"input":54,"output":55,"interpolation":"LINEAR"},{"input":56,"output":57,"interpolation":"LINEAR"},{"input":58,"output":59,"interpolation":"LINEAR"},{"input":60,"output":61,"interpolation":"LINEAR"}]}],"asset":{"generator":"babylon.js glTF exporter for 3dsmax 2019 v1.5.0","version":"2.0","extensions":{"ASOBO_asset_optimized":{"MajorVersion":4,"MinorVersion":4},"ASOBO_normal_map_convention":{"tangent_space_convention":"DirectX"}}},"bufferViews":[{"buffer":0,"byteLength":18688,"name":"bufferViewAnimationFloatScalar"},{"buffer":0,"byteLength":33720,"byteOffset":18688,"name":"bufferViewAnimationFloatVec3"},{"buffer":0,"byteLength":29792,"byteOffset":52408,"name":"bufferViewAnimationFloatVec4"}],"nodes":[{"translation":[-0.00000108479321,3.82045412,24.8430748],"rotation":[0.49999997,-0.50000006,0.5000001,0.49999997],"scale":[1.0,1.0,1.0],"name":"Boeing747-8i_Throttle_TARGET"},{"translation":[0.330732822,3.92103958,25.0707512],"rotation":[0.49999994,-0.50000006,0.5,0.5],"scale":[0.9999999,0.9999999,0.9999999],"name":"Boeing747-8i_Yoke_TARGET"},{"translation":[1.2563324,3.9575417,23.5765514],"rotation":[0.0,0.0,0.0,1.0],"scale":[1.0,1.0,1.0],"name":"Boeing747-8i_RearseatLeft_TARGET"},{"translation":[-0.344644666,4.0903244,22.9864674],"rotation":[0.49999997,-0.50000006,0.5000001,0.49999997],"scale":[1.0,1.0,1.0],"name":"Boeing747-8i_Fuse_TARGET"},{"translation":[-0.023478765,4.2493577,24.22987],"rotation":[0.008689926,-0.7603909,0.649327934,0.0101762759],"scale":[0.99999994,0.9999999,1.0],"name":"Boeing747-8i_Global_TARGET"},{"translation":[0.00347890751,3.77772856,24.65022],"rotation":[0.0,0.0,0.0,1.0],"scale":[1.0,1.0,1.0],"name":"Boeing747-8i_Lowboard_TARGET"},{"translation":[-0.0994009152,4.183863,25.3859138],"rotation":[0.5,-0.5,0.5,0.5],"scale":[0.999999762,0.999999762,0.999999762],"name":"Boeing747-8i_Board_TARGET"},{"translation":[-0.0277299732,4.77458048,24.9680786],"rotation":[0.49999997,-0.50000006,0.5000001,0.49999997],"scale":[1.0,1.0,1.0],"name":"Boeing747-8i_Overhead_TARGET"},{"translation":[0.232802629,4.17120028,24.5336647],"rotation":[0.11402975,-0.8849357369999999,-0.3412123,-0.29573667],"scale":[1.0,1.0,1.0],"camera":0,"name":"Boeing747-8i_Throttle_CAMERA"},{"translation":[0.630951166,4.13304,24.5415859],"rotation":[0.04258024,-0.953338146,-0.161341518,-0.251599073],"scale":[0.9999998,0.9999998,0.9999999],"camera":1,"name":"Boeing747-8i_Yoke_CAMERA"},{"translation":[0.861559331,4.100389,23.2219849],"rotation":[-0.05340059,-0.905408859,-0.119739145,0.403789341],"scale":[1.0,1.0,1.0],"camera":2,"name":"Boeing747-8i_RearseatLeft_CAMERA"},{"translation":[-0.219702318,4.15895844,22.853817],"rotation":[0.06606783,-0.9144653,-0.166502982,-0.3628568],"scale":[1.0,1.0,1.0],"camera":3,"name":"Boeing747-8i_Fuse_CAMERA"},{"translation":[0.0121981315,4.77745247,22.26878],"rotation":[0.00119257951,-0.991325,-0.131118417,-0.009016534],"scale":[0.99999994,1.0,0.99999994],"camera":4,"name":"Boeing747-8i_Global_CAMERA"},{"translation":[-0.0017107171,4.01315737,24.13877],"rotation":[-0.00108577823,-0.976816535,-0.214018255,0.00495567871],"scale":[0.99999994,1.0,1.0],"camera":5,"name":"Boeing747-8i_Lowboard_CAMERA"},{"translation":[0.425335139,4.22667933,24.8633842],"rotation":[0.0110773,-0.9230909,-0.0266634822,-0.383496523],"scale":[0.999999762,0.999999762,0.9999997],"camera":6,"name":"Boeing747-8i_Board_CAMERA"},{"translation":[-0.06483562,4.39159346,23.5399113],"rotation":[0.00169595517,-0.9913535,0.130574018,0.0128761558],"scale":[0.99999994,0.99999994,1.0],"camera":7,"name":"Boeing747-8i_Overhead_CAMERA"}],"scene":0,"scenes":[{"nodes":[0,1,2,3,4,5,6,7,8,9,10,11,12,13,14,15]}],"cameras":[{"type":"perspective","name":"Boeing747-8i_Throttle_CAMERA","perspective":{"zfar":1000.0,"znear":0.000001,"yfov":0.7984415}},{"type":"perspective","name":"Boeing747-8i_Yoke_CAMERA","perspective":{"zfar":1000.0,"znear":0.000001,"yfov":0.7984415}},{"type":"perspective","name":"Boeing747-8i_RearseatLeft_CAMERA","perspective":{"zfar":1000.0,"znear":0.000001,"yfov":0.5631969}},{"type":"perspective","name":"Boeing747-8i_Fuse_CAMERA","perspective":{"zfar":10000.0,"znear":0.1,"yfov":0.5631969}},{"type":"perspective","name":"Boeing747-8i_Global_CAMERA","perspective":{"zfar":10000.0,"znear":0.1,"yfov":0.5631969}},{"type":"perspective","name":"Boeing747-8i_Lowboard_CAMERA","perspective":{"zfar":1000.0,"znear":0.000001,"yfov":0.7984415}},{"type":"perspective","name":"Boeing747-8i_Board_CAMERA","perspective":{"zfar":1000.0,"znear":0.000001,"yfov":0.5631969}},{"type":"perspective","name":"Boeing747-8i_Overhead_CAMERA","perspective":{"zfar":1000.0,"znear":0.000001,"yfov":0.7984415}}],"extensionsUsed":["ASOBO_normal_map_convention","ASOBO_asset_optimized"],"buffers":[{"byteLength":82200,"uri":"PlaneShowcase_COCKPIT.bin"}]}
