<?xml version="1.0" encoding="UTF-8"?>
<!DOCTYPE svg PUBLIC "-//W3C//DTD SVG 1.1//EN" "http://www.w3.org/Graphics/SVG/1.1/DTD/svg11.dtd">
<svg xmlns="http://www.w3.org/2000/svg" version="1.1" width="2048px" height="2048px" style="shape-rendering:geometricPrecision; text-rendering:geometricPrecision; image-rendering:optimizeQuality; fill-rule:evenodd; clip-rule:evenodd" xmlns:xlink="http://www.w3.org/1999/xlink">
<g><path style="opacity:1" fill="#a663cd" d="M 376.5,-0.5 C 807.833,-0.5 1239.17,-0.5 1670.5,-0.5C 1798.75,10.1879 1900.58,67.1879 1976,170.5C 2018.44,232.661 2042.28,301.328 2047.5,376.5C 2047.5,807.833 2047.5,1239.17 2047.5,1670.5C 2036.81,1798.75 1979.81,1900.58 1876.5,1976C 1814.34,2018.44 1745.67,2042.28 1670.5,2047.5C 1239.17,2047.5 807.833,2047.5 376.5,2047.5C 248.25,2036.81 146.417,1979.81 71,1876.5C 28.5569,1814.34 4.72359,1745.67 -0.5,1670.5C -0.5,1239.17 -0.5,807.833 -0.5,376.5C 10.1879,248.25 67.1879,146.417 170.5,71C 232.661,28.5569 301.328,4.72359 376.5,-0.5 Z"/></g>
<g><path style="opacity:1" fill="#fdfdfe" d="M 1740.5,1375.5 C 1531.83,1375.5 1323.17,1375.5 1114.5,1375.5C 1114.5,1437.17 1114.5,1498.83 1114.5,1560.5C 1193.83,1560.5 1273.17,1560.5 1352.5,1560.5C 1353.5,1578.99 1353.83,1597.66 1353.5,1616.5C 1133.5,1616.5 913.5,1616.5 693.5,1616.5C 693.17,1597.66 693.503,1578.99 694.5,1560.5C 774.167,1560.5 853.833,1560.5 933.5,1560.5C 933.5,1498.83 933.5,1437.17 933.5,1375.5C 724.5,1375.5 515.5,1375.5 306.5,1375.5C 277.356,1372.19 259.856,1356.19 254,1327.5C 253.333,1070.5 253.333,813.5 254,556.5C 258.016,535.479 269.849,520.645 289.5,512C 293.42,510.687 297.42,509.687 301.5,509C 542.167,508.833 782.833,508.667 1023.5,508.5C 1264.17,508.667 1504.83,508.833 1745.5,509C 1771.31,514.807 1787.14,530.64 1793,556.5C 1793.67,813.5 1793.67,1070.5 1793,1327.5C 1787.14,1356.19 1769.64,1372.19 1740.5,1375.5 Z"/></g>
<g><path style="opacity:1" fill="#a663cd" d="M 329.5,560.5 C 792.167,560.333 1254.83,560.5 1717.5,561C 1731.77,563.068 1739.6,571.234 1741,585.5C 1741.67,823.5 1741.67,1061.5 1741,1299.5C 1739.14,1312.35 1731.98,1320.52 1719.5,1324C 1255.5,1324.67 791.5,1324.67 327.5,1324C 315.06,1320.55 307.893,1312.39 306,1299.5C 305.333,1061.5 305.333,823.5 306,585.5C 307.505,571.163 315.339,562.829 329.5,560.5 Z"/></g>
<g><path style="opacity:1" fill="#fefdfe" d="M 1041.5,678.5 C 1054.9,677.251 1067.56,679.418 1079.5,685C 1140.32,734.573 1201.32,783.906 1262.5,833C 1270.27,839.048 1275.11,846.882 1277,856.5C 1278.88,868.205 1277.21,879.205 1272,889.5C 1196.7,973.798 1121.04,1057.8 1045,1141.5C 1044.33,1142.5 1044.33,1143.5 1045,1144.5C 1055.01,1150.85 1058.67,1159.85 1056,1171.5C 1049.21,1185.93 1038.21,1190.6 1023,1185.5C 1005.23,1195.98 986.392,1203.48 966.5,1208C 898.351,1213.28 843.517,1188.78 802,1134.5C 789.031,1115.93 779.364,1095.93 773,1074.5C 767.805,1046.14 772.972,1019.97 788.5,996C 780.163,985.784 779.33,974.951 786,963.5C 793.241,955.847 802.074,953.347 812.5,956C 816.149,957.829 819.482,960.163 822.5,963C 823.332,963.688 823.998,963.521 824.5,962.5C 887.139,873.361 949.972,784.361 1013,695.5C 1020.85,686.835 1030.35,681.169 1041.5,678.5 Z"/></g>
<g><path style="opacity:1" fill="#a663cd" d="M 1047.5,716.5 C 1050.19,716.336 1052.85,716.503 1055.5,717C 1112.17,761.667 1168.83,806.333 1225.5,851C 1232.5,858.135 1233.33,865.968 1228,874.5C 1153.95,955.043 1080.12,1035.71 1006.5,1116.5C 955.515,1074.18 904.849,1031.51 854.5,988.5C 914.862,901.304 975.028,813.971 1035,726.5C 1038.54,722.097 1042.71,718.764 1047.5,716.5 Z"/></g>
<g><path style="opacity:1" fill="#a867ce" d="M 818.5,1081.5 C 831.724,1083.39 840.39,1090.72 844.5,1103.5C 843.562,1109.69 840.228,1111.19 834.5,1108C 825.498,1103.01 819.498,1095.68 816.5,1086C 816.759,1084.21 817.425,1082.71 818.5,1081.5 Z"/></g>
<g><path style="opacity:1" fill="#a968ce" d="M 848.5,1134.5 C 856.343,1135.01 862.843,1138.34 868,1144.5C 870.248,1147.33 872.248,1150.33 874,1153.5C 876.005,1160.49 873.505,1163.32 866.5,1162C 858,1157.5 851.5,1151 847,1142.5C 846.109,1139.5 846.609,1136.84 848.5,1134.5 Z"/></g>
<g><path style="opacity:1" fill="#a868ce" d="M 904.5,1148.5 C 906.527,1148.34 908.527,1148.5 910.5,1149C 916.871,1152.37 922.371,1156.87 927,1162.5C 929.001,1165.32 930.167,1168.49 930.5,1172C 930.561,1173.71 929.894,1175.04 928.5,1176C 920.848,1176.59 914.681,1173.76 910,1167.5C 906.843,1163.35 904.343,1158.85 902.5,1154C 902.395,1151.82 903.061,1149.99 904.5,1148.5 Z"/></g>
<g><path style="opacity:1" fill="#cbaade" d="M 306.5,1375.5 C 515.5,1375.5 724.5,1375.5 933.5,1375.5C 933.5,1437.17 933.5,1498.83 933.5,1560.5C 853.833,1560.5 774.167,1560.5 694.5,1560.5C 773.665,1559.5 852.998,1559.17 932.5,1559.5C 932.5,1498.5 932.5,1437.5 932.5,1376.5C 723.666,1376.83 514.999,1376.5 306.5,1375.5 Z"/></g>
<g><path style="opacity:1" fill="#cbacdd" d="M 1740.5,1375.5 C 1532.33,1376.5 1324,1376.83 1115.5,1376.5C 1115.5,1437.5 1115.5,1498.5 1115.5,1559.5C 1194.67,1559.17 1273.67,1559.5 1352.5,1560.5C 1273.17,1560.5 1193.83,1560.5 1114.5,1560.5C 1114.5,1498.83 1114.5,1437.17 1114.5,1375.5C 1323.17,1375.5 1531.83,1375.5 1740.5,1375.5 Z"/></g>
</svg>
