<?xml version="1.0" encoding="UTF-8"?>
<!DOCTYPE svg PUBLIC "-//W3C//DTD SVG 1.1//EN" "http://www.w3.org/Graphics/SVG/1.1/DTD/svg11.dtd">
<svg xmlns="http://www.w3.org/2000/svg" version="1.1" width="2048px" height="2048px" style="shape-rendering:geometricPrecision; text-rendering:geometricPrecision; image-rendering:optimizeQuality; fill-rule:evenodd; clip-rule:evenodd" xmlns:xlink="http://www.w3.org/1999/xlink">
<g><path style="opacity:1" fill="#6e2cbc" d="M 376.5,-0.5 C 807.833,-0.5 1239.17,-0.5 1670.5,-0.5C 1798.75,10.1879 1900.58,67.1879 1976,170.5C 2018.44,232.661 2042.28,301.328 2047.5,376.5C 2047.5,807.833 2047.5,1239.17 2047.5,1670.5C 2036.81,1798.75 1979.81,1900.58 1876.5,1976C 1814.34,2018.44 1745.67,2042.28 1670.5,2047.5C 1239.17,2047.5 807.833,2047.5 376.5,2047.5C 248.25,2036.81 146.417,1979.81 71,1876.5C 28.5569,1814.34 4.72359,1745.67 -0.5,1670.5C -0.5,1239.17 -0.5,807.833 -0.5,376.5C 10.1879,248.25 67.1879,146.417 170.5,71C 232.661,28.5569 301.328,4.72359 376.5,-0.5 Z"/></g>
<g><path style="opacity:1" fill="#fdfefd" d="M 1018.5,172.5 C 1025.3,171.624 1031.3,173.291 1036.5,177.5C 1044.47,185.146 1050.47,194.146 1054.5,204.5C 1060.89,220.925 1066.39,237.592 1071,254.5C 1076.23,277.799 1080.9,301.132 1085,324.5C 1085.62,332.837 1086.28,341.171 1087,349.5C 1089.37,359.635 1091.04,369.968 1092,380.5C 1094.3,412.9 1096.64,445.234 1099,477.5C 1099.33,558.833 1099.67,640.167 1100,721.5C 1152.23,768.553 1204.06,816.22 1255.5,864.5C 1255.83,863.667 1256.17,862.833 1256.5,862C 1251.86,838.102 1250.69,813.935 1253,789.5C 1253.64,785.67 1255.47,782.503 1258.5,780C 1261.04,779.86 1263.38,779.194 1265.5,778C 1284.5,777.333 1303.5,777.333 1322.5,778C 1323.62,779.044 1324.96,779.71 1326.5,780C 1327.59,782.89 1328.76,785.723 1330,788.5C 1333.2,816.373 1333.2,844.373 1330,872.5C 1328.83,880.436 1327.83,888.436 1327,896.5C 1326.08,898.98 1324.58,899.647 1322.5,898.5C 1321.19,899.313 1320.02,900.313 1319,901.5C 1318.09,900.672 1317.42,899.672 1317,898.5C 1316.74,902.424 1315.74,906.091 1314,909.5C 1313.33,912.5 1313.33,915.5 1314,918.5C 1324.41,926.907 1334.25,936.074 1343.5,946C 1344.5,946.333 1345.5,946.667 1346.5,947C 1375.4,973.561 1404.07,1000.56 1432.5,1028C 1440.07,1033.57 1447.07,1039.9 1453.5,1047C 1455.33,1048.17 1457.17,1049.33 1459,1050.5C 1457.08,1036.56 1456.24,1022.39 1456.5,1008C 1456.67,999.833 1456.83,991.667 1457,983.5C 1457.62,977.927 1460.45,973.927 1465.5,971.5C 1483.96,968.627 1502.63,967.794 1521.5,969C 1525.74,969.504 1529.24,971.338 1532,974.5C 1533.47,978.338 1534.47,982.338 1535,986.5C 1535.04,993.668 1535.7,1000.67 1537,1007.5C 1537.67,1015.17 1537.67,1022.83 1537,1030.5C 1535.81,1048.95 1533.98,1067.28 1531.5,1085.5C 1530.64,1091.94 1526.98,1094.28 1520.5,1092.5C 1520.74,1095.91 1520.07,1099.08 1518.5,1102C 1520.56,1105.57 1523.23,1108.74 1526.5,1111.5C 1534.38,1118.55 1542.38,1125.38 1550.5,1132C 1565.8,1143.46 1580.47,1155.8 1594.5,1169C 1598.83,1172 1603.17,1175 1607.5,1178C 1627.89,1196.35 1648.56,1214.35 1669.5,1232C 1674.15,1235.3 1678.81,1238.64 1683.5,1242C 1693.49,1250.99 1703.49,1259.99 1713.5,1269C 1721.24,1274.74 1728.41,1281.24 1735,1288.5C 1745.23,1303.95 1755.23,1319.62 1765,1335.5C 1772.89,1352.39 1781.23,1369.06 1790,1385.5C 1790.67,1392.83 1790.67,1400.17 1790,1407.5C 1788.61,1408.55 1787.11,1408.72 1785.5,1408C 1773.85,1399.35 1762.52,1390.35 1751.5,1381C 1743.59,1376.11 1735.93,1370.77 1728.5,1365C 1650.83,1319.84 1573.5,1274.17 1496.5,1228C 1478.84,1219.39 1461.67,1209.89 1445,1199.5C 1443.78,1206.11 1442.44,1212.78 1441,1219.5C 1440.1,1223.57 1437.6,1225.57 1433.5,1225.5C 1432.17,1219.18 1430,1213.18 1427,1207.5C 1426.61,1200.67 1425.78,1194 1424.5,1187.5C 1419.52,1184.89 1414.35,1182.56 1409,1180.5C 1396,1172.83 1383,1165.16 1370,1157.5C 1367.37,1166.03 1364.87,1174.7 1362.5,1183.5C 1360.28,1183.82 1358.44,1183.16 1357,1181.5C 1351.98,1170.71 1349.31,1159.38 1349,1147.5C 1314,1125.39 1276.83,1107.89 1237.5,1095C 1235.19,1094.5 1232.86,1094.34 1230.5,1094.5C 1229.3,1100.29 1227.64,1105.95 1225.5,1111.5C 1223.28,1111.82 1221.44,1111.16 1220,1109.5C 1216.68,1101.7 1213.51,1093.86 1210.5,1086C 1198.92,1082.96 1187.59,1079.29 1176.5,1075C 1173.57,1074.05 1170.57,1073.55 1167.5,1073.5C 1166.31,1078.61 1164.81,1083.61 1163,1088.5C 1161.95,1089.52 1160.78,1089.68 1159.5,1089C 1155.92,1081.75 1152.59,1074.42 1149.5,1067C 1133.24,1061.23 1116.9,1055.73 1100.5,1050.5C 1099.67,1167.83 1099.17,1285.17 1099,1402.5C 1097.37,1403.82 1097.54,1405.15 1099.5,1406.5C 1099.19,1407.31 1098.69,1407.97 1098,1408.5C 1097.67,1419.83 1097.33,1431.17 1097,1442.5C 1094.29,1461.52 1092.62,1480.85 1092,1500.5C 1089.85,1509.02 1088.19,1517.69 1087,1526.5C 1086.28,1534.16 1085.61,1541.83 1085,1549.5C 1081.11,1567 1077.61,1584.67 1074.5,1602.5C 1076,1607.35 1078,1612.02 1080.5,1616.5C 1090.33,1628.5 1101.33,1639.33 1113.5,1649C 1140.47,1675.64 1167.81,1701.97 1195.5,1728C 1206.08,1736.57 1216.08,1745.91 1225.5,1756C 1226.5,1756.33 1227.5,1756.67 1228.5,1757C 1242.11,1771.36 1256.28,1785.2 1271,1798.5C 1271.67,1817.17 1271.67,1835.83 1271,1854.5C 1269.77,1855.11 1268.44,1855.44 1267,1855.5C 1204.56,1839.4 1142.39,1822.56 1080.5,1805C 1076.5,1804.33 1072.5,1803.67 1068.5,1803C 1059.66,1800.12 1050.83,1797.29 1042,1794.5C 1041.33,1795.17 1040.67,1795.83 1040,1796.5C 1036.96,1810.66 1033.29,1824.66 1029,1838.5C 1028.57,1850.53 1027.74,1862.53 1026.5,1874.5C 1025.04,1875.47 1023.7,1875.14 1022.5,1873.5C 1020.64,1857.5 1018.81,1841.5 1017,1825.5C 1016.09,1824.67 1015.42,1823.67 1015,1822.5C 1013.12,1812.99 1010.78,1803.66 1008,1794.5C 940.536,1813.46 872.703,1831.63 804.5,1849C 802.5,1850 800.5,1851 798.5,1852C 791.362,1852.97 784.362,1854.13 777.5,1855.5C 777.333,1836.16 777.5,1816.83 778,1797.5C 810.8,1767.7 842.967,1737.2 874.5,1706C 885.079,1697.43 895.079,1688.09 904.5,1678C 915.079,1669.43 925.079,1660.09 934.5,1650C 935.5,1649.67 936.5,1649.33 937.5,1649C 946.5,1639.83 955.5,1630.67 964.5,1621.5C 967.243,1616.76 970.076,1612.09 973,1607.5C 973.464,1601.47 973.131,1595.47 972,1589.5C 970.461,1582.47 968.795,1575.47 967,1568.5C 963.367,1544.87 960.034,1521.2 957,1497.5C 955.667,1485.5 954.333,1473.5 953,1461.5C 952.157,1441.84 951.49,1422.17 951,1402.5C 949.923,1400.88 949.423,1399.05 949.5,1397C 949.513,1281.59 949.513,1166.09 949.5,1050.5C 940.784,1052.27 932.451,1055.11 924.5,1059C 915.514,1060.74 906.848,1063.41 898.5,1067C 895.645,1074.78 892.979,1082.61 890.5,1090.5C 888.278,1090.82 886.444,1090.16 885,1088.5C 883.177,1083.52 881.677,1078.52 880.5,1073.5C 865.46,1078.01 850.46,1082.68 835.5,1087.5C 835.608,1091.25 835.108,1094.91 834,1098.5C 832.667,1101.17 831.333,1103.83 830,1106.5C 828.959,1108.59 827.459,1110.25 825.5,1111.5C 822.716,1109.89 820.882,1107.55 820,1104.5C 819.339,1101.05 818.505,1097.72 817.5,1094.5C 809.992,1095.71 802.659,1097.54 795.5,1100C 782.702,1105.93 769.702,1111.26 756.5,1116C 737.315,1125.22 718.649,1135.22 700.5,1146C 700.397,1158.99 697.064,1171.16 690.5,1182.5C 689.311,1183.43 687.978,1183.76 686.5,1183.5C 683.161,1175.16 680.828,1166.49 679.5,1157.5C 662.406,1167.27 645.073,1176.77 627.5,1186C 626.333,1187.17 625.167,1188.33 624,1189.5C 623.254,1202.17 620.087,1214.17 614.5,1225.5C 612.278,1225.82 610.444,1225.16 609,1223.5C 606.985,1215.73 604.818,1208.06 602.5,1200.5C 551.097,1228.79 500.431,1258.29 450.5,1289C 434.3,1297.59 418.634,1306.93 403.5,1317C 401.5,1317.67 399.5,1318.33 397.5,1319C 381.055,1329.93 364.055,1339.93 346.5,1349C 327.568,1360.93 308.901,1373.27 290.5,1386C 281.719,1393.56 272.719,1400.9 263.5,1408C 261.866,1408.49 260.199,1408.66 258.5,1408.5C 258.334,1400.49 258.5,1392.49 259,1384.5C 275.193,1350.33 293.86,1317.67 315,1286.5C 323.676,1276.48 333.509,1267.98 344.5,1261C 354.38,1252.58 364.047,1243.91 373.5,1235C 378.188,1231.64 382.855,1228.3 387.5,1225C 397.817,1216.35 407.817,1207.35 417.5,1198C 422.167,1194.67 426.833,1191.33 431.5,1188C 434.608,1184.22 438.275,1181.22 442.5,1179C 452.64,1168.52 463.64,1159.18 475.5,1151C 478.608,1147.22 482.275,1144.22 486.5,1142C 500.597,1130.08 514.597,1117.91 528.5,1105.5C 529.659,1100.76 529.326,1096.09 527.5,1091.5C 526.707,1091.93 525.873,1092.26 525,1092.5C 522.79,1090.89 520.29,1090.22 517.5,1090.5C 513.229,1057.41 511.729,1024.08 513,990.5C 514.196,985.623 515.196,980.623 516,975.5C 518.488,971.675 521.988,969.508 526.5,969C 545.285,967.96 563.952,968.626 582.5,971C 585.539,972.031 588.039,973.865 590,976.5C 590.118,979.371 590.784,982.038 592,984.5C 592.667,1001.17 592.667,1017.83 592,1034.5C 591.043,1040.27 589.876,1045.94 588.5,1051.5C 589.552,1051.65 590.552,1051.48 591.5,1051C 605.138,1038.36 618.471,1025.36 631.5,1012C 632.5,1011.67 633.5,1011.33 634.5,1011C 648.24,997.329 662.24,983.996 676.5,971C 677.5,970.667 678.5,970.333 679.5,970C 698.204,951.627 717.204,933.627 736.5,916C 734.908,910.147 733.075,904.313 731,898.5C 730.632,899.91 729.799,900.91 728.5,901.5C 726.267,900.258 724.101,898.924 722,897.5C 719.97,881.896 717.97,866.23 716,850.5C 714.853,830.319 715.52,810.319 718,790.5C 719.756,785.914 722.256,781.747 725.5,778C 744.5,777.333 763.5,777.333 782.5,778C 786.663,778.556 790.163,780.39 793,783.5C 794.723,788.751 796.056,794.084 797,799.5C 797.167,804.333 797.333,809.167 797.5,814C 796.314,830.9 794.814,847.734 793,864.5C 805.894,853.263 818.394,841.429 830.5,829C 838.742,822.764 846.409,815.764 853.5,808C 854.5,807.667 855.5,807.333 856.5,807C 863.056,799.942 870.056,793.442 877.5,787.5C 884.231,779.977 891.565,773.144 899.5,767C 906.235,759.595 913.568,752.928 921.5,747C 930.089,737.739 939.256,729.239 949,721.5C 949.333,643.167 949.667,564.833 950,486.5C 951.373,464.642 952.373,442.642 953,420.5C 954.187,407.703 955.854,395.037 958,382.5C 958.745,371.838 959.411,361.172 960,350.5C 962.146,342.65 963.813,334.65 965,326.5C 965.544,315.729 966.877,305.062 969,294.5C 973.403,277.003 977.403,259.337 981,241.5C 982,239.5 983,237.5 984,235.5C 988.023,219.333 994.023,204 1002,189.5C 1004.8,187.377 1006.8,184.71 1008,181.5C 1011.13,177.859 1014.63,174.859 1018.5,172.5 Z"/></g>
</svg>
