<?xml version="1.0" encoding="UTF-8"?>
<!DOCTYPE svg PUBLIC "-//W3C//DTD SVG 1.1//EN" "http://www.w3.org/Graphics/SVG/1.1/DTD/svg11.dtd">
<svg xmlns="http://www.w3.org/2000/svg" version="1.1" width="2048px" height="2048px" style="shape-rendering:geometricPrecision; text-rendering:geometricPrecision; image-rendering:optimizeQuality; fill-rule:evenodd; clip-rule:evenodd" xmlns:xlink="http://www.w3.org/1999/xlink">
<g><path style="opacity:1" fill="#1531d0" d="M 371.5,-0.5 C 806.167,-0.5 1240.83,-0.5 1675.5,-0.5C 1799.5,11.0666 1898.67,66.3999 1973,165.5C 2016.55,227.315 2041.38,295.982 2047.5,371.5C 2047.5,806.167 2047.5,1240.83 2047.5,1675.5C 2035.93,1799.5 1980.6,1898.67 1881.5,1973C 1819.68,2016.55 1751.02,2041.38 1675.5,2047.5C 1240.83,2047.5 806.167,2047.5 371.5,2047.5C 247.5,2035.93 148.333,1980.6 74,1881.5C 30.4484,1819.68 5.61508,1751.02 -0.5,1675.5C -0.5,1240.83 -0.5,806.167 -0.5,371.5C 11.0666,247.5 66.3999,148.333 165.5,74C 227.315,30.4484 295.982,5.61508 371.5,-0.5 Z"/></g>
<g><path style="opacity:1" fill="#fefefe" d="M 1015.5,181.5 C 1036.79,179.55 1050.96,188.55 1058,208.5C 1058.67,272.833 1058.67,337.167 1058,401.5C 1053.9,420.925 1041.9,430.925 1022,431.5C 1003.72,429.559 992.724,419.559 989,401.5C 988.333,337.167 988.333,272.833 989,208.5C 993.351,194.984 1002.18,185.984 1015.5,181.5 Z"/></g>
<g><path style="opacity:1" fill="#8e99e8" d="M 459.5,418.5 C 453.804,418.447 448.138,418.78 442.5,419.5C 445.718,418.046 449.218,417.379 453,417.5C 455.361,417.504 457.527,417.837 459.5,418.5 Z"/></g>
<g><path style="opacity:1" fill="#fdfdfe" d="M 459.5,418.5 C 464.965,419.565 469.965,421.732 474.5,425C 519.333,469.833 564.167,514.667 609,559.5C 620.138,579.387 616.638,596.22 598.5,610C 585.324,617.552 572.324,617.218 559.5,609C 514.667,564.167 469.833,519.333 425,474.5C 421.732,469.965 419.565,464.965 418.5,459.5C 418.447,453.804 418.78,448.138 419.5,442.5C 423.5,431.167 431.167,423.5 442.5,419.5C 448.138,418.78 453.804,418.447 459.5,418.5 Z"/></g>
<g><path style="opacity:1" fill="#fdfdfe" d="M 1627.5,442.5 C 1628.22,448.138 1628.55,453.804 1628.5,459.5C 1627.16,465.352 1624.66,470.685 1621,475.5C 1576.83,519.667 1532.67,563.833 1488.5,608C 1483.47,611.849 1477.8,614.016 1471.5,614.5C 1466.47,614.497 1461.47,614.164 1456.5,613.5C 1438.27,606.416 1430.1,593.082 1432,573.5C 1433.46,568.581 1435.46,563.914 1438,559.5C 1483.86,513.306 1530.03,467.472 1576.5,422C 1594.59,413.955 1610.09,417.455 1623,432.5C 1625.32,435.469 1626.82,438.802 1627.5,442.5 Z"/></g>
<g><path style="opacity:1" fill="#8e99e8" d="M 419.5,442.5 C 418.78,448.138 418.447,453.804 418.5,459.5C 417.837,457.527 417.504,455.361 417.5,453C 417.379,449.218 418.046,445.718 419.5,442.5 Z"/></g>
<g><path style="opacity:1" fill="#8e99e8" d="M 1627.5,442.5 C 1628.95,445.718 1629.62,449.218 1629.5,453C 1629.5,455.361 1629.16,457.527 1628.5,459.5C 1628.55,453.804 1628.22,448.138 1627.5,442.5 Z"/></g>
<g><path style="opacity:1" fill="#fefefe" d="M 994.5,523.5 C 1132.63,518.702 1253.63,561.202 1357.5,651C 1471.01,756.774 1526.18,887.608 1523,1043.5C 1515.27,1183.76 1460.11,1301.26 1357.5,1396C 1253.65,1485.96 1132.65,1528.29 994.5,1523C 837.448,1510.39 711.948,1441.56 618,1316.5C 530.801,1190.49 504.134,1052.49 538,902.5C 579.999,748.515 672.833,637.015 816.5,568C 873.278,542.599 932.612,527.766 994.5,523.5 Z"/></g>
<g><path style="opacity:1" fill="#1531d0" d="M 1023.5,598.5 C 1165.45,602.225 1279.62,659.892 1366,771.5C 1447.71,887.807 1468.71,1014.47 1429,1151.5C 1389.3,1268.87 1313.8,1354.7 1202.5,1409C 1145.71,1434.86 1086.05,1448.03 1023.5,1448.5C 1023.5,1165.17 1023.5,881.833 1023.5,598.5 Z"/></g>
<g><path style="opacity:1" fill="#929de9" d="M 1456.5,613.5 C 1461.47,614.164 1466.47,614.497 1471.5,614.5C 1469.87,615.161 1468.03,615.494 1466,615.5C 1462.55,615.579 1459.38,614.913 1456.5,613.5 Z"/></g>
<g><path style="opacity:1" fill="#fefefe" d="M 208.5,988.5 C 274.865,988.021 341.198,988.521 407.5,990C 427.351,998.536 434.851,1013.37 430,1034.5C 424.993,1047.85 415.493,1055.68 401.5,1058C 337.167,1058.67 272.833,1058.67 208.5,1058C 187.137,1050.11 178.637,1034.95 183,1012.5C 187.839,1000.49 196.339,992.491 208.5,988.5 Z"/></g>
<g><path style="opacity:1" fill="#fefefe" d="M 1641.5,988.5 C 1707.87,988.021 1774.2,988.521 1840.5,990C 1860.35,998.536 1867.85,1013.37 1863,1034.5C 1857.99,1047.85 1848.49,1055.68 1834.5,1058C 1770.17,1058.67 1705.83,1058.67 1641.5,1058C 1620.14,1050.11 1611.64,1034.95 1616,1012.5C 1620.84,1000.49 1629.34,992.491 1641.5,988.5 Z"/></g>
<g><path style="opacity:1" fill="#fdfdfe" d="M 420.5,1603.5 C 419.637,1597.55 419.303,1591.55 419.5,1585.5C 420.61,1580.88 422.443,1576.55 425,1572.5C 470.861,1526.31 517.028,1480.47 563.5,1435C 581.481,1427.87 596.981,1431.37 610,1445.5C 611.667,1449.17 613.333,1452.83 615,1456.5C 617.433,1468.32 615.1,1478.99 608,1488.5C 563.833,1532.67 519.667,1576.83 475.5,1621C 457.502,1632.51 441.002,1630.68 426,1615.5C 423.875,1611.59 422.042,1607.59 420.5,1603.5 Z"/></g>
<g><path style="opacity:1" fill="#fdfdfe" d="M 1627.5,1585.5 C 1627.7,1591.55 1627.36,1597.55 1626.5,1603.5C 1622.68,1616.15 1614.35,1624.31 1601.5,1628C 1596.17,1628.67 1590.83,1628.67 1585.5,1628C 1581.02,1626.26 1576.68,1624.26 1572.5,1622C 1527.67,1577.17 1482.83,1532.33 1438,1487.5C 1427.18,1468.59 1429.68,1451.75 1445.5,1437C 1448.45,1436.19 1451.11,1434.86 1453.5,1433C 1465.63,1429.74 1476.97,1431.41 1487.5,1438C 1532.33,1482.83 1577.17,1527.67 1622,1572.5C 1624.38,1576.59 1626.21,1580.93 1627.5,1585.5 Z"/></g>
<g><path style="opacity:1" fill="#a8b0ed" d="M 419.5,1585.5 C 419.303,1591.55 419.637,1597.55 420.5,1603.5C 419.778,1603.08 419.278,1602.42 419,1601.5C 418.183,1595.98 418.349,1590.65 419.5,1585.5 Z"/></g>
<g><path style="opacity:1" fill="#a8b0ed" d="M 1627.5,1585.5 C 1628.65,1590.65 1628.82,1595.98 1628,1601.5C 1627.72,1602.42 1627.22,1603.08 1626.5,1603.5C 1627.36,1597.55 1627.7,1591.55 1627.5,1585.5 Z"/></g>
<g><path style="opacity:1" fill="#fefefe" d="M 1015.5,1614.5 C 1036.79,1612.55 1050.96,1621.55 1058,1641.5C 1058.67,1705.83 1058.67,1770.17 1058,1834.5C 1053.9,1853.93 1041.9,1863.93 1022,1864.5C 1003.72,1862.56 992.724,1852.56 989,1834.5C 988.333,1770.17 988.333,1705.83 989,1641.5C 993.351,1627.98 1002.18,1618.98 1015.5,1614.5 Z"/></g>
</svg>
