<?xml version="1.0" encoding="UTF-8"?>
<!DOCTYPE svg PUBLIC "-//W3C//DTD SVG 1.1//EN" "http://www.w3.org/Graphics/SVG/1.1/DTD/svg11.dtd">
<svg xmlns="http://www.w3.org/2000/svg" version="1.1" width="2048px" height="2048px" style="shape-rendering:geometricPrecision; text-rendering:geometricPrecision; image-rendering:optimizeQuality; fill-rule:evenodd; clip-rule:evenodd" xmlns:xlink="http://www.w3.org/1999/xlink">
<g><path style="opacity:1" fill="#a1a1a1" d="M 376.5,-0.5 C 807.833,-0.5 1239.17,-0.5 1670.5,-0.5C 1798.75,10.1879 1900.58,67.1879 1976,170.5C 2018.44,232.661 2042.28,301.328 2047.5,376.5C 2047.5,807.833 2047.5,1239.17 2047.5,1670.5C 2036.81,1798.75 1979.81,1900.58 1876.5,1976C 1814.34,2018.44 1745.67,2042.28 1670.5,2047.5C 1239.17,2047.5 807.833,2047.5 376.5,2047.5C 248.25,2036.81 146.417,1979.81 71,1876.5C 28.5569,1814.34 4.72359,1745.67 -0.5,1670.5C -0.5,1239.17 -0.5,807.833 -0.5,376.5C 10.1879,248.25 67.1879,146.417 170.5,71C 232.661,28.5569 301.328,4.72359 376.5,-0.5 Z"/></g>
<g><path style="opacity:1" fill="#fefefe" d="M 984.5,176.5 C 1033.21,175.899 1081.88,177.066 1130.5,180C 1155.07,185.558 1172.9,199.725 1184,222.5C 1188.86,236.797 1192.19,251.464 1194,266.5C 1197.58,295.198 1201.24,323.865 1205,352.5C 1261.56,369.411 1315.73,392.078 1367.5,420.5C 1397.35,395.433 1428.02,371.6 1459.5,349C 1484.84,335.765 1510.5,335.098 1536.5,347C 1593.6,394.097 1646.1,445.931 1694,502.5C 1702.82,515.757 1706.98,530.424 1706.5,546.5C 1706.27,556.8 1704.44,566.8 1701,576.5C 1694.92,586.328 1688.59,595.995 1682,605.5C 1662.46,629.05 1643.63,653.217 1625.5,678C 1638,702.499 1649.83,727.332 1661,752.5C 1671.59,780.768 1682.09,809.101 1692.5,837.5C 1700.96,840.079 1709.63,841.913 1718.5,843C 1744.2,846.48 1769.86,850.147 1795.5,854C 1841.5,861.01 1865.34,887.843 1867,934.5C 1868.52,985.824 1868.86,1037.16 1868,1088.5C 1867.83,1102.56 1866.83,1116.56 1865,1130.5C 1861.22,1149.58 1851.72,1165.08 1836.5,1177C 1819.53,1185.75 1801.53,1191.41 1782.5,1194C 1752.39,1197.55 1722.39,1201.72 1692.5,1206.5C 1678.7,1246.43 1663.53,1285.76 1647,1324.5C 1639.37,1338.92 1631.87,1353.42 1624.5,1368C 1644.61,1393.48 1664.78,1418.65 1685,1443.5C 1692.91,1454.65 1699.24,1466.65 1704,1479.5C 1708.8,1499.28 1706.8,1518.28 1698,1536.5C 1693.25,1543.68 1688.25,1550.68 1683,1557.5C 1644.53,1598.3 1605.03,1638.14 1564.5,1677C 1556.19,1684.15 1547.53,1690.82 1538.5,1697C 1523.76,1705.83 1507.76,1709.17 1490.5,1707C 1477.54,1705.24 1465.54,1700.9 1454.5,1694C 1425.12,1671.81 1396.12,1648.97 1367.5,1625.5C 1354.68,1631.74 1342.01,1638.24 1329.5,1645C 1289.57,1663.12 1248.57,1678.78 1206.5,1692C 1206,1692.5 1205.5,1693 1205,1693.5C 1200.58,1727.87 1195.91,1762.2 1191,1796.5C 1182.75,1843.74 1154.58,1867.58 1106.5,1868C 1050.17,1870 993.833,1870 937.5,1868C 906.54,1869.6 882.373,1857.77 865,1832.5C 856.767,1815.12 851.767,1796.79 850,1777.5C 846.914,1749.65 842.747,1721.98 837.5,1694.5C 830.283,1691.06 822.95,1687.89 815.5,1685C 767.52,1669.45 721.354,1649.62 677,1625.5C 654.112,1643.74 631.278,1661.9 608.5,1680C 597.641,1687.51 586.641,1694.85 575.5,1702C 555.175,1709.25 534.842,1709.25 514.5,1702C 509.54,1699.85 504.873,1697.19 500.5,1694C 446.667,1648.17 396.833,1598.33 351,1544.5C 336.508,1521.21 333.841,1496.55 343,1470.5C 348.458,1460.39 354.458,1450.73 361,1441.5C 381.207,1417.28 400.707,1392.45 419.5,1367C 415.133,1359.1 410.633,1351.27 406,1343.5C 384.686,1299.94 366.853,1254.94 352.5,1208.5C 346.356,1206.36 340.023,1204.86 333.5,1204C 297.986,1199.81 262.653,1194.48 227.5,1188C 214.732,1182.91 203.898,1175.07 195,1164.5C 189.25,1156 183.75,1147.34 178.5,1138.5C 177.167,1061.5 177.167,984.5 178.5,907.5C 189.306,885.527 205.639,869.027 227.5,858C 268.502,851.5 309.502,845 350.5,838.5C 351.5,837.167 352.5,835.833 353.5,834.5C 366.408,795.03 381.241,756.364 398,718.5C 405.183,705.323 412.35,692.157 419.5,679C 398.317,651.82 377.15,624.653 356,597.5C 337.822,573.265 333.155,546.599 342,517.5C 346.748,507.673 352.748,498.673 360,490.5C 404.23,441.603 451.063,395.436 500.5,352C 514.649,342.53 530.316,338.03 547.5,338.5C 555.622,338.849 563.622,340.015 571.5,342C 582.773,348.614 593.773,355.614 604.5,363C 628.814,382.26 653.314,401.427 678,420.5C 685.899,416.133 693.732,411.633 701.5,407C 716.87,400.732 731.87,393.732 746.5,386C 776.373,374.542 806.373,363.375 836.5,352.5C 838.74,346.761 840.24,340.761 841,334.5C 844.734,302.36 849.401,270.36 855,238.5C 862.435,209.729 880.268,190.563 908.5,181C 933.935,178.566 959.268,177.066 984.5,176.5 Z"/></g>
<g><path style="opacity:1" fill="#a1a1a1" d="M 1045.5,283.5 C 1059.99,284.496 1074.66,284.829 1089.5,284.5C 1089.22,286.415 1089.55,288.081 1090.5,289.5C 1094.19,326.545 1098.36,363.545 1103,400.5C 1104.38,413.689 1106.55,426.689 1109.5,439.5C 1175.49,452.507 1238.49,474.007 1298.5,504C 1319.83,515.326 1340.49,527.66 1360.5,541C 1365.32,542.701 1369.99,544.701 1374.5,547C 1376.79,547.418 1378.79,546.751 1380.5,545C 1419.69,514.125 1458.53,482.958 1497,451.5C 1521,476.833 1545.67,501.5 1571,525.5C 1574.62,531.456 1579.29,536.456 1585,540.5C 1586.85,543.011 1588.68,545.511 1590.5,548C 1583.97,558.139 1577.14,567.973 1570,577.5C 1545.71,607.634 1521.55,637.967 1497.5,668.5C 1499.41,673.987 1501.58,679.32 1504,684.5C 1552.82,757.25 1585.49,836.916 1602,923.5C 1604.94,936.408 1613.1,941.908 1626.5,940C 1671.81,945.497 1717.14,950.663 1762.5,955.5C 1761.63,988.491 1761.3,1021.49 1761.5,1054.5C 1760.5,1066.32 1760.17,1078.32 1760.5,1090.5C 1758.59,1090.22 1756.92,1090.55 1755.5,1091.5C 1711.09,1095.93 1666.76,1101.09 1622.5,1107C 1616.64,1107.48 1610.98,1108.64 1605.5,1110.5C 1593.19,1175.93 1572.03,1238.26 1542,1297.5C 1533.67,1312.17 1525.33,1326.83 1517,1341.5C 1509.5,1351.83 1502.5,1362.5 1496,1373.5C 1495.58,1375.79 1496.25,1377.79 1498,1379.5C 1528.52,1417.65 1559.19,1455.31 1590,1492.5C 1591.6,1494.37 1592.6,1496.37 1593,1498.5C 1561,1530.5 1529,1562.5 1497,1594.5C 1456.87,1562.73 1416.71,1530.73 1376.5,1498.5C 1368.33,1500.92 1360.66,1504.42 1353.5,1509C 1282.64,1555.74 1205.31,1587.08 1121.5,1603C 1111.32,1604.51 1106.15,1610.34 1106,1620.5C 1100.34,1667.12 1095.17,1713.79 1090.5,1760.5C 1089.6,1761.21 1089.26,1762.21 1089.5,1763.5C 1044.5,1763.5 999.5,1763.5 954.5,1763.5C 954.784,1761.59 954.451,1759.92 953.5,1758.5C 949.074,1712.09 943.908,1665.76 938,1619.5C 938.306,1612.68 935.472,1607.85 929.5,1605C 852.777,1590.17 780.777,1563.17 713.5,1524C 699.628,1513.31 684.461,1504.81 668,1498.5C 636.794,1522.67 605.961,1547.17 575.5,1572C 566.075,1578.32 556.741,1584.82 547.5,1591.5C 538.698,1583.54 529.698,1575.7 520.5,1568C 497.833,1544 474.5,1520.67 450.5,1498C 482.937,1458.19 514.937,1417.86 546.5,1377C 540.208,1360.58 531.708,1345.41 521,1331.5C 493.228,1282.96 471.228,1231.96 455,1178.5C 450.476,1157.4 445.476,1136.4 440,1115.5C 438.708,1113.75 437.542,1111.92 436.5,1110C 432.971,1108.53 429.305,1107.53 425.5,1107C 377.903,1101.09 330.236,1095.93 282.5,1091.5C 282.5,1046.17 282.5,1000.83 282.5,955.5C 333.295,950.319 383.962,944.153 434.5,937C 438.407,933.359 440.907,928.859 442,923.5C 458.226,838.432 490.226,760.099 538,688.5C 541.222,682.165 544.056,675.665 546.5,669C 514.937,628.144 482.937,587.81 450.5,548C 467.167,531.333 483.833,514.667 500.5,498C 501.974,496.684 503.641,495.684 505.5,495C 519.764,480.613 533.931,466.113 548,451.5C 588.204,484.667 628.871,517.667 670,550.5C 711.418,522.365 755.251,498.199 801.5,478C 835.83,464.223 871.163,453.89 907.5,447C 915.591,444.977 923.591,442.644 931.5,440C 935.947,436.687 938.114,432.187 938,426.5C 943.673,378.447 949.507,330.447 955.5,282.5C 985.456,283.492 1015.46,283.825 1045.5,283.5 Z"/></g>
<g><path style="opacity:1" fill="#e0e0e0" d="M 1045.5,283.5 C 1060.5,283.5 1075.5,283.5 1090.5,283.5C 1090.5,285.5 1090.5,287.5 1090.5,289.5C 1089.55,288.081 1089.22,286.415 1089.5,284.5C 1074.66,284.829 1059.99,284.496 1045.5,283.5 Z"/></g>
<g><path style="opacity:1" fill="#fefefe" d="M 980.5,601.5 C 1024.38,600.485 1068.04,602.985 1111.5,609C 1243.11,641.312 1339.95,717.479 1402,837.5C 1417.77,871.146 1429.77,906.146 1438,942.5C 1445.56,997.889 1445.23,1053.22 1437,1108.5C 1417.68,1196.02 1375.51,1270.18 1310.5,1331C 1289.17,1350.63 1266.5,1368.3 1242.5,1384C 1200.41,1408.82 1155.41,1426.82 1107.5,1438C 1049.44,1446.83 991.444,1446.5 933.5,1437C 770.828,1395.32 664.328,1294.49 614,1134.5C 581.918,1003.61 604.084,883.274 680.5,773.5C 755.989,674.394 855.989,617.06 980.5,601.5 Z"/></g>
<g><path style="opacity:1" fill="#a1a1a1" d="M 1009.5,705.5 C 1091.97,704.373 1164.64,729.873 1227.5,782C 1316.43,861.767 1351.93,961.267 1334,1080.5C 1315.99,1166.68 1271.49,1234.85 1200.5,1285C 1105.9,1345.99 1005.9,1356.33 900.5,1316C 871.365,1304.28 845.031,1288.28 821.5,1268C 815.888,1262.06 809.888,1256.39 803.5,1251C 756.394,1206.67 725.894,1152.5 712,1088.5C 695.752,1005.99 709.085,928.655 752,856.5C 781.66,812.505 818.827,776.338 863.5,748C 909.155,723.167 957.821,709 1009.5,705.5 Z"/></g>
<g><path style="opacity:1" fill="#dddddd" d="M 1761.5,1054.5 C 1761.5,1066.83 1761.5,1079.17 1761.5,1091.5C 1759.5,1091.5 1757.5,1091.5 1755.5,1091.5C 1756.92,1090.55 1758.59,1090.22 1760.5,1090.5C 1760.17,1078.32 1760.5,1066.32 1761.5,1054.5 Z"/></g>
<g><path style="opacity:1" fill="#e3e3e3" d="M 953.5,1758.5 C 954.451,1759.92 954.784,1761.59 954.5,1763.5C 999.5,1763.5 1044.5,1763.5 1089.5,1763.5C 1089.26,1762.21 1089.6,1761.21 1090.5,1760.5C 1090.5,1761.83 1090.5,1763.17 1090.5,1764.5C 1044.83,1764.5 999.167,1764.5 953.5,1764.5C 953.5,1762.5 953.5,1760.5 953.5,1758.5 Z"/></g>
</svg>
