<?xml version="1.0" encoding="UTF-8"?>
<!DOCTYPE svg PUBLIC "-//W3C//DTD SVG 1.1//EN" "http://www.w3.org/Graphics/SVG/1.1/DTD/svg11.dtd">
<svg xmlns="http://www.w3.org/2000/svg" version="1.1" width="2048px" height="2048px" style="shape-rendering:geometricPrecision; text-rendering:geometricPrecision; image-rendering:optimizeQuality; fill-rule:evenodd; clip-rule:evenodd" xmlns:xlink="http://www.w3.org/1999/xlink">
<g><path style="opacity:1" fill="#b8f8f7" d="M 376.5,-0.5 C 807.833,-0.5 1239.17,-0.5 1670.5,-0.5C 1798.75,10.1879 1900.58,67.1879 1976,170.5C 2018.44,232.661 2042.28,301.328 2047.5,376.5C 2047.5,807.833 2047.5,1239.17 2047.5,1670.5C 2036.81,1798.75 1979.81,1900.58 1876.5,1976C 1814.34,2018.44 1745.67,2042.28 1670.5,2047.5C 1239.17,2047.5 807.833,2047.5 376.5,2047.5C 248.25,2036.81 146.417,1979.81 71,1876.5C 28.5569,1814.34 4.72359,1745.67 -0.5,1670.5C -0.5,1239.17 -0.5,807.833 -0.5,376.5C 10.1879,248.25 67.1879,146.417 170.5,71C 232.661,28.5569 301.328,4.72359 376.5,-0.5 Z"/></g>
<g><path style="opacity:1" fill="#000000" d="M 1787.5,541.5 C 1789.05,548.624 1790.72,555.624 1792.5,562.5C 1792.83,818.188 1792.5,1073.85 1791.5,1329.5C 1786.13,1354.04 1771.13,1369.04 1746.5,1374.5C 1535.83,1374.5 1325.17,1374.5 1114.5,1374.5C 1114.5,1436.5 1114.5,1498.5 1114.5,1560.5C 1193.66,1561.5 1273,1561.83 1352.5,1561.5C 1352.5,1579.5 1352.5,1597.5 1352.5,1615.5C 1133.17,1615.5 913.833,1615.5 694.5,1615.5C 694.5,1597.5 694.5,1579.5 694.5,1561.5C 774.335,1561.83 854.002,1561.5 933.5,1560.5C 933.5,1498.83 933.5,1437.17 933.5,1375.5C 722.166,1375.67 510.833,1375.5 299.5,1375C 275.483,1368.82 260.816,1353.65 255.5,1329.5C 254.504,1073.85 254.17,818.188 254.5,562.5C 256.279,555.624 257.945,548.624 259.5,541.5C 267.626,524.556 280.96,514.056 299.5,510C 540.5,509.833 781.5,509.667 1022.5,509.5C 1263.5,509.667 1504.5,509.833 1745.5,510C 1764.85,513.495 1778.85,523.995 1787.5,541.5 Z"/></g>
<g><path style="opacity:1" fill="#1f2928" d="M 1787.5,541.5 C 1789.54,545.698 1791.21,550.031 1792.5,554.5C 1792.5,557.167 1792.5,559.833 1792.5,562.5C 1790.72,555.624 1789.05,548.624 1787.5,541.5 Z"/></g>
<g><path style="opacity:1" fill="#1f2828" d="M 259.5,541.5 C 257.945,548.624 256.279,555.624 254.5,562.5C 254.5,559.833 254.5,557.167 254.5,554.5C 255.795,550.031 257.462,545.698 259.5,541.5 Z"/></g>
<g><path style="opacity:1" fill="#a9e3e3" d="M 254.5,554.5 C 254.5,557.167 254.5,559.833 254.5,562.5C 254.17,818.188 254.504,1073.85 255.5,1329.5C 254.167,1200.67 253.5,1071.5 253.5,942C 253.5,812.666 253.833,683.5 254.5,554.5 Z"/></g>
<g><path style="opacity:1" fill="#6a8f8e" d="M 1723.5,561.5 C 1257.85,560.336 792.183,560.169 326.5,561C 324.257,562.136 321.924,562.97 319.5,563.5C 320.975,561.59 322.975,560.424 325.5,560C 790.167,559.333 1254.83,559.333 1719.5,560C 1721.06,560.21 1722.39,560.71 1723.5,561.5 Z"/></g>
<g><path style="opacity:1" fill="#a9e3e3" d="M 1792.5,554.5 C 1793.17,683.5 1793.5,812.666 1793.5,942C 1793.5,1071.5 1792.83,1200.67 1791.5,1329.5C 1792.5,1073.85 1792.83,818.188 1792.5,562.5C 1792.5,559.833 1792.5,557.167 1792.5,554.5 Z"/></g>
<g><path style="opacity:1" fill="#b8f8f7" d="M 1723.5,561.5 C 1731.42,563.784 1736.75,568.784 1739.5,576.5C 1739.89,578.179 1740.39,579.846 1741,581.5C 1741.67,821.833 1741.67,1062.17 1741,1302.5C 1740.06,1305.15 1739.23,1307.82 1738.5,1310.5C 1734.4,1316.25 1729.07,1320.59 1722.5,1323.5C 1257.54,1324.5 792.54,1324.83 327.5,1324.5C 318.859,1322.85 312.526,1318.18 308.5,1310.5C 307.871,1307.6 306.871,1304.94 305.5,1302.5C 305.5,1302.17 305.5,1301.83 305.5,1301.5C 305.333,1061.5 305.5,821.5 306,581.5C 307.128,579.655 307.628,577.655 307.5,575.5C 309.855,569.811 313.855,565.811 319.5,563.5C 321.924,562.97 324.257,562.136 326.5,561C 792.183,560.169 1257.85,560.336 1723.5,561.5 Z"/></g>
<g><path style="opacity:1" fill="#5d7d7c" d="M 1739.5,576.5 C 1740.97,577.347 1741.8,578.68 1742,580.5C 1742.67,821.5 1742.67,1062.5 1742,1303.5C 1741.48,1306.28 1740.31,1308.61 1738.5,1310.5C 1739.23,1307.82 1740.06,1305.15 1741,1302.5C 1741.67,1062.17 1741.67,821.833 1741,581.5C 1740.39,579.846 1739.89,578.179 1739.5,576.5 Z"/></g>
<g><path style="opacity:1" fill="#5d7d7c" d="M 307.5,575.5 C 307.628,577.655 307.128,579.655 306,581.5C 305.5,821.5 305.333,1061.5 305.5,1301.5C 304.334,1061.33 304.167,821 305,580.5C 305.374,578.509 306.207,576.842 307.5,575.5 Z"/></g>
<g><path style="opacity:1" fill="#010101" d="M 1044.5,678.5 C 1058.93,677.941 1072.26,681.441 1084.5,689C 1146,739.167 1207.5,789.333 1269,839.5C 1282.38,862.235 1279.71,882.902 1261,901.5C 1188.27,981.227 1115.94,1061.23 1044,1141.5C 1043.33,1142.5 1043.33,1143.5 1044,1144.5C 1055.79,1152.54 1058.79,1163.21 1053,1176.5C 1044.87,1186.53 1034.87,1189.2 1023,1184.5C 975.151,1213.37 925.651,1216.2 874.5,1193C 826.102,1169.94 793.268,1133.11 776,1082.5C 767.508,1051.46 772.008,1022.46 789.5,995.5C 781.564,986.005 780.398,975.672 786,964.5C 793.38,955.71 802.547,953.21 813.5,957C 817.043,958.608 820.043,960.942 822.5,964C 823.449,964.617 824.282,964.451 825,963.5C 887.611,873.889 950.611,784.556 1014,695.5C 1022.56,686.807 1032.73,681.14 1044.5,678.5 Z"/></g>
<g><path style="opacity:1" fill="#b8f8f7" d="M 1046.5,716.5 C 1049.85,716.335 1053.18,716.502 1056.5,717C 1112.83,761.333 1169.17,805.667 1225.5,850C 1231.12,854.929 1232.95,861.095 1231,868.5C 1230.28,870.949 1229.28,873.283 1228,875.5C 1153.95,956.043 1080.12,1036.71 1006.5,1117.5C 955.182,1074.85 904.182,1031.85 853.5,988.5C 914.528,900.638 975.362,812.638 1036,724.5C 1038.98,720.952 1042.48,718.286 1046.5,716.5 Z"/></g>
<g><path style="opacity:1" fill="#b2f0ef" d="M 817.5,1080.5 C 830.73,1081.87 839.896,1088.87 845,1101.5C 845.867,1108.52 842.7,1111.02 835.5,1109C 825.389,1104.06 818.722,1096.23 815.5,1085.5C 816.187,1083.82 816.854,1082.16 817.5,1080.5 Z"/></g>
<g><path style="opacity:1" fill="#b3f2f1" d="M 848.5,1133.5 C 860.279,1135.32 868.779,1141.65 874,1152.5C 876.907,1161.09 874.073,1164.25 865.5,1162C 855.598,1157.1 848.931,1149.43 845.5,1139C 845.613,1136.6 846.613,1134.77 848.5,1133.5 Z"/></g>
<g><path style="opacity:1" fill="#b4f3f2" d="M 903.5,1148.5 C 907.792,1148.03 911.792,1148.87 915.5,1151C 923.54,1156.03 928.873,1163.03 931.5,1172C 930.501,1177 927.501,1178.67 922.5,1177C 913.448,1173.07 906.948,1166.57 903,1157.5C 902.264,1154.41 902.431,1151.41 903.5,1148.5 Z"/></g>
<g><path style="opacity:1" fill="#4c6665" d="M 305.5,1302.5 C 306.871,1304.94 307.871,1307.6 308.5,1310.5C 306.345,1308.38 305.345,1305.72 305.5,1302.5 Z"/></g>
<g><path style="opacity:1" fill="#131919" d="M 1722.5,1323.5 C 1722.39,1324.12 1722.06,1324.62 1721.5,1325C 1489.17,1325.17 1256.83,1325.33 1024.5,1325.5C 792,1325.5 559.666,1325.17 327.5,1324.5C 792.54,1324.83 1257.54,1324.5 1722.5,1323.5 Z"/></g>
<g><path style="opacity:1" fill="#719898" d="M 1746.5,1374.5 C 1536.33,1375.5 1326,1375.83 1115.5,1375.5C 1115.5,1437.17 1115.5,1498.83 1115.5,1560.5C 1115.17,1560.5 1114.83,1560.5 1114.5,1560.5C 1114.5,1498.5 1114.5,1436.5 1114.5,1374.5C 1325.17,1374.5 1535.83,1374.5 1746.5,1374.5 Z"/></g>
<g><path style="opacity:1" fill="#394d4d" d="M 933.5,1560.5 C 854.002,1561.5 774.335,1561.83 694.5,1561.5C 694.5,1579.5 694.5,1597.5 694.5,1615.5C 693.503,1597.34 693.17,1579.01 693.5,1560.5C 773.5,1560.5 853.5,1560.5 933.5,1560.5 Z"/></g>
<g><path style="opacity:1" fill="#394d4d" d="M 1114.5,1560.5 C 1114.83,1560.5 1115.17,1560.5 1115.5,1560.5C 1194.83,1560.5 1274.17,1560.5 1353.5,1560.5C 1353.83,1579.01 1353.5,1597.34 1352.5,1615.5C 1352.5,1597.5 1352.5,1579.5 1352.5,1561.5C 1273,1561.83 1193.66,1561.5 1114.5,1560.5 Z"/></g>
</svg>
